{"glyphs":{"0":{"ha":758,"x_min":0,"x_max":0,"o":"m 378 164 b 234 449 292 164 234 278 b 378 726 234 616 292 726 b 524 449 466 726 524 616 b 378 164 524 278 466 164 z m 25 449 b 378 -19 25 168 167 -19 b 732 449 591 -19 732 168 b 378 909 732 725 591 909 b 25 449 167 909 25 725 z m 284 449 b 378 316 284 374 323 316 b 468 449 428 316 468 374 b 378 581 468 521 428 581 b 284 449 323 581 284 521 z "},"1":{"ha":758,"x_min":0,"x_max":0,"o":"m 121 0 l 667 0 b 702 35 689 0 702 13 l 702 141 b 667 177 702 164 689 177 l 515 177 b 508 184 510 177 508 179 l 508 861 b 472 896 508 884 495 896 l 365 896 b 321 884 348 896 336 893 b 146 828 273 856 212 836 b 115 789 124 824 112 813 l 129 672 b 168 640 131 648 145 636 b 278 670 205 646 242 657 b 287 665 283 673 287 670 l 287 184 b 279 177 287 179 284 177 l 121 177 b 86 141 98 177 86 164 l 86 35 b 121 0 86 13 98 0 z "},"2":{"ha":758,"x_min":0,"x_max":0,"o":"m 93 230 l 93 35 b 129 0 93 13 106 0 l 645 0 b 681 35 668 0 681 13 l 681 141 b 645 177 681 164 668 177 l 322 177 b 314 184 317 177 314 179 l 314 220 b 428 333 314 249 343 283 l 472 360 b 686 665 641 461 686 516 b 385 915 686 809 572 915 b 90 726 237 915 135 838 b 110 681 81 705 90 688 l 241 629 b 287 650 263 620 278 628 b 389 732 308 701 343 732 b 458 660 434 732 458 703 b 318 482 458 597 444 563 l 277 456 b 93 230 168 386 93 316 z "},"3":{"ha":758,"x_min":0,"x_max":0,"o":"m 362 -19 b 689 289 552 -19 689 104 b 490 553 689 442 591 540 b 487 563 484 554 482 558 l 631 689 b 652 734 645 701 652 716 l 652 860 b 616 895 652 883 639 895 l 141 895 b 106 860 119 895 106 883 l 106 754 b 141 718 106 731 119 718 l 391 718 b 395 710 398 718 400 713 l 193 530 b 187 480 177 516 174 499 l 241 404 b 289 390 254 388 270 383 b 366 407 317 400 340 407 b 462 289 420 407 462 374 b 366 164 462 197 419 164 b 269 245 322 164 289 192 b 225 269 260 268 246 275 l 85 229 b 61 184 63 222 53 206 b 362 -19 102 67 191 -19 z "},"4":{"ha":758,"x_min":0,"x_max":0,"o":"m 468 0 l 605 0 b 640 35 628 0 640 13 l 640 178 b 648 186 640 183 643 186 l 689 186 b 725 221 712 186 725 198 l 725 318 b 689 354 725 341 712 354 l 648 354 b 640 361 643 354 640 357 l 640 861 b 605 896 640 884 628 896 l 448 896 b 405 879 431 896 418 891 b 284 715 366 837 321 775 l 59 345 b 47 301 51 331 47 317 l 47 221 b 82 186 47 198 59 186 l 426 186 b 433 178 431 186 433 183 l 433 35 b 468 0 433 13 446 0 z m 260 362 l 424 646 b 433 644 428 654 433 652 l 433 361 b 426 354 433 356 429 354 l 265 354 b 260 362 260 354 258 357 z "},"5":{"ha":758,"x_min":0,"x_max":0,"o":"m 374 -19 b 697 294 551 -19 697 95 b 412 609 697 516 561 609 b 289 581 360 609 319 598 b 280 586 283 577 280 580 l 293 712 b 302 720 293 716 298 720 l 604 720 b 639 755 626 720 639 732 l 639 861 b 604 896 639 884 626 896 l 170 896 b 133 862 149 896 135 884 l 96 486 b 116 442 95 467 101 453 l 201 384 b 251 385 218 371 234 372 b 374 426 293 413 338 426 b 470 294 429 426 470 389 b 374 164 470 216 437 164 b 269 256 326 164 292 186 b 225 282 261 279 246 288 l 83 239 b 59 194 62 232 53 217 b 374 -19 104 49 215 -19 z "},"6":{"ha":758,"x_min":0,"x_max":0,"o":"m 393 -19 b 721 280 569 -19 721 87 b 429 578 721 463 598 578 b 282 513 384 578 328 558 b 273 518 277 508 271 510 b 409 736 284 687 338 736 b 499 657 457 736 476 717 b 544 634 506 634 523 626 l 691 686 b 712 732 712 693 721 711 b 409 915 654 862 548 915 b 52 405 154 915 52 726 b 393 -19 52 93 198 -19 z m 277 324 b 414 398 314 371 364 398 b 497 280 465 398 497 352 b 394 160 497 196 456 160 b 273 316 312 160 283 213 b 277 324 273 319 274 322 z "},"7":{"ha":758,"x_min":0,"x_max":0,"o":"m 236 0 l 381 0 b 418 34 403 0 417 11 b 674 701 442 299 457 480 b 693 745 688 715 693 727 l 693 861 b 658 896 693 884 681 896 l 133 896 b 97 861 110 896 97 884 l 97 755 b 133 720 97 732 110 720 l 420 720 b 424 711 427 720 428 716 b 201 37 277 528 213 321 b 236 0 199 13 213 0 z "},"8":{"ha":758,"x_min":0,"x_max":0,"o":"m 370 -19 b 713 245 540 -19 713 34 b 549 477 713 352 648 422 b 549 487 543 480 544 485 b 686 679 653 538 686 593 b 385 915 686 842 532 915 b 74 668 222 915 74 833 b 212 455 74 573 117 511 b 212 443 218 451 217 446 b 49 234 106 395 49 328 b 370 -19 49 54 212 -19 z m 260 236 b 360 367 260 285 289 328 b 374 370 366 371 370 371 b 499 241 473 316 499 288 b 376 138 499 165 443 138 b 260 236 313 138 260 177 z m 289 667 b 384 759 289 725 323 759 b 471 676 437 759 471 727 b 394 557 471 638 457 596 b 384 556 390 554 388 554 b 289 667 322 590 289 624 z "},"9":{"ha":758,"x_min":0,"x_max":0,"o":"m 365 920 b 37 621 188 920 37 814 b 328 323 37 438 159 323 b 476 389 374 323 429 343 b 485 384 481 394 486 391 b 348 165 473 215 419 165 b 259 245 301 165 282 184 b 213 268 251 268 235 275 l 67 216 b 45 169 45 208 37 191 b 348 -14 104 39 210 -14 b 706 496 604 -14 706 176 b 365 920 706 808 559 920 z m 260 621 b 364 741 260 706 302 741 b 485 586 446 741 475 688 b 481 577 485 582 484 580 b 343 504 443 530 394 504 b 260 621 293 504 260 549 z "}," ":{"ha":758,"x_min":0,"x_max":0,"o":""}," ":{"ha":758,"x_min":0,"x_max":0,"o":""},"A":{"ha":758,"x_min":0,"x_max":0,"o":"m 192 638 l 33 39 b 63 0 27 14 38 0 l 194 0 b 234 30 215 0 229 9 l 263 158 b 270 164 264 162 266 164 l 479 164 b 486 158 482 164 485 162 l 516 30 b 556 0 521 9 535 0 l 694 0 b 723 39 720 0 730 14 l 561 639 b 462 872 534 736 496 812 b 420 896 452 889 439 896 l 328 896 b 287 872 309 896 297 889 b 192 638 254 813 220 742 z m 303 328 l 369 611 b 379 611 370 617 378 617 l 446 328 b 439 319 447 322 444 319 l 309 319 b 303 328 304 319 302 322 z "},"À":{"ha":758,"x_min":0,"x_max":0,"o":"m 192 638 l 33 39 b 63 0 27 14 38 0 l 194 0 b 234 30 215 0 229 9 l 263 158 b 270 164 264 162 266 164 l 479 164 b 486 158 482 164 485 162 l 516 30 b 556 0 521 9 535 0 l 694 0 b 723 39 720 0 730 14 l 561 639 b 462 872 534 736 496 812 b 420 896 452 889 439 896 l 328 896 b 287 872 309 896 297 889 b 192 638 254 813 220 742 z m 90 1154 l 250 1004 b 294 986 263 991 277 986 l 447 986 b 468 1029 476 986 487 1006 l 350 1177 b 307 1197 338 1192 324 1197 l 107 1197 b 90 1154 76 1197 66 1177 z m 303 328 l 369 611 b 379 611 370 617 378 617 l 446 328 b 439 319 447 322 444 319 l 309 319 b 303 328 304 319 302 322 z "},"Á":{"ha":758,"x_min":0,"x_max":0,"o":"m 192 638 l 33 39 b 63 0 27 14 38 0 l 194 0 b 234 30 215 0 229 9 l 263 158 b 270 164 264 162 266 164 l 479 164 b 486 158 482 164 485 162 l 516 30 b 556 0 521 9 535 0 l 694 0 b 723 39 720 0 730 14 l 561 639 b 462 872 534 736 496 812 b 420 896 452 889 439 896 l 328 896 b 287 872 309 896 297 889 b 192 638 254 813 220 742 z m 311 986 l 463 986 b 508 1004 481 986 495 991 l 668 1154 b 650 1197 692 1177 682 1197 l 451 1197 b 408 1177 433 1197 419 1192 l 289 1029 b 311 986 270 1006 282 986 z m 303 328 l 369 611 b 379 611 370 617 378 617 l 446 328 b 439 319 447 322 444 319 l 309 319 b 303 328 304 319 302 322 z "},"Â":{"ha":758,"x_min":0,"x_max":0,"o":"m 192 638 l 33 39 b 63 0 27 14 38 0 l 194 0 b 234 30 215 0 229 9 l 263 158 b 270 164 264 162 266 164 l 479 164 b 486 158 482 164 485 162 l 516 30 b 556 0 521 9 535 0 l 694 0 b 723 39 720 0 730 14 l 561 639 b 462 872 534 736 496 812 b 420 896 452 889 439 896 l 328 896 b 287 872 309 896 297 889 b 192 638 254 813 220 742 z m 150 986 l 271 986 b 316 1005 289 986 304 991 l 372 1068 b 383 1068 375 1072 380 1072 l 437 1006 b 481 986 448 992 463 986 l 607 986 b 629 1029 636 986 646 1005 l 503 1199 b 460 1221 491 1215 479 1221 l 298 1221 b 255 1199 279 1221 266 1215 l 129 1029 b 150 986 111 1005 121 986 z m 303 328 l 369 611 b 379 611 370 617 378 617 l 446 328 b 439 319 447 322 444 319 l 309 319 b 303 328 304 319 302 322 z "},"Ã":{"ha":758,"x_min":0,"x_max":0,"o":"m 192 638 l 33 39 b 63 0 27 14 38 0 l 194 0 b 234 30 215 0 229 9 l 263 158 b 270 164 264 162 266 164 l 479 164 b 486 158 482 164 485 162 l 516 30 b 556 0 521 9 535 0 l 694 0 b 723 39 720 0 730 14 l 561 639 b 462 872 534 736 496 812 b 420 896 452 889 439 896 l 328 896 b 287 872 309 896 297 889 b 192 638 254 813 220 742 z m 145 977 l 225 977 b 261 1013 246 977 258 990 b 298 1049 266 1042 279 1049 b 482 973 340 1049 395 973 b 646 1177 558 973 634 1020 b 612 1215 649 1201 635 1215 l 533 1215 b 496 1178 511 1215 500 1202 b 461 1143 491 1150 479 1143 b 271 1218 422 1143 357 1218 b 110 1015 172 1218 120 1168 b 145 977 109 991 122 977 z m 303 328 l 369 611 b 379 611 370 617 378 617 l 446 328 b 439 319 447 322 444 319 l 309 319 b 303 328 304 319 302 322 z "},"Ä":{"ha":758,"x_min":0,"x_max":0,"o":"m 192 638 l 33 39 b 63 0 27 14 38 0 l 194 0 b 234 30 215 0 229 9 l 263 158 b 270 164 264 162 266 164 l 479 164 b 486 158 482 164 485 162 l 516 30 b 556 0 521 9 535 0 l 694 0 b 723 39 720 0 730 14 l 561 639 b 462 872 534 736 496 812 b 420 896 452 889 439 896 l 328 896 b 287 872 309 896 297 889 b 192 638 254 813 220 742 z m 105 1091 b 230 966 105 1024 160 966 b 354 1091 297 966 354 1024 b 230 1216 354 1159 297 1216 b 105 1091 160 1216 105 1159 z m 303 328 l 369 611 b 379 611 370 617 378 617 l 446 328 b 439 319 447 322 444 319 l 309 319 b 303 328 304 319 302 322 z m 404 1091 b 529 966 404 1024 460 966 b 653 1091 596 966 653 1024 b 529 1216 653 1159 596 1216 b 404 1091 460 1216 404 1159 z "},"Å":{"ha":758,"x_min":0,"x_max":0,"o":"m 192 638 l 33 39 b 63 0 27 14 38 0 l 194 0 b 234 30 215 0 229 9 l 263 158 b 270 164 264 162 266 164 l 479 164 b 486 158 482 164 485 162 l 516 30 b 556 0 521 9 535 0 l 694 0 b 723 39 720 0 730 14 l 561 639 b 462 872 534 736 496 812 b 420 896 452 889 439 896 l 328 896 b 287 872 309 896 297 889 b 192 638 254 813 220 742 z m 201 1125 b 379 966 201 1038 282 966 b 557 1125 476 966 557 1038 b 379 1284 557 1212 476 1284 b 201 1125 282 1284 201 1212 z m 303 328 l 369 611 b 379 611 370 617 378 617 l 446 328 b 439 319 447 322 444 319 l 309 319 b 303 328 304 319 302 322 z m 321 1125 b 379 1181 321 1155 347 1181 b 437 1125 410 1181 437 1155 b 379 1069 437 1095 410 1069 b 321 1125 347 1069 321 1095 z "},"Ā":{"ha":758,"x_min":0,"x_max":0,"o":"m 192 638 l 33 39 b 63 0 27 14 38 0 l 194 0 b 234 30 215 0 229 9 l 263 158 b 270 164 264 162 266 164 l 479 164 b 486 158 482 164 485 162 l 516 30 b 556 0 521 9 535 0 l 694 0 b 723 39 720 0 730 14 l 561 639 b 462 872 534 736 496 812 b 420 896 452 889 439 896 l 328 896 b 287 872 309 896 297 889 b 192 638 254 813 220 742 z m 196 986 l 562 986 b 597 1021 585 986 597 999 l 597 1128 b 562 1163 597 1150 585 1163 l 196 1163 b 160 1128 173 1163 160 1150 l 160 1021 b 196 986 160 999 173 986 z m 303 328 l 369 611 b 379 611 370 617 378 617 l 446 328 b 439 319 447 322 444 319 l 309 319 b 303 328 304 319 302 322 z "},"Ă":{"ha":758,"x_min":0,"x_max":0,"o":"m 192 638 l 33 39 b 63 0 27 14 38 0 l 194 0 b 234 30 215 0 229 9 l 263 158 b 270 164 264 162 266 164 l 479 164 b 486 158 482 164 485 162 l 516 30 b 556 0 521 9 535 0 l 694 0 b 723 39 720 0 730 14 l 561 639 b 462 872 534 736 496 812 b 420 896 452 889 439 896 l 328 896 b 287 872 309 896 297 889 b 192 638 254 813 220 742 z m 139 1155 b 378 966 168 1018 275 966 b 617 1155 480 966 587 1018 b 585 1194 622 1181 609 1194 l 491 1194 b 452 1164 471 1194 462 1184 b 379 1131 439 1140 414 1131 b 304 1164 342 1131 317 1140 b 265 1194 295 1183 285 1194 l 172 1194 b 139 1155 148 1194 135 1181 z m 303 328 l 369 611 b 379 611 370 617 378 617 l 446 328 b 439 319 447 322 444 319 l 309 319 b 303 328 304 319 302 322 z "},"Ą":{"ha":758,"x_min":0,"x_max":0,"o":"m 192 638 l 33 39 b 63 0 27 14 38 0 l 194 0 b 234 30 215 0 229 9 l 263 158 b 270 164 264 162 266 164 l 479 164 b 486 158 482 164 485 162 l 516 30 b 556 0 521 9 535 0 b 558 -9 562 0 563 -5 b 456 -203 500 -59 456 -131 b 614 -347 456 -304 528 -347 b 715 -331 652 -347 683 -342 b 740 -288 734 -323 741 -309 l 734 -217 b 693 -196 731 -191 717 -187 b 670 -199 686 -198 678 -199 b 638 -160 652 -199 638 -188 b 734 0 638 -122 658 -66 l 735 0 b 727 28 735 0 732 8 l 561 639 b 462 872 534 736 496 812 b 420 896 452 889 439 896 l 328 896 b 287 872 309 896 297 889 b 192 638 254 813 220 742 z m 303 328 l 369 611 b 379 611 370 617 378 617 l 446 328 b 439 319 447 322 444 319 l 309 319 b 303 328 304 319 302 322 z "},"Ǻ":{"ha":758,"x_min":0,"x_max":0,"o":"m 345 1218 l 428 1218 b 472 1235 446 1218 458 1222 l 568 1321 b 552 1364 592 1342 583 1364 l 443 1364 b 399 1345 426 1364 410 1359 l 326 1261 b 345 1218 306 1239 314 1218 z m 63 0 l 194 0 b 234 30 215 0 229 9 l 263 158 b 270 164 264 162 266 164 l 479 164 b 486 158 482 164 485 162 l 516 30 b 556 0 521 9 535 0 l 694 0 b 723 39 720 0 730 14 l 561 639 b 462 872 534 736 496 812 b 420 896 452 889 439 896 l 328 896 b 287 872 309 896 297 889 b 192 638 254 813 220 742 l 33 39 b 63 0 27 14 38 0 z m 236 1061 b 383 931 236 990 302 931 b 529 1061 463 931 529 990 b 383 1189 529 1131 463 1189 b 236 1061 302 1189 236 1131 z m 303 328 l 369 611 b 379 611 370 617 378 617 l 446 328 b 439 319 447 322 444 319 l 309 319 b 303 328 304 319 302 322 z m 341 1061 b 383 1100 341 1082 360 1100 b 424 1061 405 1100 424 1082 b 383 1021 424 1039 405 1021 b 341 1061 360 1021 341 1039 z "},"B":{"ha":758,"x_min":0,"x_max":0,"o":"m 119 0 l 389 0 b 711 240 600 0 711 80 b 527 468 711 361 636 444 b 527 473 520 470 520 472 b 679 654 631 496 679 553 b 390 896 679 808 576 896 l 119 896 b 83 861 96 896 83 884 l 83 35 b 119 0 83 13 96 0 z m 304 168 l 304 366 b 312 374 304 371 307 374 l 366 374 b 485 255 448 374 485 338 b 365 160 485 187 447 160 l 312 160 b 304 168 307 160 304 163 z m 304 535 l 304 729 b 312 736 304 734 307 736 l 355 736 b 453 639 422 736 453 708 b 366 528 453 569 431 528 l 312 528 b 304 535 307 528 304 532 z "},"C":{"ha":758,"x_min":0,"x_max":0,"o":"m 396 -19 b 711 239 543 -19 658 71 b 688 290 720 266 710 284 l 544 328 b 501 299 521 335 508 323 b 396 164 477 193 434 164 b 275 449 326 164 275 264 b 396 732 275 634 326 732 b 495 586 436 732 473 687 b 538 557 501 562 515 552 l 687 592 b 712 636 710 597 720 614 b 396 915 658 811 561 915 b 54 449 182 915 54 778 b 396 -19 54 133 183 -19 z "},"Ç":{"ha":758,"x_min":0,"x_max":0,"o":"m 372 -385 b 561 -225 470 -385 561 -345 b 415 -74 561 -131 508 -82 b 410 -64 409 -73 408 -69 l 433 -21 b 442 -15 434 -19 437 -16 b 713 247 568 1 668 92 b 688 290 720 269 710 284 l 544 328 b 501 299 521 335 508 323 b 396 164 477 193 434 164 b 275 449 326 164 275 264 b 396 732 275 634 326 732 b 495 586 436 732 473 687 b 538 557 501 562 515 552 l 687 592 b 712 636 710 597 720 614 b 396 915 658 811 561 915 b 54 449 182 915 54 778 b 306 -8 54 181 146 30 b 311 -18 311 -9 313 -14 l 278 -77 b 269 -122 270 -92 268 -106 l 270 -140 b 311 -173 273 -163 287 -173 b 408 -217 384 -169 408 -188 b 365 -255 408 -240 394 -255 b 303 -241 347 -255 324 -249 b 258 -260 280 -232 265 -237 l 236 -322 b 256 -367 229 -343 235 -360 b 372 -385 288 -378 327 -385 z "},"Ć":{"ha":758,"x_min":0,"x_max":0,"o":"m 396 -19 b 711 239 543 -19 658 71 b 688 290 720 266 710 284 l 544 328 b 501 299 521 335 508 323 b 396 164 477 193 434 164 b 275 449 326 164 275 264 b 396 732 275 634 326 732 b 495 586 436 732 473 687 b 538 557 501 562 515 552 l 687 592 b 712 636 710 597 720 614 b 396 915 658 811 561 915 b 54 449 182 915 54 778 b 396 -19 54 133 183 -19 z m 330 986 l 482 986 b 527 1004 500 986 514 991 l 687 1154 b 669 1197 711 1177 701 1197 l 470 1197 b 427 1177 452 1197 438 1192 l 308 1029 b 330 986 289 1006 301 986 z "},"Ĉ":{"ha":758,"x_min":0,"x_max":0,"o":"m 396 -19 b 711 239 543 -19 658 71 b 688 290 720 266 710 284 l 544 328 b 501 299 521 335 508 323 b 396 164 477 193 434 164 b 275 449 326 164 275 264 b 396 732 275 634 326 732 b 495 586 436 732 473 687 b 538 557 501 562 515 552 l 687 592 b 712 636 710 597 720 614 b 396 915 658 811 561 915 b 54 449 182 915 54 778 b 396 -19 54 133 183 -19 z m 169 986 l 290 986 b 335 1005 308 986 323 991 l 391 1068 b 402 1068 394 1072 399 1072 l 456 1006 b 500 986 467 992 482 986 l 626 986 b 648 1029 655 986 665 1005 l 521 1199 b 479 1221 510 1215 497 1221 l 317 1221 b 274 1199 298 1221 285 1215 l 148 1029 b 169 986 130 1005 140 986 z "},"Ċ":{"ha":758,"x_min":0,"x_max":0,"o":"m 396 -19 b 711 239 543 -19 658 71 b 688 290 720 266 710 284 l 544 328 b 501 299 521 335 508 323 b 396 164 477 193 434 164 b 275 449 326 164 275 264 b 396 732 275 634 326 732 b 495 586 436 732 473 687 b 538 557 501 562 515 552 l 687 592 b 712 636 710 597 720 614 b 396 915 658 811 561 915 b 54 449 182 915 54 778 b 396 -19 54 133 183 -19 z m 274 1091 b 399 966 274 1024 330 966 b 523 1091 466 966 523 1024 b 399 1216 523 1159 466 1216 b 274 1091 330 1216 274 1159 z "},"Č":{"ha":758,"x_min":0,"x_max":0,"o":"m 396 -19 b 711 239 543 -19 658 71 b 688 290 720 266 710 284 l 544 328 b 501 299 521 335 508 323 b 396 164 477 193 434 164 b 275 449 326 164 275 264 b 396 732 275 634 326 732 b 495 586 436 732 473 687 b 538 557 501 562 515 552 l 687 592 b 712 636 710 597 720 614 b 396 915 658 811 561 915 b 54 449 182 915 54 778 b 396 -19 54 133 183 -19 z m 148 1178 l 274 1008 b 317 986 285 992 298 986 l 479 986 b 521 1008 497 986 510 992 l 648 1178 b 626 1221 665 1202 655 1221 l 505 1221 b 461 1202 487 1221 472 1216 l 404 1139 b 394 1139 402 1135 396 1135 l 340 1201 b 295 1221 328 1215 313 1221 l 169 1221 b 148 1178 140 1221 130 1202 z "},"D":{"ha":758,"x_min":0,"x_max":0,"o":"m 119 0 l 351 0 b 710 448 568 0 710 138 b 351 896 710 760 568 896 l 119 896 b 83 861 96 896 83 884 l 83 35 b 119 0 83 13 96 0 z m 304 184 l 304 712 b 312 720 304 717 307 720 l 335 720 b 482 448 429 720 482 643 b 335 177 482 253 429 177 l 312 177 b 304 184 307 177 304 181 z "},"Ď":{"ha":758,"x_min":0,"x_max":0,"o":"m 119 0 l 351 0 b 710 448 568 0 710 138 b 351 896 710 760 568 896 l 119 896 b 83 861 96 896 83 884 l 83 35 b 119 0 83 13 96 0 z m 120 1178 l 246 1008 b 289 986 258 992 270 986 l 451 986 b 494 1008 470 986 482 992 l 620 1178 b 598 1221 638 1202 628 1221 l 477 1221 b 433 1202 460 1221 444 1216 l 376 1139 b 366 1139 374 1135 369 1135 l 312 1201 b 268 1221 301 1215 285 1221 l 141 1221 b 120 1178 112 1221 102 1202 z m 304 184 l 304 712 b 312 720 304 717 307 720 l 335 720 b 482 448 429 720 482 643 b 335 177 482 253 429 177 l 312 177 b 304 184 307 177 304 181 z "},"E":{"ha":758,"x_min":0,"x_max":0,"o":"m 119 0 l 640 0 b 676 35 663 0 676 13 l 676 141 b 640 177 676 164 663 177 l 312 177 b 304 184 307 177 304 181 l 304 364 b 312 371 304 369 307 371 l 585 371 b 620 407 607 371 620 384 l 620 513 b 585 548 620 535 607 548 l 312 548 b 304 556 307 548 304 551 l 304 712 b 312 720 304 717 308 720 l 640 720 b 676 755 663 720 676 732 l 676 861 b 640 896 676 884 663 896 l 119 896 b 83 861 96 896 83 884 l 83 35 b 119 0 83 13 96 0 z "},"È":{"ha":758,"x_min":0,"x_max":0,"o":"m 119 0 l 640 0 b 676 35 663 0 676 13 l 676 141 b 640 177 676 164 663 177 l 312 177 b 304 184 307 177 304 181 l 304 364 b 312 371 304 369 307 371 l 585 371 b 620 407 607 371 620 384 l 620 513 b 585 548 620 535 607 548 l 312 548 b 304 556 307 548 304 551 l 304 712 b 312 720 304 717 308 720 l 640 720 b 676 755 663 720 676 732 l 676 861 b 640 896 676 884 663 896 l 119 896 b 83 861 96 896 83 884 l 83 35 b 119 0 83 13 96 0 z m 93 1154 l 254 1004 b 298 986 266 991 280 986 l 451 986 b 472 1029 480 986 491 1006 l 354 1177 b 311 1197 342 1192 328 1197 l 111 1197 b 93 1154 80 1197 69 1177 z "},"É":{"ha":758,"x_min":0,"x_max":0,"o":"m 119 0 l 640 0 b 676 35 663 0 676 13 l 676 141 b 640 177 676 164 663 177 l 312 177 b 304 184 307 177 304 181 l 304 364 b 312 371 304 369 307 371 l 585 371 b 620 407 607 371 620 384 l 620 513 b 585 548 620 535 607 548 l 312 548 b 304 556 307 548 304 551 l 304 712 b 312 720 304 717 308 720 l 640 720 b 676 755 663 720 676 732 l 676 861 b 640 896 676 884 663 896 l 119 896 b 83 861 96 896 83 884 l 83 35 b 119 0 83 13 96 0 z m 314 986 l 467 986 b 511 1004 485 986 499 991 l 672 1154 b 654 1197 696 1177 686 1197 l 455 1197 b 412 1177 437 1197 423 1192 l 293 1029 b 314 986 274 1006 285 986 z "},"Ê":{"ha":758,"x_min":0,"x_max":0,"o":"m 119 0 l 640 0 b 676 35 663 0 676 13 l 676 141 b 640 177 676 164 663 177 l 312 177 b 304 184 307 177 304 181 l 304 364 b 312 371 304 369 307 371 l 585 371 b 620 407 607 371 620 384 l 620 513 b 585 548 620 535 607 548 l 312 548 b 304 556 307 548 304 551 l 304 712 b 312 720 304 717 308 720 l 640 720 b 676 755 663 720 676 732 l 676 861 b 640 896 676 884 663 896 l 119 896 b 83 861 96 896 83 884 l 83 35 b 119 0 83 13 96 0 z m 154 986 l 275 986 b 319 1005 293 986 308 991 l 376 1068 b 386 1068 379 1072 384 1072 l 441 1006 b 485 986 452 992 467 986 l 611 986 b 633 1029 640 986 650 1005 l 506 1199 b 463 1221 495 1215 482 1221 l 302 1221 b 259 1199 283 1221 270 1215 l 133 1029 b 154 986 115 1005 125 986 z "},"Ë":{"ha":758,"x_min":0,"x_max":0,"o":"m 119 0 l 640 0 b 676 35 663 0 676 13 l 676 141 b 640 177 676 164 663 177 l 312 177 b 304 184 307 177 304 181 l 304 364 b 312 371 304 369 307 371 l 585 371 b 620 407 607 371 620 384 l 620 513 b 585 548 620 535 607 548 l 312 548 b 304 556 307 548 304 551 l 304 712 b 312 720 304 717 308 720 l 640 720 b 676 755 663 720 676 732 l 676 861 b 640 896 676 884 663 896 l 119 896 b 83 861 96 896 83 884 l 83 35 b 119 0 83 13 96 0 z m 109 1091 b 234 966 109 1024 164 966 b 357 1091 301 966 357 1024 b 234 1216 357 1159 301 1216 b 109 1091 164 1216 109 1159 z m 408 1091 b 533 966 408 1024 463 966 b 657 1091 600 966 657 1024 b 533 1216 657 1159 600 1216 b 408 1091 463 1216 408 1159 z "},"Ē":{"ha":758,"x_min":0,"x_max":0,"o":"m 119 0 l 640 0 b 676 35 663 0 676 13 l 676 141 b 640 177 676 164 663 177 l 312 177 b 304 184 307 177 304 181 l 304 364 b 312 371 304 369 307 371 l 585 371 b 620 407 607 371 620 384 l 620 513 b 585 548 620 535 607 548 l 312 548 b 304 556 307 548 304 551 l 304 712 b 312 720 304 717 308 720 l 640 720 b 676 755 663 720 676 732 l 676 861 b 640 896 676 884 663 896 l 119 896 b 83 861 96 896 83 884 l 83 35 b 119 0 83 13 96 0 z m 199 986 l 566 986 b 601 1021 588 986 601 999 l 601 1128 b 566 1163 601 1150 588 1163 l 199 1163 b 164 1128 177 1163 164 1150 l 164 1021 b 199 986 164 999 177 986 z "},"Ĕ":{"ha":758,"x_min":0,"x_max":0,"o":"m 119 0 l 640 0 b 676 35 663 0 676 13 l 676 141 b 640 177 676 164 663 177 l 312 177 b 304 184 307 177 304 181 l 304 364 b 312 371 304 369 307 371 l 585 371 b 620 407 607 371 620 384 l 620 513 b 585 548 620 535 607 548 l 312 548 b 304 556 307 548 304 551 l 304 712 b 312 720 304 717 308 720 l 640 720 b 676 755 663 720 676 732 l 676 861 b 640 896 676 884 663 896 l 119 896 b 83 861 96 896 83 884 l 83 35 b 119 0 83 13 96 0 z m 143 1155 b 381 966 172 1018 279 966 b 621 1155 484 966 591 1018 b 588 1194 626 1181 612 1194 l 495 1194 b 456 1164 475 1194 466 1184 b 383 1131 443 1140 418 1131 b 308 1164 346 1131 321 1140 b 269 1194 299 1183 289 1194 l 176 1194 b 143 1155 152 1194 139 1181 z "},"Ė":{"ha":758,"x_min":0,"x_max":0,"o":"m 119 0 l 640 0 b 676 35 663 0 676 13 l 676 141 b 640 177 676 164 663 177 l 312 177 b 304 184 307 177 304 181 l 304 364 b 312 371 304 369 307 371 l 585 371 b 620 407 607 371 620 384 l 620 513 b 585 548 620 535 607 548 l 312 548 b 304 556 307 548 304 551 l 304 712 b 312 720 304 717 308 720 l 640 720 b 676 755 663 720 676 732 l 676 861 b 640 896 676 884 663 896 l 119 896 b 83 861 96 896 83 884 l 83 35 b 119 0 83 13 96 0 z m 259 1091 b 384 966 259 1024 314 966 b 508 1091 451 966 508 1024 b 384 1216 508 1159 451 1216 b 259 1091 314 1216 259 1159 z "},"Ę":{"ha":758,"x_min":0,"x_max":0,"o":"m 119 0 l 516 0 b 519 -9 523 0 525 -5 b 404 -203 453 -58 404 -130 b 562 -347 404 -304 476 -347 b 663 -331 600 -347 631 -342 b 688 -288 682 -323 689 -309 l 682 -217 b 641 -196 679 -191 665 -187 b 619 -199 634 -198 626 -199 b 586 -160 600 -199 586 -188 b 657 -19 586 -126 601 -76 b 676 25 669 -5 676 8 l 676 141 b 640 177 676 164 663 177 l 312 177 b 304 184 307 177 304 181 l 304 364 b 312 371 304 369 307 371 l 585 371 b 620 407 607 371 620 384 l 620 513 b 585 548 620 535 607 548 l 312 548 b 304 556 307 548 304 551 l 304 712 b 312 720 304 717 308 720 l 640 720 b 676 755 663 720 676 732 l 676 861 b 640 896 676 884 663 896 l 119 896 b 83 861 96 896 83 884 l 83 35 b 119 0 83 13 96 0 z "},"Ě":{"ha":758,"x_min":0,"x_max":0,"o":"m 119 0 l 640 0 b 676 35 663 0 676 13 l 676 141 b 640 177 676 164 663 177 l 312 177 b 304 184 307 177 304 181 l 304 364 b 312 371 304 369 307 371 l 585 371 b 620 407 607 371 620 384 l 620 513 b 585 548 620 535 607 548 l 312 548 b 304 556 307 548 304 551 l 304 712 b 312 720 304 717 308 720 l 640 720 b 676 755 663 720 676 732 l 676 861 b 640 896 676 884 663 896 l 119 896 b 83 861 96 896 83 884 l 83 35 b 119 0 83 13 96 0 z m 133 1178 l 259 1008 b 302 986 270 992 283 986 l 463 986 b 506 1008 482 986 495 992 l 633 1178 b 611 1221 650 1202 640 1221 l 490 1221 b 446 1202 472 1221 457 1216 l 389 1139 b 379 1139 386 1135 381 1135 l 324 1201 b 280 1221 313 1215 298 1221 l 154 1221 b 133 1178 125 1221 115 1202 z "},"F":{"ha":758,"x_min":0,"x_max":0,"o":"m 119 0 l 269 0 b 304 35 292 0 304 13 l 304 336 b 312 343 304 341 307 343 l 607 343 b 643 379 630 343 643 356 l 643 485 b 607 520 643 508 630 520 l 312 520 b 304 528 307 520 304 524 l 304 712 b 312 720 304 717 307 720 l 646 720 b 682 755 669 720 682 732 l 682 861 b 646 896 682 884 669 896 l 119 896 b 83 861 96 896 83 884 l 83 35 b 119 0 83 13 96 0 z "},"G":{"ha":758,"x_min":0,"x_max":0,"o":"m 389 -19 b 726 354 607 -19 726 104 l 726 442 b 691 477 726 465 713 477 l 394 477 b 359 442 371 477 359 465 l 359 336 b 394 301 359 313 371 301 l 503 301 b 509 293 508 301 510 298 b 389 164 500 211 472 164 b 260 449 306 164 260 278 b 386 732 260 620 307 732 b 485 596 433 732 462 687 b 528 568 491 572 505 562 l 692 609 b 716 653 715 615 723 630 b 386 915 660 813 564 915 b 33 449 163 915 33 756 b 389 -19 33 152 165 -19 z "},"Ĝ":{"ha":758,"x_min":0,"x_max":0,"o":"m 389 -19 b 726 354 607 -19 726 104 l 726 442 b 691 477 726 465 713 477 l 394 477 b 359 442 371 477 359 465 l 359 336 b 394 301 359 313 371 301 l 503 301 b 509 293 508 301 510 298 b 389 164 500 211 472 164 b 260 449 306 164 260 278 b 386 732 260 620 307 732 b 485 596 433 732 462 687 b 528 568 491 572 505 562 l 692 609 b 716 653 715 615 723 630 b 386 915 660 813 564 915 b 33 449 163 915 33 756 b 389 -19 33 152 165 -19 z m 160 986 l 282 986 b 326 1005 299 986 314 991 l 383 1068 b 393 1068 385 1072 390 1072 l 447 1006 b 491 986 458 992 473 986 l 617 986 b 639 1029 646 986 657 1005 l 513 1199 b 470 1221 501 1215 489 1221 l 308 1221 b 265 1199 289 1221 277 1215 l 139 1029 b 160 986 121 1005 131 986 z "},"Ğ":{"ha":758,"x_min":0,"x_max":0,"o":"m 389 -19 b 726 354 607 -19 726 104 l 726 442 b 691 477 726 465 713 477 l 394 477 b 359 442 371 477 359 465 l 359 336 b 394 301 359 313 371 301 l 503 301 b 509 293 508 301 510 298 b 389 164 500 211 472 164 b 260 449 306 164 260 278 b 386 732 260 620 307 732 b 485 596 433 732 462 687 b 528 568 491 572 505 562 l 692 609 b 716 653 715 615 723 630 b 386 915 660 813 564 915 b 33 449 163 915 33 756 b 389 -19 33 152 165 -19 z m 149 1155 b 388 966 178 1018 285 966 b 628 1155 490 966 597 1018 b 595 1194 633 1181 619 1194 l 501 1194 b 462 1164 481 1194 472 1184 b 389 1131 449 1140 424 1131 b 314 1164 352 1131 327 1140 b 275 1194 306 1183 295 1194 l 182 1194 b 149 1155 158 1194 145 1181 z "},"Ġ":{"ha":758,"x_min":0,"x_max":0,"o":"m 389 -19 b 726 354 607 -19 726 104 l 726 442 b 691 477 726 465 713 477 l 394 477 b 359 442 371 477 359 465 l 359 336 b 394 301 359 313 371 301 l 503 301 b 509 293 508 301 510 298 b 389 164 500 211 472 164 b 260 449 306 164 260 278 b 386 732 260 620 307 732 b 485 596 433 732 462 687 b 528 568 491 572 505 562 l 692 609 b 716 653 715 615 723 630 b 386 915 660 813 564 915 b 33 449 163 915 33 756 b 389 -19 33 152 165 -19 z m 265 1091 b 390 966 265 1024 321 966 b 514 1091 457 966 514 1024 b 390 1216 514 1159 457 1216 b 265 1091 321 1216 265 1159 z "},"Ģ":{"ha":758,"x_min":0,"x_max":0,"o":"m 389 -19 b 726 354 607 -19 726 104 l 726 442 b 691 477 726 465 713 477 l 394 477 b 359 442 371 477 359 465 l 359 336 b 394 301 359 313 371 301 l 503 301 b 509 293 508 301 510 298 b 389 164 500 211 472 164 b 260 449 306 164 260 278 b 386 732 260 620 307 732 b 485 596 433 732 462 687 b 528 568 491 572 505 562 l 692 609 b 716 653 715 615 723 630 b 386 915 660 813 564 915 b 33 449 163 915 33 756 b 389 -19 33 152 165 -19 z m 266 -463 l 307 -499 b 357 -495 323 -514 342 -513 b 508 -210 467 -378 508 -306 b 386 -72 508 -122 451 -72 b 265 -191 319 -72 265 -120 b 335 -293 265 -232 289 -283 b 340 -302 340 -294 342 -297 b 264 -413 321 -340 295 -376 b 266 -463 249 -431 250 -448 z "},"H":{"ha":758,"x_min":0,"x_max":0,"o":"m 500 0 l 650 0 b 686 35 673 0 686 13 l 686 861 b 650 896 686 884 673 896 l 500 896 b 465 861 477 896 465 884 l 465 553 b 457 545 465 548 462 545 l 301 545 b 293 553 295 545 293 548 l 293 861 b 258 896 293 884 280 896 l 107 896 b 72 861 85 896 72 884 l 72 35 b 107 0 72 13 85 0 l 258 0 b 293 35 280 0 293 13 l 293 361 b 301 369 293 366 295 369 l 457 369 b 465 361 462 369 465 366 l 465 35 b 500 0 465 13 477 0 z "},"Ĥ":{"ha":758,"x_min":0,"x_max":0,"o":"m 500 0 l 650 0 b 686 35 673 0 686 13 l 686 861 b 650 896 686 884 673 896 l 500 896 b 465 861 477 896 465 884 l 465 553 b 457 545 465 548 462 545 l 301 545 b 293 553 295 545 293 548 l 293 861 b 258 896 293 884 280 896 l 107 896 b 72 861 85 896 72 884 l 72 35 b 107 0 72 13 85 0 l 258 0 b 293 35 280 0 293 13 l 293 361 b 301 369 293 366 295 369 l 457 369 b 465 361 462 369 465 366 l 465 35 b 500 0 465 13 477 0 z m 150 986 l 271 986 b 316 1005 289 986 304 991 l 372 1068 b 383 1068 375 1072 380 1072 l 437 1006 b 481 986 448 992 463 986 l 607 986 b 629 1029 636 986 646 1005 l 503 1199 b 460 1221 491 1215 479 1221 l 298 1221 b 255 1199 279 1221 266 1215 l 129 1029 b 150 986 111 1005 121 986 z "},"I":{"ha":758,"x_min":0,"x_max":0,"o":"m 115 0 l 644 0 b 679 35 667 0 679 13 l 679 129 b 644 164 679 152 667 164 l 497 164 b 490 172 492 164 490 167 l 490 725 b 497 732 490 730 492 732 l 644 732 b 679 768 667 732 679 745 l 679 861 b 644 896 679 884 667 896 l 115 896 b 80 861 92 896 80 884 l 80 768 b 115 732 80 745 92 732 l 261 732 b 269 725 266 732 269 730 l 269 172 b 261 164 269 167 266 164 l 115 164 b 80 129 92 164 80 152 l 80 35 b 115 0 80 13 92 0 z "},"Ì":{"ha":758,"x_min":0,"x_max":0,"o":"m 115 0 l 644 0 b 679 35 667 0 679 13 l 679 129 b 644 164 679 152 667 164 l 497 164 b 490 172 492 164 490 167 l 490 725 b 497 732 490 730 492 732 l 644 732 b 679 768 667 732 679 745 l 679 861 b 644 896 679 884 667 896 l 115 896 b 80 861 92 896 80 884 l 80 768 b 115 732 80 745 92 732 l 261 732 b 269 725 266 732 269 730 l 269 172 b 261 164 269 167 266 164 l 115 164 b 80 129 92 164 80 152 l 80 35 b 115 0 80 13 92 0 z m 90 1154 l 250 1004 b 294 986 263 991 277 986 l 447 986 b 468 1029 476 986 487 1006 l 350 1177 b 307 1197 338 1192 324 1197 l 107 1197 b 90 1154 76 1197 66 1177 z "},"Í":{"ha":758,"x_min":0,"x_max":0,"o":"m 115 0 l 644 0 b 679 35 667 0 679 13 l 679 129 b 644 164 679 152 667 164 l 497 164 b 490 172 492 164 490 167 l 490 725 b 497 732 490 730 492 732 l 644 732 b 679 768 667 732 679 745 l 679 861 b 644 896 679 884 667 896 l 115 896 b 80 861 92 896 80 884 l 80 768 b 115 732 80 745 92 732 l 261 732 b 269 725 266 732 269 730 l 269 172 b 261 164 269 167 266 164 l 115 164 b 80 129 92 164 80 152 l 80 35 b 115 0 80 13 92 0 z m 311 986 l 463 986 b 508 1004 481 986 495 991 l 668 1154 b 650 1197 692 1177 682 1197 l 451 1197 b 408 1177 433 1197 419 1192 l 289 1029 b 311 986 270 1006 282 986 z "},"Î":{"ha":758,"x_min":0,"x_max":0,"o":"m 115 0 l 644 0 b 679 35 667 0 679 13 l 679 129 b 644 164 679 152 667 164 l 497 164 b 490 172 492 164 490 167 l 490 725 b 497 732 490 730 492 732 l 644 732 b 679 768 667 732 679 745 l 679 861 b 644 896 679 884 667 896 l 115 896 b 80 861 92 896 80 884 l 80 768 b 115 732 80 745 92 732 l 261 732 b 269 725 266 732 269 730 l 269 172 b 261 164 269 167 266 164 l 115 164 b 80 129 92 164 80 152 l 80 35 b 115 0 80 13 92 0 z m 150 986 l 271 986 b 316 1005 289 986 304 991 l 372 1068 b 383 1068 375 1072 380 1072 l 437 1006 b 481 986 448 992 463 986 l 607 986 b 629 1029 636 986 646 1005 l 503 1199 b 460 1221 491 1215 479 1221 l 298 1221 b 255 1199 279 1221 266 1215 l 129 1029 b 150 986 111 1005 121 986 z "},"Ï":{"ha":758,"x_min":0,"x_max":0,"o":"m 115 0 l 644 0 b 679 35 667 0 679 13 l 679 129 b 644 164 679 152 667 164 l 497 164 b 490 172 492 164 490 167 l 490 725 b 497 732 490 730 492 732 l 644 732 b 679 768 667 732 679 745 l 679 861 b 644 896 679 884 667 896 l 115 896 b 80 861 92 896 80 884 l 80 768 b 115 732 80 745 92 732 l 261 732 b 269 725 266 732 269 730 l 269 172 b 261 164 269 167 266 164 l 115 164 b 80 129 92 164 80 152 l 80 35 b 115 0 80 13 92 0 z m 105 1091 b 230 966 105 1024 160 966 b 354 1091 297 966 354 1024 b 230 1216 354 1159 297 1216 b 105 1091 160 1216 105 1159 z m 404 1091 b 529 966 404 1024 460 966 b 653 1091 596 966 653 1024 b 529 1216 653 1159 596 1216 b 404 1091 460 1216 404 1159 z "},"Ĩ":{"ha":758,"x_min":0,"x_max":0,"o":"m 115 0 l 644 0 b 679 35 667 0 679 13 l 679 129 b 644 164 679 152 667 164 l 497 164 b 490 172 492 164 490 167 l 490 725 b 497 732 490 730 492 732 l 644 732 b 679 768 667 732 679 745 l 679 861 b 644 896 679 884 667 896 l 115 896 b 80 861 92 896 80 884 l 80 768 b 115 732 80 745 92 732 l 261 732 b 269 725 266 732 269 730 l 269 172 b 261 164 269 167 266 164 l 115 164 b 80 129 92 164 80 152 l 80 35 b 115 0 80 13 92 0 z m 145 977 l 225 977 b 261 1013 246 977 258 990 b 298 1049 266 1042 279 1049 b 482 973 340 1049 395 973 b 646 1177 558 973 634 1020 b 612 1215 649 1201 635 1215 l 533 1215 b 496 1178 511 1215 500 1202 b 461 1143 491 1150 479 1143 b 271 1218 422 1143 357 1218 b 110 1015 172 1218 120 1168 b 145 977 109 991 122 977 z "},"Ī":{"ha":758,"x_min":0,"x_max":0,"o":"m 115 0 l 644 0 b 679 35 667 0 679 13 l 679 129 b 644 164 679 152 667 164 l 497 164 b 490 172 492 164 490 167 l 490 725 b 497 732 490 730 492 732 l 644 732 b 679 768 667 732 679 745 l 679 861 b 644 896 679 884 667 896 l 115 896 b 80 861 92 896 80 884 l 80 768 b 115 732 80 745 92 732 l 261 732 b 269 725 266 732 269 730 l 269 172 b 261 164 269 167 266 164 l 115 164 b 80 129 92 164 80 152 l 80 35 b 115 0 80 13 92 0 z m 196 986 l 562 986 b 597 1021 585 986 597 999 l 597 1128 b 562 1163 597 1150 585 1163 l 196 1163 b 160 1128 173 1163 160 1150 l 160 1021 b 196 986 160 999 173 986 z "},"Ĭ":{"ha":758,"x_min":0,"x_max":0,"o":"m 115 0 l 644 0 b 679 35 667 0 679 13 l 679 129 b 644 164 679 152 667 164 l 497 164 b 490 172 492 164 490 167 l 490 725 b 497 732 490 730 492 732 l 644 732 b 679 768 667 732 679 745 l 679 861 b 644 896 679 884 667 896 l 115 896 b 80 861 92 896 80 884 l 80 768 b 115 732 80 745 92 732 l 261 732 b 269 725 266 732 269 730 l 269 172 b 261 164 269 167 266 164 l 115 164 b 80 129 92 164 80 152 l 80 35 b 115 0 80 13 92 0 z m 139 1155 b 378 966 168 1018 275 966 b 617 1155 480 966 587 1018 b 585 1194 622 1181 609 1194 l 491 1194 b 452 1164 471 1194 462 1184 b 379 1131 439 1140 414 1131 b 304 1164 342 1131 317 1140 b 265 1194 295 1183 285 1194 l 172 1194 b 139 1155 148 1194 135 1181 z "},"Į":{"ha":758,"x_min":0,"x_max":0,"o":"m 115 0 l 301 0 b 304 -9 307 0 309 -4 b 215 -203 251 -62 215 -131 b 372 -347 215 -304 287 -347 b 473 -331 410 -347 442 -342 b 499 -288 492 -323 500 -309 l 492 -217 b 452 -196 490 -191 476 -187 b 429 -199 444 -198 437 -199 b 396 -160 410 -199 396 -188 b 461 -5 396 -122 410 -68 b 471 0 463 -1 467 0 l 644 0 b 679 35 667 0 679 13 l 679 129 b 644 164 679 152 667 164 l 497 164 b 490 172 492 164 490 167 l 490 725 b 497 732 490 730 492 732 l 644 732 b 679 768 667 732 679 745 l 679 861 b 644 896 679 884 667 896 l 115 896 b 80 861 92 896 80 884 l 80 768 b 115 732 80 745 92 732 l 261 732 b 269 725 266 732 269 730 l 269 172 b 261 164 269 167 266 164 l 115 164 b 80 129 92 164 80 152 l 80 35 b 115 0 80 13 92 0 z "},"İ":{"ha":758,"x_min":0,"x_max":0,"o":"m 115 0 l 644 0 b 679 35 667 0 679 13 l 679 129 b 644 164 679 152 667 164 l 497 164 b 490 172 492 164 490 167 l 490 725 b 497 732 490 730 492 732 l 644 732 b 679 768 667 732 679 745 l 679 861 b 644 896 679 884 667 896 l 115 896 b 80 861 92 896 80 884 l 80 768 b 115 732 80 745 92 732 l 261 732 b 269 725 266 732 269 730 l 269 172 b 261 164 269 167 266 164 l 115 164 b 80 129 92 164 80 152 l 80 35 b 115 0 80 13 92 0 z m 255 1091 b 380 966 255 1024 311 966 b 504 1091 447 966 504 1024 b 380 1216 504 1159 447 1216 b 255 1091 311 1216 255 1159 z "},"J":{"ha":758,"x_min":0,"x_max":0,"o":"m 361 -19 b 682 316 568 -19 682 107 l 682 861 b 646 896 682 884 669 896 l 496 896 b 461 861 473 896 461 884 l 461 321 b 361 164 461 226 426 164 b 265 379 311 164 275 221 b 226 414 263 404 249 417 l 74 396 b 42 357 53 394 40 381 b 361 -19 56 93 177 -19 z "},"Ĵ":{"ha":758,"x_min":0,"x_max":0,"o":"m 361 -19 b 682 316 568 -19 682 107 l 682 861 b 646 896 682 884 669 896 l 496 896 b 461 861 473 896 461 884 l 461 321 b 361 164 461 226 426 164 b 265 379 311 164 275 221 b 226 414 263 404 249 417 l 74 396 b 42 357 53 394 40 381 b 361 -19 56 93 177 -19 z m 345 986 l 466 986 b 510 1005 484 986 499 991 l 567 1068 b 577 1068 569 1072 574 1072 l 631 1006 b 676 986 643 992 658 986 l 802 986 b 823 1029 831 986 841 1005 l 697 1199 b 654 1221 686 1215 673 1221 l 492 1221 b 449 1199 473 1221 461 1215 l 323 1029 b 345 986 306 1005 316 986 z "},"K":{"ha":758,"x_min":0,"x_max":0,"o":"m 110 0 l 260 0 b 295 35 283 0 295 13 l 295 269 b 298 278 295 273 297 275 l 347 346 b 359 346 351 351 356 352 l 515 25 b 557 0 524 8 538 0 l 727 0 b 753 42 754 0 765 16 l 497 548 b 499 558 496 552 496 556 l 711 854 b 688 896 727 878 717 896 l 534 896 b 491 874 515 896 501 889 l 304 601 b 295 604 301 595 295 597 l 295 861 b 260 896 295 884 283 896 l 110 896 b 74 861 87 896 74 884 l 74 35 b 110 0 74 13 87 0 z "},"Ķ":{"ha":758,"x_min":0,"x_max":0,"o":"m 110 0 l 260 0 b 295 35 283 0 295 13 l 295 269 b 298 278 295 273 297 275 l 347 346 b 359 346 351 351 356 352 l 515 25 b 557 0 524 8 538 0 l 727 0 b 753 42 754 0 765 16 l 497 548 b 499 558 496 552 496 556 l 711 854 b 688 896 727 878 717 896 l 534 896 b 491 874 515 896 501 889 l 304 601 b 295 604 301 595 295 597 l 295 861 b 260 896 295 884 283 896 l 110 896 b 74 861 87 896 74 884 l 74 35 b 110 0 74 13 87 0 z m 270 -463 l 311 -499 b 361 -495 327 -514 346 -513 b 511 -210 471 -378 511 -306 b 390 -72 511 -122 455 -72 b 269 -191 323 -72 269 -120 b 338 -293 269 -232 293 -283 b 343 -302 343 -294 346 -297 b 268 -413 324 -340 299 -376 b 270 -463 253 -431 254 -448 z "},"L":{"ha":758,"x_min":0,"x_max":0,"o":"m 149 0 l 659 0 b 694 35 682 0 694 13 l 694 141 b 659 177 694 164 682 177 l 342 177 b 335 184 337 177 335 179 l 335 861 b 299 896 335 884 322 896 l 149 896 b 114 861 126 896 114 884 l 114 35 b 149 0 114 13 126 0 z "},"Ĺ":{"ha":758,"x_min":0,"x_max":0,"o":"m 149 0 l 659 0 b 694 35 682 0 694 13 l 694 141 b 659 177 694 164 682 177 l 342 177 b 335 184 337 177 335 179 l 335 861 b 299 896 335 884 322 896 l 149 896 b 114 861 126 896 114 884 l 114 35 b 149 0 114 13 126 0 z m 165 986 l 318 986 b 362 1004 336 986 350 991 l 523 1154 b 505 1197 547 1177 537 1197 l 306 1197 b 263 1177 288 1197 274 1192 l 144 1029 b 165 986 125 1006 136 986 z "},"Ļ":{"ha":758,"x_min":0,"x_max":0,"o":"m 149 0 l 659 0 b 694 35 682 0 694 13 l 694 141 b 659 177 694 164 682 177 l 342 177 b 335 184 337 177 335 179 l 335 861 b 299 896 335 884 322 896 l 149 896 b 114 861 126 896 114 884 l 114 35 b 149 0 114 13 126 0 z m 324 -463 l 365 -499 b 415 -495 381 -514 400 -513 b 566 -210 525 -378 566 -306 b 444 -72 566 -122 509 -72 b 323 -191 378 -72 323 -120 b 393 -293 323 -232 347 -283 b 398 -302 398 -294 400 -297 b 322 -413 379 -340 354 -376 b 324 -463 307 -431 308 -448 z "},"Ľ":{"ha":758,"x_min":0,"x_max":0,"o":"m 149 0 l 659 0 b 694 35 682 0 694 13 l 694 141 b 659 177 694 164 682 177 l 342 177 b 335 184 337 177 335 179 l 335 861 b 299 896 335 884 322 896 l 149 896 b 114 861 126 896 114 884 l 114 35 b 149 0 114 13 126 0 z m 494 634 l 610 634 b 646 667 631 634 644 644 l 670 859 b 638 896 673 881 662 896 l 494 896 b 458 861 471 896 458 884 l 458 669 b 494 634 458 646 471 634 z "},"M":{"ha":758,"x_min":0,"x_max":0,"o":"m 82 0 l 196 0 b 231 35 218 0 231 13 l 231 434 b 240 437 231 441 237 444 l 294 292 b 330 210 304 266 318 235 b 371 183 338 191 352 183 l 384 183 b 426 210 403 183 417 191 b 458 290 436 232 447 260 l 513 438 b 521 437 515 446 521 443 l 521 35 b 557 0 521 13 534 0 l 676 0 b 711 35 698 0 711 13 l 711 861 b 676 896 711 884 698 896 l 576 896 b 533 874 557 896 543 890 b 482 758 511 836 497 798 l 386 501 b 376 501 384 494 379 494 l 280 763 b 234 874 261 813 247 847 b 191 896 223 890 210 896 l 82 896 b 47 861 59 896 47 884 l 47 35 b 82 0 47 13 59 0 z "},"N":{"ha":758,"x_min":0,"x_max":0,"o":"m 105 0 l 221 0 b 256 35 244 0 256 13 l 256 489 b 265 491 256 496 263 499 l 409 162 b 485 21 434 104 456 61 b 528 0 496 5 510 0 l 653 0 b 688 35 676 0 688 13 l 688 861 b 653 896 688 884 676 896 l 537 896 b 501 861 514 896 501 884 l 501 403 b 492 400 501 395 495 393 l 338 758 b 273 878 317 807 297 848 b 231 896 263 891 249 896 l 105 896 b 69 861 82 896 69 884 l 69 35 b 105 0 69 13 82 0 z "},"Ñ":{"ha":758,"x_min":0,"x_max":0,"o":"m 105 0 l 221 0 b 256 35 244 0 256 13 l 256 489 b 265 491 256 496 263 499 l 409 162 b 485 21 434 104 456 61 b 528 0 496 5 510 0 l 653 0 b 688 35 676 0 688 13 l 688 861 b 653 896 688 884 676 896 l 537 896 b 501 861 514 896 501 884 l 501 403 b 492 400 501 395 495 393 l 338 758 b 273 878 317 807 297 848 b 231 896 263 891 249 896 l 105 896 b 69 861 82 896 69 884 l 69 35 b 105 0 69 13 82 0 z m 150 977 l 230 977 b 266 1013 251 977 263 990 b 303 1049 271 1042 284 1049 b 487 973 345 1049 400 973 b 652 1177 563 973 639 1020 b 617 1215 654 1201 640 1215 l 538 1215 b 501 1178 516 1215 505 1202 b 466 1143 496 1150 484 1143 b 277 1218 427 1143 362 1218 b 115 1015 177 1218 125 1168 b 150 977 114 991 128 977 z "},"Ń":{"ha":758,"x_min":0,"x_max":0,"o":"m 105 0 l 221 0 b 256 35 244 0 256 13 l 256 489 b 265 491 256 496 263 499 l 409 162 b 485 21 434 104 456 61 b 528 0 496 5 510 0 l 653 0 b 688 35 676 0 688 13 l 688 861 b 653 896 688 884 676 896 l 537 896 b 501 861 514 896 501 884 l 501 403 b 492 400 501 395 495 393 l 338 758 b 273 878 317 807 297 848 b 231 896 263 891 249 896 l 105 896 b 69 861 82 896 69 884 l 69 35 b 105 0 69 13 82 0 z m 316 986 l 468 986 b 513 1004 486 986 500 991 l 673 1154 b 655 1197 697 1177 687 1197 l 456 1197 b 413 1177 438 1197 424 1192 l 294 1029 b 316 986 275 1006 287 986 z "},"Ņ":{"ha":758,"x_min":0,"x_max":0,"o":"m 105 0 l 221 0 b 256 35 244 0 256 13 l 256 489 b 265 491 256 496 263 499 l 409 162 b 485 21 434 104 456 61 b 528 0 496 5 510 0 l 653 0 b 688 35 676 0 688 13 l 688 861 b 653 896 688 884 676 896 l 537 896 b 501 861 514 896 501 884 l 501 403 b 492 400 501 395 495 393 l 338 758 b 273 878 317 807 297 848 b 231 896 263 891 249 896 l 105 896 b 69 861 82 896 69 884 l 69 35 b 105 0 69 13 82 0 z m 270 -463 l 311 -499 b 361 -495 327 -514 346 -513 b 511 -210 471 -378 511 -306 b 390 -72 511 -122 455 -72 b 269 -191 323 -72 269 -120 b 338 -293 269 -232 293 -283 b 343 -302 343 -294 346 -297 b 268 -413 324 -340 299 -376 b 270 -463 253 -431 254 -448 z "},"Ň":{"ha":758,"x_min":0,"x_max":0,"o":"m 105 0 l 221 0 b 256 35 244 0 256 13 l 256 489 b 265 491 256 496 263 499 l 409 162 b 485 21 434 104 456 61 b 528 0 496 5 510 0 l 653 0 b 688 35 676 0 688 13 l 688 861 b 653 896 688 884 676 896 l 537 896 b 501 861 514 896 501 884 l 501 403 b 492 400 501 395 495 393 l 338 758 b 273 878 317 807 297 848 b 231 896 263 891 249 896 l 105 896 b 69 861 82 896 69 884 l 69 35 b 105 0 69 13 82 0 z m 134 1178 l 260 1008 b 303 986 271 992 284 986 l 465 986 b 508 1008 484 986 496 992 l 634 1178 b 612 1221 652 1202 641 1221 l 491 1221 b 447 1202 473 1221 458 1216 l 390 1139 b 380 1139 388 1135 383 1135 l 326 1201 b 282 1221 314 1215 299 1221 l 155 1221 b 134 1178 126 1221 116 1202 z "},"O":{"ha":758,"x_min":0,"x_max":0,"o":"m 378 164 b 259 449 295 164 259 278 b 378 732 259 620 295 732 b 499 449 462 732 499 620 b 378 164 499 278 462 164 z m 32 449 b 378 -19 32 168 158 -19 b 726 449 600 -19 726 168 b 378 915 726 729 600 915 b 32 449 158 915 32 729 z "},"Ò":{"ha":758,"x_min":0,"x_max":0,"o":"m 378 164 b 259 449 295 164 259 278 b 378 732 259 620 295 732 b 499 449 462 732 499 620 b 378 164 499 278 462 164 z m 32 449 b 378 -19 32 168 158 -19 b 726 449 600 -19 726 168 b 378 915 726 729 600 915 b 32 449 158 915 32 729 z m 90 1154 l 250 1004 b 294 986 263 991 277 986 l 447 986 b 468 1029 476 986 487 1006 l 350 1177 b 307 1197 338 1192 324 1197 l 107 1197 b 90 1154 76 1197 66 1177 z "},"Ó":{"ha":758,"x_min":0,"x_max":0,"o":"m 378 164 b 259 449 295 164 259 278 b 378 732 259 620 295 732 b 499 449 462 732 499 620 b 378 164 499 278 462 164 z m 32 449 b 378 -19 32 168 158 -19 b 726 449 600 -19 726 168 b 378 915 726 729 600 915 b 32 449 158 915 32 729 z m 311 986 l 463 986 b 508 1004 481 986 495 991 l 668 1154 b 650 1197 692 1177 682 1197 l 451 1197 b 408 1177 433 1197 419 1192 l 289 1029 b 311 986 270 1006 282 986 z "},"Ô":{"ha":758,"x_min":0,"x_max":0,"o":"m 378 164 b 259 449 295 164 259 278 b 378 732 259 620 295 732 b 499 449 462 732 499 620 b 378 164 499 278 462 164 z m 32 449 b 378 -19 32 168 158 -19 b 726 449 600 -19 726 168 b 378 915 726 729 600 915 b 32 449 158 915 32 729 z m 150 986 l 271 986 b 316 1005 289 986 304 991 l 372 1068 b 383 1068 375 1072 380 1072 l 437 1006 b 481 986 448 992 463 986 l 607 986 b 629 1029 636 986 646 1005 l 503 1199 b 460 1221 491 1215 479 1221 l 298 1221 b 255 1199 279 1221 266 1215 l 129 1029 b 150 986 111 1005 121 986 z "},"Õ":{"ha":758,"x_min":0,"x_max":0,"o":"m 378 164 b 259 449 295 164 259 278 b 378 732 259 620 295 732 b 499 449 462 732 499 620 b 378 164 499 278 462 164 z m 32 449 b 378 -19 32 168 158 -19 b 726 449 600 -19 726 168 b 378 915 726 729 600 915 b 32 449 158 915 32 729 z m 145 977 l 225 977 b 261 1013 246 977 258 990 b 298 1049 266 1042 279 1049 b 482 973 340 1049 395 973 b 646 1177 558 973 634 1020 b 612 1215 649 1201 635 1215 l 533 1215 b 496 1178 511 1215 500 1202 b 461 1143 491 1150 479 1143 b 271 1218 422 1143 357 1218 b 110 1015 172 1218 120 1168 b 145 977 109 991 122 977 z "},"Ö":{"ha":758,"x_min":0,"x_max":0,"o":"m 378 164 b 259 449 295 164 259 278 b 378 732 259 620 295 732 b 499 449 462 732 499 620 b 378 164 499 278 462 164 z m 32 449 b 378 -19 32 168 158 -19 b 726 449 600 -19 726 168 b 378 915 726 729 600 915 b 32 449 158 915 32 729 z m 105 1091 b 230 966 105 1024 160 966 b 354 1091 297 966 354 1024 b 230 1216 354 1159 297 1216 b 105 1091 160 1216 105 1159 z m 404 1091 b 529 966 404 1024 460 966 b 653 1091 596 966 653 1024 b 529 1216 653 1159 596 1216 b 404 1091 460 1216 404 1159 z "},"Ō":{"ha":758,"x_min":0,"x_max":0,"o":"m 378 164 b 259 449 295 164 259 278 b 378 732 259 620 295 732 b 499 449 462 732 499 620 b 378 164 499 278 462 164 z m 32 449 b 378 -19 32 168 158 -19 b 726 449 600 -19 726 168 b 378 915 726 729 600 915 b 32 449 158 915 32 729 z m 196 986 l 562 986 b 597 1021 585 986 597 999 l 597 1128 b 562 1163 597 1150 585 1163 l 196 1163 b 160 1128 173 1163 160 1150 l 160 1021 b 196 986 160 999 173 986 z "},"Ŏ":{"ha":758,"x_min":0,"x_max":0,"o":"m 378 164 b 259 449 295 164 259 278 b 378 732 259 620 295 732 b 499 449 462 732 499 620 b 378 164 499 278 462 164 z m 32 449 b 378 -19 32 168 158 -19 b 726 449 600 -19 726 168 b 378 915 726 729 600 915 b 32 449 158 915 32 729 z m 139 1155 b 378 966 168 1018 275 966 b 617 1155 480 966 587 1018 b 585 1194 622 1181 609 1194 l 491 1194 b 452 1164 471 1194 462 1184 b 379 1131 439 1140 414 1131 b 304 1164 342 1131 317 1140 b 265 1194 295 1183 285 1194 l 172 1194 b 139 1155 148 1194 135 1181 z "},"Ő":{"ha":758,"x_min":0,"x_max":0,"o":"m 378 164 b 259 449 295 164 259 278 b 378 732 259 620 295 732 b 499 449 462 732 499 620 b 378 164 499 278 462 164 z m 32 449 b 378 -19 32 168 158 -19 b 726 449 600 -19 726 168 b 378 915 726 729 600 915 b 32 449 158 915 32 729 z m 146 986 l 279 986 b 322 1008 298 986 311 992 l 431 1154 b 408 1197 448 1178 437 1197 l 235 1197 b 193 1172 216 1197 202 1189 l 121 1028 b 146 986 109 1003 120 986 z m 457 986 l 586 986 b 630 1005 604 986 617 992 l 768 1154 b 749 1197 789 1177 779 1197 l 577 1197 b 534 1174 558 1197 544 1189 l 434 1029 b 457 986 418 1005 428 986 z "},"P":{"ha":758,"x_min":0,"x_max":0,"o":"m 119 0 l 269 0 b 304 35 292 0 304 13 l 304 284 b 312 292 304 289 308 292 l 409 292 b 716 596 606 292 716 385 b 409 896 716 804 606 896 l 119 896 b 83 861 96 896 83 884 l 83 35 b 119 0 83 13 96 0 z m 304 476 l 304 712 b 312 720 304 717 307 720 l 391 720 b 489 596 460 720 489 686 b 391 468 489 504 460 468 l 312 468 b 304 476 307 468 304 471 z "},"Q":{"ha":758,"x_min":0,"x_max":0,"o":"m 489 -265 b 636 -244 545 -265 592 -258 b 655 -203 653 -239 659 -225 l 634 -85 b 590 -61 629 -59 614 -53 b 520 -72 568 -68 545 -72 b 449 -25 473 -72 449 -56 l 449 -18 b 456 -10 449 -14 452 -11 b 726 449 630 29 726 202 b 378 915 726 729 600 915 b 32 449 158 915 32 729 b 290 -9 32 208 125 37 b 295 -16 294 -10 297 -13 b 294 -57 295 -29 294 -42 b 489 -265 294 -210 385 -265 z m 259 449 b 378 732 259 620 295 732 b 499 449 462 732 499 620 b 378 164 499 278 462 164 b 259 449 295 164 259 278 z "},"R":{"ha":758,"x_min":0,"x_max":0,"o":"m 119 0 l 269 0 b 304 35 292 0 304 13 l 304 316 b 312 323 304 321 307 323 l 369 323 b 378 317 372 323 376 321 l 503 27 b 543 0 510 9 523 0 l 699 0 b 726 42 726 0 737 16 l 657 189 b 571 348 626 254 597 308 b 573 359 567 352 568 356 b 699 610 655 402 699 484 b 394 896 699 809 591 896 l 119 896 b 83 861 96 896 83 884 l 83 35 b 119 0 83 13 96 0 z m 304 508 l 304 712 b 312 720 304 717 307 720 l 378 720 b 472 610 443 720 472 689 b 378 500 472 532 443 500 l 312 500 b 304 508 307 500 304 504 z "},"Ŕ":{"ha":758,"x_min":0,"x_max":0,"o":"m 119 0 l 269 0 b 304 35 292 0 304 13 l 304 316 b 312 323 304 321 307 323 l 369 323 b 378 317 372 323 376 321 l 503 27 b 543 0 510 9 523 0 l 699 0 b 726 42 726 0 737 16 l 657 189 b 571 348 626 254 597 308 b 573 359 567 352 568 356 b 699 610 655 402 699 484 b 394 896 699 809 591 896 l 119 896 b 83 861 96 896 83 884 l 83 35 b 119 0 83 13 96 0 z m 308 986 l 461 986 b 505 1004 479 986 492 991 l 665 1154 b 648 1197 689 1177 679 1197 l 448 1197 b 405 1177 431 1197 417 1192 l 287 1029 b 308 986 268 1006 279 986 z m 304 508 l 304 712 b 312 720 304 717 307 720 l 378 720 b 472 610 443 720 472 689 b 378 500 472 532 443 500 l 312 500 b 304 508 307 500 304 504 z "},"Ŗ":{"ha":758,"x_min":0,"x_max":0,"o":"m 119 0 l 269 0 b 304 35 292 0 304 13 l 304 316 b 312 323 304 321 307 323 l 369 323 b 378 317 372 323 376 321 l 503 27 b 543 0 510 9 523 0 l 699 0 b 726 42 726 0 737 16 l 657 189 b 571 348 626 254 597 308 b 573 359 567 352 568 356 b 699 610 655 402 699 484 b 394 896 699 809 591 896 l 119 896 b 83 861 96 896 83 884 l 83 35 b 119 0 83 13 96 0 z m 283 -463 l 323 -499 b 374 -495 340 -514 359 -513 b 524 -210 484 -378 524 -306 b 403 -72 524 -122 467 -72 b 282 -191 336 -72 282 -120 b 351 -293 282 -232 306 -283 b 356 -302 356 -294 359 -297 b 280 -413 337 -340 312 -376 b 283 -463 265 -431 266 -448 z m 304 508 l 304 712 b 312 720 304 717 307 720 l 378 720 b 472 610 443 720 472 689 b 378 500 472 532 443 500 l 312 500 b 304 508 307 500 304 504 z "},"Ř":{"ha":758,"x_min":0,"x_max":0,"o":"m 119 0 l 269 0 b 304 35 292 0 304 13 l 304 316 b 312 323 304 321 307 323 l 369 323 b 378 317 372 323 376 321 l 503 27 b 543 0 510 9 523 0 l 699 0 b 726 42 726 0 737 16 l 657 189 b 571 348 626 254 597 308 b 573 359 567 352 568 356 b 699 610 655 402 699 484 b 394 896 699 809 591 896 l 119 896 b 83 861 96 896 83 884 l 83 35 b 119 0 83 13 96 0 z m 126 1178 l 253 1008 b 295 986 264 992 277 986 l 457 986 b 500 1008 476 986 489 992 l 626 1178 b 605 1221 644 1202 634 1221 l 484 1221 b 439 1202 466 1221 451 1216 l 383 1139 b 372 1139 380 1135 375 1135 l 318 1201 b 274 1221 307 1215 292 1221 l 148 1221 b 126 1178 119 1221 109 1202 z m 304 508 l 304 712 b 312 720 304 717 307 720 l 378 720 b 472 610 443 720 472 689 b 378 500 472 532 443 500 l 312 500 b 304 508 307 500 304 504 z "},"S":{"ha":758,"x_min":0,"x_max":0,"o":"m 375 -19 b 701 250 607 -19 701 126 b 429 557 701 404 619 462 b 285 681 342 601 285 628 b 357 740 285 720 314 740 b 472 641 402 740 438 716 b 519 620 482 619 497 612 l 667 674 b 686 721 688 682 696 699 b 360 917 617 855 514 917 b 64 673 148 917 64 792 b 313 365 64 503 178 426 b 477 240 396 327 477 299 b 375 158 477 187 441 158 b 245 270 312 158 271 191 b 201 294 237 294 223 303 l 62 244 b 39 199 42 236 33 221 b 375 -19 83 61 191 -19 z "},"Ś":{"ha":758,"x_min":0,"x_max":0,"o":"m 375 -19 b 701 250 607 -19 701 126 b 429 557 701 404 619 462 b 285 681 342 601 285 628 b 357 740 285 720 314 740 b 472 641 402 740 438 716 b 519 620 482 619 497 612 l 667 674 b 686 721 688 682 696 699 b 360 917 617 855 514 917 b 64 673 148 917 64 792 b 313 365 64 503 178 426 b 477 240 396 327 477 299 b 375 158 477 187 441 158 b 245 270 312 158 271 191 b 201 294 237 294 223 303 l 62 244 b 39 199 42 236 33 221 b 375 -19 83 61 191 -19 z m 306 986 l 458 986 b 503 1004 476 986 490 991 l 663 1154 b 645 1197 687 1177 677 1197 l 446 1197 b 403 1177 428 1197 414 1192 l 284 1029 b 306 986 265 1006 277 986 z "},"Ŝ":{"ha":758,"x_min":0,"x_max":0,"o":"m 375 -19 b 701 250 607 -19 701 126 b 429 557 701 404 619 462 b 285 681 342 601 285 628 b 357 740 285 720 314 740 b 472 641 402 740 438 716 b 519 620 482 619 497 612 l 667 674 b 686 721 688 682 696 699 b 360 917 617 855 514 917 b 64 673 148 917 64 792 b 313 365 64 503 178 426 b 477 240 396 327 477 299 b 375 158 477 187 441 158 b 245 270 312 158 271 191 b 201 294 237 294 223 303 l 62 244 b 39 199 42 236 33 221 b 375 -19 83 61 191 -19 z m 145 986 l 266 986 b 311 1005 284 986 299 991 l 367 1068 b 378 1068 370 1072 375 1072 l 432 1006 b 476 986 443 992 458 986 l 602 986 b 624 1029 631 986 641 1005 l 497 1199 b 455 1221 486 1215 473 1221 l 293 1221 b 250 1199 274 1221 261 1215 l 124 1029 b 145 986 106 1005 116 986 z "},"Ş":{"ha":758,"x_min":0,"x_max":0,"o":"m 336 -385 b 524 -225 433 -385 524 -345 b 379 -74 524 -131 471 -82 b 374 -64 372 -73 371 -69 l 395 -24 b 404 -19 396 -20 399 -19 b 701 250 615 -6 701 131 b 429 557 701 404 619 462 b 285 681 342 601 285 628 b 357 740 285 720 314 740 b 472 641 402 740 438 716 b 519 620 482 619 497 612 l 667 674 b 686 721 688 682 696 699 b 360 917 617 855 514 917 b 64 673 148 917 64 792 b 313 365 64 503 178 426 b 477 240 396 327 477 299 b 375 158 477 187 441 158 b 245 270 312 158 271 191 b 201 294 237 294 223 303 l 62 244 b 39 199 42 236 33 221 b 269 -9 73 90 148 18 b 274 -18 274 -10 277 -14 l 241 -77 b 232 -122 234 -92 231 -106 l 234 -140 b 274 -173 236 -163 250 -173 b 371 -217 347 -169 371 -188 b 328 -255 371 -240 357 -255 b 266 -241 311 -255 288 -249 b 221 -260 244 -232 229 -237 l 199 -322 b 220 -367 192 -343 198 -360 b 336 -385 251 -378 290 -385 z "},"Š":{"ha":758,"x_min":0,"x_max":0,"o":"m 375 -19 b 701 250 607 -19 701 126 b 429 557 701 404 619 462 b 285 681 342 601 285 628 b 357 740 285 720 314 740 b 472 641 402 740 438 716 b 519 620 482 619 497 612 l 667 674 b 686 721 688 682 696 699 b 360 917 617 855 514 917 b 64 673 148 917 64 792 b 313 365 64 503 178 426 b 477 240 396 327 477 299 b 375 158 477 187 441 158 b 245 270 312 158 271 191 b 201 294 237 294 223 303 l 62 244 b 39 199 42 236 33 221 b 375 -19 83 61 191 -19 z m 124 1178 l 250 1008 b 293 986 261 992 274 986 l 455 986 b 497 1008 473 986 486 992 l 624 1178 b 602 1221 641 1202 631 1221 l 481 1221 b 437 1202 463 1221 448 1216 l 380 1139 b 370 1139 378 1135 372 1135 l 316 1201 b 271 1221 304 1215 289 1221 l 145 1221 b 124 1178 116 1221 106 1202 z "},"Ș":{"ha":758,"x_min":0,"x_max":0,"o":"m 375 -19 b 701 250 607 -19 701 126 b 429 557 701 404 619 462 b 285 681 342 601 285 628 b 357 740 285 720 314 740 b 472 641 402 740 438 716 b 519 620 482 619 497 612 l 667 674 b 686 721 688 682 696 699 b 360 917 617 855 514 917 b 64 673 148 917 64 792 b 313 365 64 503 178 426 b 477 240 396 327 477 299 b 375 158 477 187 441 158 b 245 270 312 158 271 191 b 201 294 237 294 223 303 l 62 244 b 39 199 42 236 33 221 b 375 -19 83 61 191 -19 z m 232 -463 l 273 -499 b 323 -495 289 -514 308 -513 b 473 -210 433 -378 473 -306 b 352 -72 473 -122 417 -72 b 231 -191 285 -72 231 -120 b 301 -293 231 -232 255 -283 b 306 -302 306 -294 308 -297 b 230 -413 287 -340 261 -376 b 232 -463 215 -431 216 -448 z "},"T":{"ha":758,"x_min":0,"x_max":0,"o":"m 304 0 l 455 0 b 490 35 477 0 490 13 l 490 712 b 497 720 490 717 492 720 l 655 720 b 691 755 678 720 691 732 l 691 861 b 655 896 691 884 678 896 l 104 896 b 68 861 81 896 68 884 l 68 755 b 104 720 68 732 81 720 l 261 720 b 269 712 266 720 269 717 l 269 35 b 304 0 269 13 282 0 z "},"Ț":{"ha":758,"x_min":0,"x_max":0,"o":"m 304 0 l 455 0 b 490 35 477 0 490 13 l 490 712 b 497 720 490 717 492 720 l 655 720 b 691 755 678 720 691 732 l 691 861 b 655 896 691 884 678 896 l 104 896 b 68 861 81 896 68 884 l 68 755 b 104 720 68 732 81 720 l 261 720 b 269 712 266 720 269 717 l 269 35 b 304 0 269 13 282 0 z m 259 -463 l 299 -499 b 350 -495 316 -514 335 -513 b 500 -210 460 -378 500 -306 b 379 -72 500 -122 443 -72 b 258 -191 312 -72 258 -120 b 327 -293 258 -232 282 -283 b 332 -302 332 -294 335 -297 b 256 -413 313 -340 288 -376 b 259 -463 241 -431 242 -448 z "},"Ť":{"ha":758,"x_min":0,"x_max":0,"o":"m 304 0 l 455 0 b 490 35 477 0 490 13 l 490 712 b 497 720 490 717 492 720 l 655 720 b 691 755 678 720 691 732 l 691 861 b 655 896 691 884 678 896 l 104 896 b 68 861 81 896 68 884 l 68 755 b 104 720 68 732 81 720 l 261 720 b 269 712 266 720 269 717 l 269 35 b 304 0 269 13 282 0 z m 129 1178 l 255 1008 b 298 986 266 992 279 986 l 460 986 b 503 1008 479 986 491 992 l 629 1178 b 607 1221 646 1202 636 1221 l 486 1221 b 442 1202 468 1221 453 1216 l 385 1139 b 375 1139 383 1135 378 1135 l 321 1201 b 277 1221 309 1215 294 1221 l 150 1221 b 129 1178 121 1221 111 1202 z "},"U":{"ha":758,"x_min":0,"x_max":0,"o":"m 379 -19 b 683 335 581 -19 683 106 l 683 861 b 648 896 683 884 670 896 l 497 896 b 462 861 475 896 462 884 l 462 343 b 379 164 462 223 432 164 b 295 343 327 164 295 223 l 295 861 b 260 896 295 884 283 896 l 110 896 b 74 861 87 896 74 884 l 74 335 b 379 -19 74 106 177 -19 z "},"Ù":{"ha":758,"x_min":0,"x_max":0,"o":"m 379 -19 b 683 335 581 -19 683 106 l 683 861 b 648 896 683 884 670 896 l 497 896 b 462 861 475 896 462 884 l 462 343 b 379 164 462 223 432 164 b 295 343 327 164 295 223 l 295 861 b 260 896 295 884 283 896 l 110 896 b 74 861 87 896 74 884 l 74 335 b 379 -19 74 106 177 -19 z m 90 1154 l 250 1004 b 294 986 263 991 277 986 l 447 986 b 468 1029 476 986 487 1006 l 350 1177 b 307 1197 338 1192 324 1197 l 107 1197 b 90 1154 76 1197 66 1177 z "},"Ú":{"ha":758,"x_min":0,"x_max":0,"o":"m 379 -19 b 683 335 581 -19 683 106 l 683 861 b 648 896 683 884 670 896 l 497 896 b 462 861 475 896 462 884 l 462 343 b 379 164 462 223 432 164 b 295 343 327 164 295 223 l 295 861 b 260 896 295 884 283 896 l 110 896 b 74 861 87 896 74 884 l 74 335 b 379 -19 74 106 177 -19 z m 311 986 l 463 986 b 508 1004 481 986 495 991 l 668 1154 b 650 1197 692 1177 682 1197 l 451 1197 b 408 1177 433 1197 419 1192 l 289 1029 b 311 986 270 1006 282 986 z "},"Û":{"ha":758,"x_min":0,"x_max":0,"o":"m 379 -19 b 683 335 581 -19 683 106 l 683 861 b 648 896 683 884 670 896 l 497 896 b 462 861 475 896 462 884 l 462 343 b 379 164 462 223 432 164 b 295 343 327 164 295 223 l 295 861 b 260 896 295 884 283 896 l 110 896 b 74 861 87 896 74 884 l 74 335 b 379 -19 74 106 177 -19 z m 150 986 l 271 986 b 316 1005 289 986 304 991 l 372 1068 b 383 1068 375 1072 380 1072 l 437 1006 b 481 986 448 992 463 986 l 607 986 b 629 1029 636 986 646 1005 l 503 1199 b 460 1221 491 1215 479 1221 l 298 1221 b 255 1199 279 1221 266 1215 l 129 1029 b 150 986 111 1005 121 986 z "},"Ü":{"ha":758,"x_min":0,"x_max":0,"o":"m 379 -19 b 683 335 581 -19 683 106 l 683 861 b 648 896 683 884 670 896 l 497 896 b 462 861 475 896 462 884 l 462 343 b 379 164 462 223 432 164 b 295 343 327 164 295 223 l 295 861 b 260 896 295 884 283 896 l 110 896 b 74 861 87 896 74 884 l 74 335 b 379 -19 74 106 177 -19 z m 105 1091 b 230 966 105 1024 160 966 b 354 1091 297 966 354 1024 b 230 1216 354 1159 297 1216 b 105 1091 160 1216 105 1159 z m 404 1091 b 529 966 404 1024 460 966 b 653 1091 596 966 653 1024 b 529 1216 653 1159 596 1216 b 404 1091 460 1216 404 1159 z "},"Ũ":{"ha":758,"x_min":0,"x_max":0,"o":"m 379 -19 b 683 335 581 -19 683 106 l 683 861 b 648 896 683 884 670 896 l 497 896 b 462 861 475 896 462 884 l 462 343 b 379 164 462 223 432 164 b 295 343 327 164 295 223 l 295 861 b 260 896 295 884 283 896 l 110 896 b 74 861 87 896 74 884 l 74 335 b 379 -19 74 106 177 -19 z m 145 977 l 225 977 b 261 1013 246 977 258 990 b 298 1049 266 1042 279 1049 b 482 973 340 1049 395 973 b 646 1177 558 973 634 1020 b 612 1215 649 1201 635 1215 l 533 1215 b 496 1178 511 1215 500 1202 b 461 1143 491 1150 479 1143 b 271 1218 422 1143 357 1218 b 110 1015 172 1218 120 1168 b 145 977 109 991 122 977 z "},"Ū":{"ha":758,"x_min":0,"x_max":0,"o":"m 379 -19 b 683 335 581 -19 683 106 l 683 861 b 648 896 683 884 670 896 l 497 896 b 462 861 475 896 462 884 l 462 343 b 379 164 462 223 432 164 b 295 343 327 164 295 223 l 295 861 b 260 896 295 884 283 896 l 110 896 b 74 861 87 896 74 884 l 74 335 b 379 -19 74 106 177 -19 z m 196 986 l 562 986 b 597 1021 585 986 597 999 l 597 1128 b 562 1163 597 1150 585 1163 l 196 1163 b 160 1128 173 1163 160 1150 l 160 1021 b 196 986 160 999 173 986 z "},"Ŭ":{"ha":758,"x_min":0,"x_max":0,"o":"m 379 -19 b 683 335 581 -19 683 106 l 683 861 b 648 896 683 884 670 896 l 497 896 b 462 861 475 896 462 884 l 462 343 b 379 164 462 223 432 164 b 295 343 327 164 295 223 l 295 861 b 260 896 295 884 283 896 l 110 896 b 74 861 87 896 74 884 l 74 335 b 379 -19 74 106 177 -19 z m 139 1155 b 378 966 168 1018 275 966 b 617 1155 480 966 587 1018 b 585 1194 622 1181 609 1194 l 491 1194 b 452 1164 471 1194 462 1184 b 379 1131 439 1140 414 1131 b 304 1164 342 1131 317 1140 b 265 1194 295 1183 285 1194 l 172 1194 b 139 1155 148 1194 135 1181 z "},"Ů":{"ha":758,"x_min":0,"x_max":0,"o":"m 379 -19 b 683 335 581 -19 683 106 l 683 861 b 648 896 683 884 670 896 l 497 896 b 462 861 475 896 462 884 l 462 343 b 379 164 462 223 432 164 b 295 343 327 164 295 223 l 295 861 b 260 896 295 884 283 896 l 110 896 b 74 861 87 896 74 884 l 74 335 b 379 -19 74 106 177 -19 z m 201 1125 b 379 966 201 1038 282 966 b 557 1125 476 966 557 1038 b 379 1284 557 1212 476 1284 b 201 1125 282 1284 201 1212 z m 321 1125 b 379 1181 321 1155 347 1181 b 437 1125 410 1181 437 1155 b 379 1069 437 1095 410 1069 b 321 1125 347 1069 321 1095 z "},"Ű":{"ha":758,"x_min":0,"x_max":0,"o":"m 379 -19 b 683 335 581 -19 683 106 l 683 861 b 648 896 683 884 670 896 l 497 896 b 462 861 475 896 462 884 l 462 343 b 379 164 462 223 432 164 b 295 343 327 164 295 223 l 295 861 b 260 896 295 884 283 896 l 110 896 b 74 861 87 896 74 884 l 74 335 b 379 -19 74 106 177 -19 z m 146 986 l 279 986 b 322 1008 298 986 311 992 l 431 1154 b 408 1197 448 1178 437 1197 l 235 1197 b 193 1172 216 1197 202 1189 l 121 1028 b 146 986 109 1003 120 986 z m 457 986 l 586 986 b 630 1005 604 986 617 992 l 768 1154 b 749 1197 789 1177 779 1197 l 577 1197 b 534 1174 558 1197 544 1189 l 434 1029 b 457 986 418 1005 428 986 z "},"Ų":{"ha":758,"x_min":0,"x_max":0,"o":"m 438 -347 b 540 -330 477 -347 509 -342 b 564 -288 559 -323 566 -309 l 558 -217 b 518 -196 556 -191 542 -187 b 495 -199 510 -198 503 -199 b 462 -160 476 -199 462 -188 b 567 35 462 -114 485 -44 b 683 335 644 92 683 194 l 683 861 b 648 896 683 884 670 896 l 497 896 b 462 861 475 896 462 884 l 462 343 b 379 164 462 223 432 164 b 295 343 327 164 295 223 l 295 861 b 260 896 295 884 283 896 l 110 896 b 74 861 87 896 74 884 l 74 335 b 351 -19 74 117 168 -8 b 355 -28 357 -19 359 -23 b 280 -203 311 -78 280 -140 b 438 -347 280 -304 352 -347 z "},"V":{"ha":758,"x_min":0,"x_max":0,"o":"m 337 0 l 429 0 b 471 24 448 0 461 8 b 566 259 504 83 538 154 l 725 857 b 694 896 731 883 720 896 l 559 896 b 520 866 539 896 525 888 l 389 295 b 379 295 388 289 380 289 l 245 866 b 206 896 240 888 226 896 l 63 896 b 34 857 38 896 28 883 l 197 258 b 295 24 223 160 261 85 b 337 0 306 8 318 0 z "},"W":{"ha":758,"x_min":0,"x_max":0,"o":"m 164 0 l 226 0 b 266 27 246 0 259 9 b 328 203 287 77 306 124 l 379 388 b 389 388 380 394 388 394 l 439 202 b 496 27 462 117 477 72 b 537 0 504 9 516 0 l 605 0 b 645 28 625 0 639 9 b 687 265 665 90 679 178 l 736 860 b 702 896 737 883 725 896 l 600 896 b 563 862 578 896 564 884 l 538 418 b 529 418 538 412 530 412 l 486 578 b 447 713 468 644 460 683 b 407 740 441 732 426 740 l 365 740 b 324 713 346 740 331 732 b 285 580 313 683 303 643 l 241 414 b 232 415 240 408 232 409 l 205 862 b 168 896 203 884 189 896 l 56 896 b 23 860 33 896 20 883 l 73 266 b 124 28 80 189 104 91 b 164 0 130 9 144 0 z "},"Ŵ":{"ha":758,"x_min":0,"x_max":0,"o":"m 164 0 l 226 0 b 266 27 246 0 259 9 b 328 203 287 77 306 124 l 379 388 b 389 388 380 394 388 394 l 439 202 b 496 27 462 117 477 72 b 537 0 504 9 516 0 l 605 0 b 645 28 625 0 639 9 b 687 265 665 90 679 178 l 736 860 b 702 896 737 883 725 896 l 600 896 b 563 862 578 896 564 884 l 538 418 b 529 418 538 412 530 412 l 486 578 b 447 713 468 644 460 683 b 407 740 441 732 426 740 l 365 740 b 324 713 346 740 331 732 b 285 580 313 683 303 643 l 241 414 b 232 415 240 408 232 409 l 205 862 b 168 896 203 884 189 896 l 56 896 b 23 860 33 896 20 883 l 73 266 b 124 28 80 189 104 91 b 164 0 130 9 144 0 z m 150 986 l 271 986 b 316 1005 289 986 304 991 l 372 1068 b 383 1068 375 1072 380 1072 l 437 1006 b 481 986 448 992 463 986 l 607 986 b 629 1029 636 986 646 1005 l 503 1199 b 460 1221 491 1215 479 1221 l 298 1221 b 255 1199 279 1221 266 1215 l 129 1029 b 150 986 111 1005 121 986 z "},"Ẁ":{"ha":758,"x_min":0,"x_max":0,"o":"m 164 0 l 226 0 b 266 27 246 0 259 9 b 328 203 287 77 306 124 l 379 388 b 389 388 380 394 388 394 l 439 202 b 496 27 462 117 477 72 b 537 0 504 9 516 0 l 605 0 b 645 28 625 0 639 9 b 687 265 665 90 679 178 l 736 860 b 702 896 737 883 725 896 l 600 896 b 563 862 578 896 564 884 l 538 418 b 529 418 538 412 530 412 l 486 578 b 447 713 468 644 460 683 b 407 740 441 732 426 740 l 365 740 b 324 713 346 740 331 732 b 285 580 313 683 303 643 l 241 414 b 232 415 240 408 232 409 l 205 862 b 168 896 203 884 189 896 l 56 896 b 23 860 33 896 20 883 l 73 266 b 124 28 80 189 104 91 b 164 0 130 9 144 0 z m 90 1154 l 250 1004 b 294 986 263 991 277 986 l 447 986 b 468 1029 476 986 487 1006 l 350 1177 b 307 1197 338 1192 324 1197 l 107 1197 b 90 1154 76 1197 66 1177 z "},"Ẃ":{"ha":758,"x_min":0,"x_max":0,"o":"m 164 0 l 226 0 b 266 27 246 0 259 9 b 328 203 287 77 306 124 l 379 388 b 389 388 380 394 388 394 l 439 202 b 496 27 462 117 477 72 b 537 0 504 9 516 0 l 605 0 b 645 28 625 0 639 9 b 687 265 665 90 679 178 l 736 860 b 702 896 737 883 725 896 l 600 896 b 563 862 578 896 564 884 l 538 418 b 529 418 538 412 530 412 l 486 578 b 447 713 468 644 460 683 b 407 740 441 732 426 740 l 365 740 b 324 713 346 740 331 732 b 285 580 313 683 303 643 l 241 414 b 232 415 240 408 232 409 l 205 862 b 168 896 203 884 189 896 l 56 896 b 23 860 33 896 20 883 l 73 266 b 124 28 80 189 104 91 b 164 0 130 9 144 0 z m 311 986 l 463 986 b 508 1004 481 986 495 991 l 668 1154 b 650 1197 692 1177 682 1197 l 451 1197 b 408 1177 433 1197 419 1192 l 289 1029 b 311 986 270 1006 282 986 z "},"Ẅ":{"ha":758,"x_min":0,"x_max":0,"o":"m 164 0 l 226 0 b 266 27 246 0 259 9 b 328 203 287 77 306 124 l 379 388 b 389 388 380 394 388 394 l 439 202 b 496 27 462 117 477 72 b 537 0 504 9 516 0 l 605 0 b 645 28 625 0 639 9 b 687 265 665 90 679 178 l 736 860 b 702 896 737 883 725 896 l 600 896 b 563 862 578 896 564 884 l 538 418 b 529 418 538 412 530 412 l 486 578 b 447 713 468 644 460 683 b 407 740 441 732 426 740 l 365 740 b 324 713 346 740 331 732 b 285 580 313 683 303 643 l 241 414 b 232 415 240 408 232 409 l 205 862 b 168 896 203 884 189 896 l 56 896 b 23 860 33 896 20 883 l 73 266 b 124 28 80 189 104 91 b 164 0 130 9 144 0 z m 105 1091 b 230 966 105 1024 160 966 b 354 1091 297 966 354 1024 b 230 1216 354 1159 297 1216 b 105 1091 160 1216 105 1159 z m 404 1091 b 529 966 404 1024 460 966 b 653 1091 596 966 653 1024 b 529 1216 653 1159 596 1216 b 404 1091 460 1216 404 1159 z "},"X":{"ha":758,"x_min":0,"x_max":0,"o":"m 525 0 l 686 0 b 711 42 712 0 723 16 l 508 448 b 508 458 506 452 506 455 l 713 855 b 688 896 726 880 715 896 l 537 896 b 495 870 518 896 504 889 l 389 644 b 379 644 386 639 381 639 l 271 870 b 230 896 263 889 249 896 l 69 896 b 44 855 43 896 32 880 l 250 458 b 250 448 251 455 251 452 l 47 42 b 72 0 34 16 45 0 l 223 0 b 265 27 242 0 258 9 l 370 255 b 380 255 372 260 378 260 l 484 27 b 525 0 491 9 506 0 z "},"Y":{"ha":758,"x_min":0,"x_max":0,"o":"m 313 0 l 463 0 b 499 35 486 0 499 13 l 499 303 b 501 313 499 306 500 311 l 731 855 b 705 896 741 879 731 896 l 561 896 b 519 869 540 896 527 888 l 391 535 b 381 535 389 528 384 529 l 250 869 b 208 896 242 888 229 896 l 54 896 b 28 855 28 896 16 879 l 275 308 b 278 298 277 306 278 301 l 278 35 b 313 0 278 13 290 0 z "},"Ý":{"ha":758,"x_min":0,"x_max":0,"o":"m 313 0 l 463 0 b 499 35 486 0 499 13 l 499 303 b 501 313 499 306 500 311 l 731 855 b 705 896 741 879 731 896 l 561 896 b 519 869 540 896 527 888 l 391 535 b 381 535 389 528 384 529 l 250 869 b 208 896 242 888 229 896 l 54 896 b 28 855 28 896 16 879 l 275 308 b 278 298 277 306 278 301 l 278 35 b 313 0 278 13 290 0 z m 311 986 l 463 986 b 508 1004 481 986 495 991 l 668 1154 b 650 1197 692 1177 682 1197 l 451 1197 b 408 1177 433 1197 419 1192 l 289 1029 b 311 986 270 1006 282 986 z "},"Ŷ":{"ha":758,"x_min":0,"x_max":0,"o":"m 313 0 l 463 0 b 499 35 486 0 499 13 l 499 303 b 501 313 499 306 500 311 l 731 855 b 705 896 741 879 731 896 l 561 896 b 519 869 540 896 527 888 l 391 535 b 381 535 389 528 384 529 l 250 869 b 208 896 242 888 229 896 l 54 896 b 28 855 28 896 16 879 l 275 308 b 278 298 277 306 278 301 l 278 35 b 313 0 278 13 290 0 z m 150 986 l 271 986 b 316 1005 289 986 304 991 l 372 1068 b 383 1068 375 1072 380 1072 l 437 1006 b 481 986 448 992 463 986 l 607 986 b 629 1029 636 986 646 1005 l 503 1199 b 460 1221 491 1215 479 1221 l 298 1221 b 255 1199 279 1221 266 1215 l 129 1029 b 150 986 111 1005 121 986 z "},"Ÿ":{"ha":758,"x_min":0,"x_max":0,"o":"m 313 0 l 463 0 b 499 35 486 0 499 13 l 499 303 b 501 313 499 306 500 311 l 731 855 b 705 896 741 879 731 896 l 561 896 b 519 869 540 896 527 888 l 391 535 b 381 535 389 528 384 529 l 250 869 b 208 896 242 888 229 896 l 54 896 b 28 855 28 896 16 879 l 275 308 b 278 298 277 306 278 301 l 278 35 b 313 0 278 13 290 0 z m 105 1091 b 230 966 105 1024 160 966 b 354 1091 297 966 354 1024 b 230 1216 354 1159 297 1216 b 105 1091 160 1216 105 1159 z m 404 1091 b 529 966 404 1024 460 966 b 653 1091 596 966 653 1024 b 529 1216 653 1159 596 1216 b 404 1091 460 1216 404 1159 z "},"Ỳ":{"ha":758,"x_min":0,"x_max":0,"o":"m 313 0 l 463 0 b 499 35 486 0 499 13 l 499 303 b 501 313 499 306 500 311 l 731 855 b 705 896 741 879 731 896 l 561 896 b 519 869 540 896 527 888 l 391 535 b 381 535 389 528 384 529 l 250 869 b 208 896 242 888 229 896 l 54 896 b 28 855 28 896 16 879 l 275 308 b 278 298 277 306 278 301 l 278 35 b 313 0 278 13 290 0 z m 90 1154 l 250 1004 b 294 986 263 991 277 986 l 447 986 b 468 1029 476 986 487 1006 l 350 1177 b 307 1197 338 1192 324 1197 l 107 1197 b 90 1154 76 1197 66 1177 z "},"Z":{"ha":758,"x_min":0,"x_max":0,"o":"m 86 111 l 86 35 b 121 0 86 13 98 0 l 636 0 b 672 35 659 0 672 13 l 672 141 b 636 177 672 164 659 177 l 345 177 b 340 186 340 177 337 181 l 602 657 b 646 754 620 688 636 723 b 653 795 652 769 653 780 l 653 861 b 617 896 653 884 640 896 l 144 896 b 109 861 121 896 109 884 l 109 755 b 144 720 109 732 121 720 l 398 720 b 403 711 403 720 405 716 l 159 280 b 95 155 139 244 115 201 b 86 111 88 139 86 128 z "},"Ź":{"ha":758,"x_min":0,"x_max":0,"o":"m 86 111 l 86 35 b 121 0 86 13 98 0 l 636 0 b 672 35 659 0 672 13 l 672 141 b 636 177 672 164 659 177 l 345 177 b 340 186 340 177 337 181 l 602 657 b 646 754 620 688 636 723 b 653 795 652 769 653 780 l 653 861 b 617 896 653 884 640 896 l 144 896 b 109 861 121 896 109 884 l 109 755 b 144 720 109 732 121 720 l 398 720 b 403 711 403 720 405 716 l 159 280 b 95 155 139 244 115 201 b 86 111 88 139 86 128 z m 314 986 l 467 986 b 511 1004 485 986 499 991 l 672 1154 b 654 1197 696 1177 686 1197 l 455 1197 b 412 1177 437 1197 423 1192 l 293 1029 b 314 986 274 1006 285 986 z "},"Ż":{"ha":758,"x_min":0,"x_max":0,"o":"m 86 111 l 86 35 b 121 0 86 13 98 0 l 636 0 b 672 35 659 0 672 13 l 672 141 b 636 177 672 164 659 177 l 345 177 b 340 186 340 177 337 181 l 602 657 b 646 754 620 688 636 723 b 653 795 652 769 653 780 l 653 861 b 617 896 653 884 640 896 l 144 896 b 109 861 121 896 109 884 l 109 755 b 144 720 109 732 121 720 l 398 720 b 403 711 403 720 405 716 l 159 280 b 95 155 139 244 115 201 b 86 111 88 139 86 128 z m 259 1091 b 384 966 259 1024 314 966 b 508 1091 451 966 508 1024 b 384 1216 508 1159 451 1216 b 259 1091 314 1216 259 1159 z "},"Ž":{"ha":758,"x_min":0,"x_max":0,"o":"m 86 111 l 86 35 b 121 0 86 13 98 0 l 636 0 b 672 35 659 0 672 13 l 672 141 b 636 177 672 164 659 177 l 345 177 b 340 186 340 177 337 181 l 602 657 b 646 754 620 688 636 723 b 653 795 652 769 653 780 l 653 861 b 617 896 653 884 640 896 l 144 896 b 109 861 121 896 109 884 l 109 755 b 144 720 109 732 121 720 l 398 720 b 403 711 403 720 405 716 l 159 280 b 95 155 139 244 115 201 b 86 111 88 139 86 128 z m 133 1178 l 259 1008 b 302 986 270 992 283 986 l 463 986 b 506 1008 482 986 495 992 l 633 1178 b 611 1221 650 1202 640 1221 l 490 1221 b 446 1202 472 1221 457 1216 l 389 1139 b 379 1139 386 1135 381 1135 l 324 1201 b 280 1221 313 1215 298 1221 l 154 1221 b 133 1178 125 1221 115 1202 z "},"Æ":{"ha":758,"x_min":0,"x_max":0,"o":"m 706 896 l 299 896 b 258 870 280 896 266 889 b 194 692 239 826 216 768 l 16 39 b 47 0 10 14 21 0 l 160 0 b 199 30 181 0 194 9 l 230 150 b 237 157 231 155 234 157 l 365 157 b 372 149 370 157 372 154 l 372 35 b 408 0 372 13 385 0 l 706 0 b 741 35 729 0 741 13 l 741 126 b 706 162 741 149 729 162 l 562 162 b 554 169 557 162 554 164 l 554 372 b 562 380 554 378 558 380 l 650 380 b 686 415 673 380 686 393 l 686 510 b 650 545 686 533 673 545 l 562 545 b 554 553 557 545 554 549 l 554 734 b 562 741 554 739 557 741 l 706 741 b 741 777 729 741 741 754 l 741 861 b 706 896 741 884 729 896 z m 271 319 l 317 501 b 365 729 333 564 350 650 b 372 727 365 730 372 729 l 372 318 b 365 311 372 313 369 311 l 278 311 b 271 319 273 311 270 313 z "},"Ǽ":{"ha":758,"x_min":0,"x_max":0,"o":"m 706 896 l 299 896 b 258 870 280 896 266 889 b 194 692 239 826 216 768 l 16 39 b 47 0 10 14 21 0 l 160 0 b 199 30 181 0 194 9 l 230 150 b 237 157 231 155 234 157 l 365 157 b 372 149 370 157 372 154 l 372 35 b 408 0 372 13 385 0 l 706 0 b 741 35 729 0 741 13 l 741 126 b 706 162 741 149 729 162 l 562 162 b 554 169 557 162 554 164 l 554 372 b 562 380 554 378 558 380 l 650 380 b 686 415 673 380 686 393 l 686 510 b 650 545 686 533 673 545 l 562 545 b 554 553 557 545 554 549 l 554 734 b 562 741 554 739 557 741 l 706 741 b 741 777 729 741 741 754 l 741 861 b 706 896 741 884 729 896 z m 271 319 l 317 501 b 365 729 333 564 350 650 b 372 727 365 730 372 729 l 372 318 b 365 311 372 313 369 311 l 278 311 b 271 319 273 311 270 313 z m 333 986 l 486 986 b 530 1004 504 986 518 991 l 691 1154 b 673 1197 715 1177 705 1197 l 473 1197 b 431 1177 456 1197 442 1192 l 312 1029 b 333 986 293 1006 304 986 z "},"Ð":{"ha":758,"x_min":0,"x_max":0,"o":"m 378 528 l 312 528 b 304 535 307 528 304 532 l 304 715 b 312 722 304 720 307 722 l 335 722 b 505 448 444 722 505 644 b 335 174 505 251 444 174 l 312 174 b 304 182 307 174 304 178 l 304 366 b 312 374 304 371 307 374 l 378 374 b 413 409 400 374 413 386 l 413 492 b 378 528 413 515 400 528 z m 53 374 l 101 374 b 109 366 106 374 109 371 l 109 35 b 144 0 109 13 121 0 l 351 0 b 710 448 568 0 710 138 b 351 896 710 760 568 896 l 144 896 b 109 861 121 896 109 884 l 109 535 b 101 528 109 530 106 528 l 53 528 b 18 492 30 528 18 515 l 18 409 b 53 374 18 386 30 374 z "},"Ø":{"ha":758,"x_min":0,"x_max":0,"o":"m 68 0 l 158 0 b 201 24 177 0 191 8 b 211 27 203 28 207 29 b 378 -19 258 -3 313 -19 b 726 449 600 -19 726 168 b 659 749 726 568 703 669 b 660 759 658 753 658 756 l 720 854 b 696 896 735 879 723 896 l 604 896 b 561 874 585 896 571 890 l 559 871 b 549 869 557 866 553 866 b 378 915 501 899 444 915 b 32 449 158 915 32 729 b 101 143 32 327 56 222 b 100 133 102 139 102 135 l 44 43 b 68 0 29 18 40 0 z m 259 449 b 378 732 259 620 295 732 b 446 698 404 732 427 720 b 446 688 448 694 448 692 l 269 404 b 259 407 265 398 260 399 b 259 449 259 420 259 436 z m 314 205 l 489 485 b 499 482 492 491 499 490 b 499 449 499 472 499 461 b 378 164 499 278 462 164 b 314 194 352 164 332 176 b 314 205 312 198 312 201 z "},"Ǿ":{"ha":758,"x_min":0,"x_max":0,"o":"m 68 0 l 158 0 b 201 24 177 0 191 8 b 211 27 203 28 207 29 b 378 -19 258 -3 313 -19 b 726 449 600 -19 726 168 b 659 749 726 568 703 669 b 660 759 658 753 658 756 l 720 854 b 696 896 735 879 723 896 l 604 896 b 561 874 585 896 571 890 l 559 871 b 549 869 557 866 553 866 b 378 915 501 899 444 915 b 32 449 158 915 32 729 b 101 143 32 327 56 222 b 100 133 102 139 102 135 l 44 43 b 68 0 29 18 40 0 z m 311 986 l 463 986 b 508 1004 481 986 495 991 l 668 1154 b 650 1197 692 1177 682 1197 l 451 1197 b 408 1177 433 1197 419 1192 l 289 1029 b 311 986 270 1006 282 986 z m 259 449 b 378 732 259 620 295 732 b 446 698 404 732 427 720 b 446 688 448 694 448 692 l 269 404 b 259 407 265 398 260 399 b 259 449 259 420 259 436 z m 314 205 l 489 485 b 499 482 492 491 499 490 b 499 449 499 472 499 461 b 378 164 499 278 462 164 b 314 194 352 164 332 176 b 314 205 312 198 312 201 z "},"Þ":{"ha":758,"x_min":0,"x_max":0,"o":"m 131 0 l 282 0 b 317 35 304 0 317 13 l 317 150 b 324 158 317 155 321 158 l 409 158 b 716 462 606 158 716 251 b 409 763 716 670 606 763 l 324 763 b 317 770 319 763 317 765 l 317 861 b 282 896 317 884 304 896 l 131 896 b 96 861 109 896 96 884 l 96 35 b 131 0 96 13 109 0 z m 317 342 l 317 578 b 324 586 317 583 321 586 l 391 586 b 489 462 460 586 489 552 b 391 335 489 370 460 335 l 324 335 b 317 342 319 335 317 337 z "},"Đ":{"ha":758,"x_min":0,"x_max":0,"o":"m 378 528 l 312 528 b 304 535 307 528 304 532 l 304 715 b 312 722 304 720 307 722 l 335 722 b 505 448 444 722 505 644 b 335 174 505 251 444 174 l 312 174 b 304 182 307 174 304 178 l 304 366 b 312 374 304 371 307 374 l 378 374 b 413 409 400 374 413 386 l 413 492 b 378 528 413 515 400 528 z m 53 374 l 101 374 b 109 366 106 374 109 371 l 109 35 b 144 0 109 13 121 0 l 351 0 b 710 448 568 0 710 138 b 351 896 710 760 568 896 l 144 896 b 109 861 121 896 109 884 l 109 535 b 101 528 109 530 106 528 l 53 528 b 18 492 30 528 18 515 l 18 409 b 53 374 18 386 30 374 z "},"Ħ":{"ha":758,"x_min":0,"x_max":0,"o":"m 713 785 l 668 785 b 660 793 663 785 660 788 l 660 861 b 625 896 660 884 648 896 l 500 896 b 465 861 477 896 465 884 l 465 793 b 457 785 465 788 462 785 l 301 785 b 293 793 295 785 293 788 l 293 861 b 258 896 293 884 280 896 l 133 896 b 97 861 110 896 97 884 l 97 793 b 90 785 97 788 95 785 l 44 785 b 9 750 21 785 9 773 l 9 678 b 44 643 9 655 21 643 l 90 643 b 97 635 95 643 97 640 l 97 35 b 133 0 97 13 110 0 l 258 0 b 293 35 280 0 293 13 l 293 361 b 301 369 293 366 295 369 l 457 369 b 465 361 462 369 465 366 l 465 35 b 500 0 465 13 477 0 l 625 0 b 660 35 648 0 660 13 l 660 635 b 668 643 660 640 663 643 l 713 643 b 749 678 736 643 749 655 l 749 750 b 713 785 749 773 736 785 z m 293 553 l 293 635 b 301 643 293 640 295 643 l 457 643 b 465 635 462 643 465 639 l 465 553 b 457 545 465 548 462 545 l 301 545 b 293 553 295 545 293 549 z "},"Ĳ":{"ha":758,"x_min":0,"x_max":0,"o":"m 114 458 l 264 458 b 299 494 287 458 299 471 l 299 861 b 264 896 299 884 287 896 l 114 896 b 78 861 91 896 78 884 l 78 494 b 114 458 78 471 91 458 z m 80 285 b 388 -19 95 73 212 -19 b 689 303 583 -19 689 102 l 689 861 b 654 896 689 884 677 896 l 504 896 b 468 861 481 896 468 884 l 468 308 b 388 164 468 221 441 164 b 302 287 343 164 312 193 b 265 322 299 309 287 322 l 115 322 b 80 285 92 322 78 309 z "},"Ŀ":{"ha":758,"x_min":0,"x_max":0,"o":"m 149 0 l 659 0 b 694 35 682 0 694 13 l 694 141 b 659 177 694 164 682 177 l 342 177 b 335 184 337 177 335 179 l 335 861 b 299 896 335 884 322 896 l 149 896 b 114 861 126 896 114 884 l 114 35 b 149 0 114 13 126 0 z m 480 557 b 605 432 480 490 535 432 b 729 557 672 432 729 490 b 605 682 729 625 672 682 b 480 557 535 682 480 625 z "},"Ł":{"ha":758,"x_min":0,"x_max":0,"o":"m 163 0 l 659 0 b 694 35 682 0 694 13 l 694 141 b 659 177 694 164 682 177 l 356 177 b 348 184 351 177 348 181 l 348 441 b 355 448 348 444 351 447 l 463 479 b 494 519 484 485 494 499 l 494 626 b 455 657 494 652 480 664 l 357 630 b 348 636 352 629 348 631 l 348 861 b 313 896 348 884 336 896 l 163 896 b 128 861 140 896 128 884 l 128 572 b 121 564 128 568 125 566 l 51 544 b 20 504 30 539 20 524 l 20 396 b 59 366 20 371 34 359 l 119 383 b 128 376 124 384 128 381 l 128 35 b 163 0 128 13 140 0 z "},"Ŋ":{"ha":758,"x_min":0,"x_max":0,"o":"m 105 0 l 221 0 b 256 35 244 0 256 13 l 256 489 b 265 491 256 496 263 499 l 409 162 b 496 6 438 97 461 49 b 500 -3 499 4 500 1 b 413 -120 494 -83 461 -120 b 279 -92 364 -120 318 -107 b 235 -114 258 -83 241 -90 l 203 -218 b 225 -264 197 -239 203 -256 b 408 -297 279 -284 342 -297 b 688 -9 572 -297 688 -197 l 688 861 b 653 896 688 884 676 896 l 537 896 b 501 861 514 896 501 884 l 501 403 b 492 400 501 395 495 393 l 338 758 b 273 878 317 807 297 848 b 231 896 263 891 249 896 l 105 896 b 69 861 82 896 69 884 l 69 35 b 105 0 69 13 82 0 z "},"Œ":{"ha":758,"x_min":0,"x_max":0,"o":"m 16 448 b 327 0 16 138 139 0 l 701 0 b 736 35 723 0 736 13 l 736 130 b 701 165 736 153 723 165 l 553 165 b 545 173 548 165 545 168 l 545 378 b 553 385 545 383 549 385 l 645 385 b 681 420 668 385 681 398 l 681 510 b 645 545 681 533 668 545 l 553 545 b 545 553 548 545 545 549 l 545 730 b 553 737 545 735 549 737 l 701 737 b 736 773 723 737 736 750 l 736 861 b 701 896 736 884 723 896 l 327 896 b 16 448 139 896 16 760 z m 220 448 b 343 737 220 654 264 737 l 352 737 b 360 730 357 737 360 734 l 360 167 b 352 159 360 162 357 159 l 343 159 b 220 448 264 159 220 241 z "},"Ŧ":{"ha":758,"x_min":0,"x_max":0,"o":"m 591 490 l 497 490 b 490 497 492 490 490 492 l 490 712 b 497 720 490 717 492 720 l 655 720 b 691 755 678 720 691 732 l 691 861 b 655 896 691 884 678 896 l 104 896 b 68 861 81 896 68 884 l 68 755 b 104 720 68 732 81 720 l 261 720 b 269 712 266 720 269 717 l 269 497 b 261 490 269 492 266 490 l 167 490 b 131 455 144 490 131 477 l 131 348 b 167 313 131 326 144 313 l 261 313 b 269 306 266 313 269 311 l 269 35 b 304 0 269 13 282 0 l 455 0 b 490 35 477 0 490 13 l 490 306 b 497 313 490 311 492 313 l 591 313 b 626 348 614 313 626 326 l 626 455 b 591 490 626 477 614 490 z "},"a":{"ha":758,"x_min":0,"x_max":0,"o":"m 621 -19 b 744 8 674 -19 708 -11 b 758 52 759 16 764 32 l 734 131 b 689 148 727 154 712 157 b 669 144 682 145 676 144 b 652 197 658 144 652 165 l 652 467 b 366 726 652 633 554 726 b 76 590 245 726 139 682 b 87 542 63 571 69 554 l 197 467 b 245 480 217 453 232 460 b 366 557 280 534 321 557 b 437 479 408 557 437 528 l 437 438 b 429 429 437 434 434 431 b 47 184 250 403 47 362 b 284 -19 47 62 144 -19 b 462 58 348 -19 407 8 b 473 57 466 61 470 61 b 621 -19 506 13 559 -19 z m 266 192 b 427 306 266 261 342 289 b 437 299 433 307 437 304 l 437 205 b 433 196 437 201 436 198 b 313 130 398 159 351 130 b 266 192 283 130 266 159 z "},"à":{"ha":758,"x_min":0,"x_max":0,"o":"m 621 -19 b 744 8 674 -19 708 -11 b 758 52 759 16 764 32 l 734 131 b 689 148 727 154 712 157 b 669 144 682 145 676 144 b 652 197 658 144 652 165 l 652 467 b 366 726 652 633 554 726 b 76 590 245 726 139 682 b 87 542 63 571 69 554 l 197 467 b 245 480 217 453 232 460 b 366 557 280 534 321 557 b 437 479 408 557 437 528 l 437 438 b 429 429 437 434 434 431 b 47 184 250 403 47 362 b 284 -19 47 62 144 -19 b 462 58 348 -19 407 8 b 473 57 466 61 470 61 b 621 -19 506 13 559 -19 z m 115 1016 l 249 838 b 292 817 260 823 273 817 l 424 817 b 449 859 452 817 463 833 l 352 1034 b 311 1059 343 1051 330 1059 l 136 1059 b 115 1016 107 1059 97 1039 z m 266 192 b 427 306 266 261 342 289 b 437 299 433 307 437 304 l 437 205 b 433 196 437 201 436 198 b 313 130 398 159 351 130 b 266 192 283 130 266 159 z "},"á":{"ha":758,"x_min":0,"x_max":0,"o":"m 621 -19 b 744 8 674 -19 708 -11 b 758 52 759 16 764 32 l 734 131 b 689 148 727 154 712 157 b 669 144 682 145 676 144 b 652 197 658 144 652 165 l 652 467 b 366 726 652 633 554 726 b 76 590 245 726 139 682 b 87 542 63 571 69 554 l 197 467 b 245 480 217 453 232 460 b 366 557 280 534 321 557 b 437 479 408 557 437 528 l 437 438 b 429 429 437 434 434 431 b 47 184 250 403 47 362 b 284 -19 47 62 144 -19 b 462 58 348 -19 407 8 b 473 57 466 61 470 61 b 621 -19 506 13 559 -19 z m 312 817 l 444 817 b 487 838 463 817 476 823 l 621 1016 b 600 1059 639 1039 629 1059 l 426 1059 b 384 1034 407 1059 393 1051 l 287 859 b 312 817 273 833 284 817 z m 266 192 b 427 306 266 261 342 289 b 437 299 433 307 437 304 l 437 205 b 433 196 437 201 436 198 b 313 130 398 159 351 130 b 266 192 283 130 266 159 z "},"â":{"ha":758,"x_min":0,"x_max":0,"o":"m 621 -19 b 744 8 674 -19 708 -11 b 758 52 759 16 764 32 l 734 131 b 689 148 727 154 712 157 b 669 144 682 145 676 144 b 652 197 658 144 652 165 l 652 467 b 366 726 652 633 554 726 b 76 590 245 726 139 682 b 87 542 63 571 69 554 l 197 467 b 245 480 217 453 232 460 b 366 557 280 534 321 557 b 437 479 408 557 437 528 l 437 438 b 429 429 437 434 434 431 b 47 184 250 403 47 362 b 284 -19 47 62 144 -19 b 462 58 348 -19 407 8 b 473 57 466 61 470 61 b 621 -19 506 13 559 -19 z m 134 813 l 253 813 b 295 831 270 813 283 818 l 365 898 b 375 898 367 900 372 900 l 444 831 b 489 813 457 818 471 813 l 607 813 b 629 856 636 813 646 833 l 482 1043 b 439 1064 471 1057 457 1064 l 302 1064 b 259 1043 284 1064 270 1057 l 114 856 b 134 813 96 833 105 813 z m 266 192 b 427 306 266 261 342 289 b 437 299 433 307 437 304 l 437 205 b 433 196 437 201 436 198 b 313 130 398 159 351 130 b 266 192 283 130 266 159 z "},"ã":{"ha":758,"x_min":0,"x_max":0,"o":"m 621 -19 b 744 8 674 -19 708 -11 b 758 52 759 16 764 32 l 734 131 b 689 148 727 154 712 157 b 669 144 682 145 676 144 b 652 197 658 144 652 165 l 652 467 b 366 726 652 633 554 726 b 76 590 245 726 139 682 b 87 542 63 571 69 554 l 197 467 b 245 480 217 453 232 460 b 366 557 280 534 321 557 b 437 479 408 557 437 528 l 437 438 b 429 429 437 434 434 431 b 47 184 250 403 47 362 b 284 -19 47 62 144 -19 b 462 58 348 -19 407 8 b 473 57 466 61 470 61 b 621 -19 506 13 559 -19 z m 139 802 l 223 802 b 260 837 245 802 256 814 b 292 871 265 864 277 871 b 480 798 336 871 390 798 b 649 1004 554 798 635 846 b 615 1042 652 1028 638 1042 l 532 1042 b 495 1006 510 1042 499 1029 b 461 972 489 980 476 972 b 274 1045 423 972 360 1045 b 104 840 172 1045 115 991 b 139 802 102 816 116 802 z m 266 192 b 427 306 266 261 342 289 b 437 299 433 307 437 304 l 437 205 b 433 196 437 201 436 198 b 313 130 398 159 351 130 b 266 192 283 130 266 159 z "},"ä":{"ha":758,"x_min":0,"x_max":0,"o":"m 621 -19 b 744 8 674 -19 708 -11 b 758 52 759 16 764 32 l 734 131 b 689 148 727 154 712 157 b 669 144 682 145 676 144 b 652 197 658 144 652 165 l 652 467 b 366 726 652 633 554 726 b 76 590 245 726 139 682 b 87 542 63 571 69 554 l 197 467 b 245 480 217 453 232 460 b 366 557 280 534 321 557 b 437 479 408 557 437 528 l 437 438 b 429 429 437 434 434 431 b 47 184 250 403 47 362 b 284 -19 47 62 144 -19 b 462 58 348 -19 407 8 b 473 57 466 61 470 61 b 621 -19 506 13 559 -19 z m 72 933 b 211 794 72 859 134 794 b 348 933 285 794 348 859 b 211 1072 348 1009 285 1072 b 72 933 134 1072 72 1009 z m 266 192 b 427 306 266 261 342 289 b 437 299 433 307 437 304 l 437 205 b 433 196 437 201 436 198 b 313 130 398 159 351 130 b 266 192 283 130 266 159 z m 394 933 b 533 794 394 859 456 794 b 670 933 607 794 670 859 b 533 1072 670 1009 607 1072 b 394 933 456 1072 394 1009 z "},"å":{"ha":758,"x_min":0,"x_max":0,"o":"m 621 -19 b 744 8 674 -19 708 -11 b 758 52 759 16 764 32 l 734 131 b 689 148 727 154 712 157 b 669 144 682 145 676 144 b 652 197 658 144 652 165 l 652 467 b 366 726 652 633 554 726 b 76 590 245 726 139 682 b 87 542 63 571 69 554 l 197 467 b 245 480 217 453 232 460 b 366 557 280 534 321 557 b 437 479 408 557 437 528 l 437 438 b 429 429 437 434 434 431 b 47 184 250 403 47 362 b 284 -19 47 62 144 -19 b 462 58 348 -19 407 8 b 473 57 466 61 470 61 b 621 -19 506 13 559 -19 z m 193 953 b 371 789 193 864 274 789 b 549 953 468 789 549 864 b 371 1117 549 1043 468 1117 b 193 953 274 1117 193 1043 z m 266 192 b 427 306 266 261 342 289 b 437 299 433 307 437 304 l 437 205 b 433 196 437 201 436 198 b 313 130 398 159 351 130 b 266 192 283 130 266 159 z m 313 953 b 371 1014 313 986 340 1014 b 429 953 403 1014 429 986 b 371 893 429 920 403 893 b 313 953 340 893 313 920 z "},"ā":{"ha":758,"x_min":0,"x_max":0,"o":"m 621 -19 b 744 8 674 -19 708 -11 b 758 52 759 16 764 32 l 734 131 b 689 148 727 154 712 157 b 669 144 682 145 676 144 b 652 197 658 144 652 165 l 652 467 b 366 726 652 633 554 726 b 76 590 245 726 139 682 b 87 542 63 571 69 554 l 197 467 b 245 480 217 453 232 460 b 366 557 280 534 321 557 b 437 479 408 557 437 528 l 437 438 b 429 429 437 434 434 431 b 47 184 250 403 47 362 b 284 -19 47 62 144 -19 b 462 58 348 -19 407 8 b 473 57 466 61 470 61 b 621 -19 506 13 559 -19 z m 187 804 l 556 804 b 591 840 578 804 591 817 l 591 939 b 556 975 591 962 578 975 l 187 975 b 152 939 164 975 152 962 l 152 840 b 187 804 152 817 164 804 z m 266 192 b 427 306 266 261 342 289 b 437 299 433 307 437 304 l 437 205 b 433 196 437 201 436 198 b 313 130 398 159 351 130 b 266 192 283 130 266 159 z "},"ă":{"ha":758,"x_min":0,"x_max":0,"o":"m 621 -19 b 744 8 674 -19 708 -11 b 758 52 759 16 764 32 l 734 131 b 689 148 727 154 712 157 b 669 144 682 145 676 144 b 652 197 658 144 652 165 l 652 467 b 366 726 652 633 554 726 b 76 590 245 726 139 682 b 87 542 63 571 69 554 l 197 467 b 245 480 217 453 232 460 b 366 557 280 534 321 557 b 437 479 408 557 437 528 l 437 438 b 429 429 437 434 434 431 b 47 184 250 403 47 362 b 284 -19 47 62 144 -19 b 462 58 348 -19 407 8 b 473 57 466 61 470 61 b 621 -19 506 13 559 -19 z m 122 1011 b 371 793 148 865 244 793 b 620 1011 499 793 595 865 b 587 1049 625 1035 611 1049 l 490 1049 b 452 1016 468 1049 457 1038 b 371 963 441 980 417 963 b 290 1016 326 963 302 980 b 253 1049 285 1038 274 1049 l 155 1049 b 122 1011 131 1049 117 1035 z m 266 192 b 427 306 266 261 342 289 b 437 299 433 307 437 304 l 437 205 b 433 196 437 201 436 198 b 313 130 398 159 351 130 b 266 192 283 130 266 159 z "},"ą":{"ha":758,"x_min":0,"x_max":0,"o":"m 284 -19 b 461 57 348 -19 405 6 b 473 57 466 61 470 61 b 568 -11 496 25 529 1 b 571 -21 573 -13 574 -16 b 472 -203 514 -71 472 -136 b 630 -347 472 -304 544 -347 b 731 -331 668 -347 699 -342 b 756 -288 750 -323 758 -309 l 750 -217 b 710 -196 747 -191 734 -187 b 687 -199 702 -198 694 -199 b 654 -160 668 -199 654 -188 b 744 1 654 -121 674 -64 b 758 49 759 16 763 30 l 734 131 b 689 148 727 154 712 157 b 669 144 682 145 676 144 b 652 197 658 144 652 165 l 652 467 b 366 726 652 633 554 726 b 76 590 245 726 139 682 b 87 542 63 571 69 554 l 197 467 b 245 480 217 453 232 460 b 366 557 280 534 321 557 b 437 479 408 557 437 528 l 437 438 b 429 429 437 434 434 431 b 47 184 250 403 47 362 b 284 -19 47 62 144 -19 z m 266 192 b 427 306 266 261 342 289 b 437 299 433 307 437 304 l 437 205 b 433 196 437 201 436 198 b 313 130 398 159 351 130 b 266 192 283 130 266 159 z "},"ǻ":{"ha":758,"x_min":0,"x_max":0,"o":"m 365 1086 l 466 1086 b 509 1104 484 1086 496 1091 l 592 1186 b 574 1229 615 1207 606 1229 l 447 1229 b 404 1207 429 1229 415 1221 l 343 1129 b 365 1086 326 1105 336 1086 z m 47 184 b 284 -19 47 62 144 -19 b 462 58 348 -19 407 8 b 473 57 466 61 470 61 b 621 -19 506 13 559 -19 b 740 5 672 -19 706 -11 b 758 52 758 15 764 32 l 734 131 b 689 148 727 154 712 157 b 669 144 682 145 676 144 b 652 197 658 144 652 165 l 652 467 b 366 726 652 633 554 726 b 76 590 245 726 139 682 b 87 542 63 571 69 554 l 197 467 b 245 480 217 453 232 460 b 366 557 280 534 321 557 b 437 479 408 557 437 528 l 437 438 b 429 429 437 434 434 431 b 47 184 250 403 47 362 z m 235 902 b 396 761 235 824 308 761 b 558 902 485 761 558 824 b 396 1042 558 979 485 1042 b 235 902 308 1042 235 979 z m 266 192 b 427 306 266 261 342 289 b 437 299 433 307 437 304 l 437 205 b 433 196 437 201 436 198 b 313 130 398 159 351 130 b 266 192 283 130 266 159 z m 345 902 b 396 949 345 928 370 949 b 448 902 423 949 448 928 b 396 855 448 875 423 855 b 345 902 370 855 345 875 z "},"b":{"ha":758,"x_min":0,"x_max":0,"o":"m 434 -19 b 702 355 577 -19 702 95 b 434 726 702 612 568 726 b 304 673 379 726 337 710 b 295 676 301 668 295 669 l 295 912 b 260 947 295 934 283 947 l 116 947 b 81 912 93 947 81 934 l 81 35 b 116 0 81 13 93 0 l 197 0 b 237 28 217 0 230 10 l 256 72 b 266 73 259 77 263 78 b 434 -19 306 15 360 -19 z m 295 254 l 295 447 b 297 457 295 449 295 453 b 403 551 326 529 364 551 b 481 355 455 551 481 485 b 403 157 481 217 453 157 b 297 244 360 157 323 168 b 295 254 295 247 295 251 z "},"c":{"ha":758,"x_min":0,"x_max":0,"o":"m 403 -19 b 694 162 523 -19 628 38 b 679 215 707 187 702 206 l 545 264 b 499 242 525 271 509 264 b 403 158 471 183 442 158 b 302 355 341 158 302 244 b 403 549 302 465 341 549 b 495 449 444 549 472 509 b 539 427 503 427 518 419 l 676 471 b 697 516 697 479 706 495 b 403 726 648 634 554 726 b 81 355 207 726 81 569 b 403 -19 81 138 207 -19 z "},"ç":{"ha":758,"x_min":0,"x_max":0,"o":"m 380 -385 b 568 -225 477 -385 568 -345 b 423 -74 568 -131 515 -82 b 418 -64 417 -73 415 -69 l 441 -21 b 449 -15 442 -18 444 -16 b 697 168 552 -3 640 57 b 679 215 708 189 702 206 l 545 264 b 499 242 525 271 509 264 b 403 158 471 183 442 158 b 302 355 341 158 302 244 b 403 549 302 465 341 549 b 495 449 444 549 472 509 b 539 427 503 427 518 419 l 676 471 b 697 516 697 479 706 495 b 403 726 648 634 554 726 b 81 355 207 726 81 569 b 313 -6 81 173 169 33 b 318 -16 318 -8 321 -13 l 285 -77 b 277 -122 278 -92 275 -106 l 278 -140 b 318 -173 280 -163 294 -173 b 415 -217 391 -169 415 -188 b 372 -255 415 -240 402 -255 b 311 -241 355 -255 332 -249 b 265 -260 288 -232 273 -237 l 244 -322 b 264 -367 236 -343 242 -360 b 380 -385 295 -378 335 -385 z "},"ć":{"ha":758,"x_min":0,"x_max":0,"o":"m 403 -19 b 694 162 523 -19 628 38 b 679 215 707 187 702 206 l 545 264 b 499 242 525 271 509 264 b 403 158 471 183 442 158 b 302 355 341 158 302 244 b 403 549 302 465 341 549 b 495 449 444 549 472 509 b 539 427 503 427 518 419 l 676 471 b 697 516 697 479 706 495 b 403 726 648 634 554 726 b 81 355 207 726 81 569 b 403 -19 81 138 207 -19 z m 342 817 l 475 817 b 518 838 494 817 506 823 l 652 1016 b 630 1059 669 1039 659 1059 l 456 1059 b 414 1034 437 1059 423 1051 l 317 859 b 342 817 303 833 314 817 z "},"ĉ":{"ha":758,"x_min":0,"x_max":0,"o":"m 403 -19 b 694 162 523 -19 628 38 b 679 215 707 187 702 206 l 545 264 b 499 242 525 271 509 264 b 403 158 471 183 442 158 b 302 355 341 158 302 244 b 403 549 302 465 341 549 b 495 449 444 549 472 509 b 539 427 503 427 518 419 l 676 471 b 697 516 697 479 706 495 b 403 726 648 634 554 726 b 81 355 207 726 81 569 b 403 -19 81 138 207 -19 z m 164 813 l 283 813 b 326 831 301 813 313 818 l 395 898 b 405 898 398 900 403 900 l 475 831 b 519 813 487 818 501 813 l 638 813 b 659 856 667 813 677 833 l 513 1043 b 470 1064 501 1057 487 1064 l 332 1064 b 289 1043 314 1064 301 1057 l 144 856 b 164 813 126 833 135 813 z "},"ċ":{"ha":758,"x_min":0,"x_max":0,"o":"m 403 -19 b 694 162 523 -19 628 38 b 679 215 707 187 702 206 l 545 264 b 499 242 525 271 509 264 b 403 158 471 183 442 158 b 302 355 341 158 302 244 b 403 549 302 465 341 549 b 495 449 444 549 472 509 b 539 427 503 427 518 419 l 676 471 b 697 516 697 479 706 495 b 403 726 648 634 554 726 b 81 355 207 726 81 569 b 403 -19 81 138 207 -19 z m 264 933 b 403 794 264 859 326 794 b 540 933 477 794 540 859 b 403 1072 540 1009 477 1072 b 264 933 326 1072 264 1009 z "},"č":{"ha":758,"x_min":0,"x_max":0,"o":"m 403 -19 b 694 162 523 -19 628 38 b 679 215 707 187 702 206 l 545 264 b 499 242 525 271 509 264 b 403 158 471 183 442 158 b 302 355 341 158 302 244 b 403 549 302 465 341 549 b 495 449 444 549 472 509 b 539 427 503 427 518 419 l 676 471 b 697 516 697 479 706 495 b 403 726 648 634 554 726 b 81 355 207 726 81 569 b 403 -19 81 138 207 -19 z m 144 1013 l 290 826 b 333 804 302 812 316 804 l 471 804 b 514 826 489 804 503 812 l 659 1013 b 639 1056 677 1035 668 1056 l 520 1056 b 477 1038 503 1056 490 1051 l 408 971 b 398 971 405 968 400 968 l 328 1038 b 284 1056 316 1051 302 1056 l 164 1056 b 144 1013 135 1056 126 1035 z "},"d":{"ha":758,"x_min":0,"x_max":0,"o":"m 323 -19 b 491 73 398 -19 453 15 b 501 72 495 78 499 77 l 520 28 b 561 0 528 10 540 0 l 641 0 b 677 35 664 0 677 13 l 677 912 b 641 947 677 934 664 947 l 497 947 b 462 912 475 947 462 934 l 462 676 b 453 673 462 669 457 668 b 323 726 420 710 379 726 b 56 355 189 726 56 612 b 323 -19 56 95 181 -19 z m 277 355 b 355 551 277 485 303 551 b 461 457 394 551 432 529 b 462 447 462 453 462 449 l 462 254 b 461 244 462 251 462 247 b 355 157 434 168 398 157 b 277 355 304 157 277 217 z "},"ď":{"ha":758,"x_min":0,"x_max":0,"o":"m 259 -19 b 418 69 343 -19 388 14 b 427 67 419 74 424 72 l 443 28 b 484 0 451 10 463 0 l 529 0 b 564 35 552 0 564 13 l 564 912 b 529 947 564 934 552 947 l 420 947 b 385 912 398 947 385 934 l 385 697 b 376 693 385 691 381 689 b 271 726 352 716 319 726 b 27 355 138 726 27 612 b 259 -19 27 95 116 -19 z m 212 355 b 290 576 212 485 239 576 b 384 463 330 576 359 539 b 385 453 385 460 385 456 l 385 247 b 384 237 385 245 385 241 b 290 134 360 159 332 134 b 212 355 240 134 212 218 z m 662 684 l 747 684 b 784 717 769 684 782 694 l 808 909 b 775 947 811 932 799 947 l 662 947 b 626 912 639 947 626 934 l 626 720 b 662 684 626 697 639 684 z "},"e":{"ha":758,"x_min":0,"x_max":0,"o":"m 404 -19 b 689 83 511 -19 611 4 b 686 135 707 102 705 121 l 573 212 b 524 202 554 226 538 221 b 408 140 494 158 455 140 b 280 278 335 140 294 186 b 287 287 279 284 282 287 l 673 287 b 711 318 694 287 707 297 b 718 417 717 352 718 386 b 398 726 718 586 593 726 b 54 355 193 726 54 571 b 404 -19 54 110 189 -19 z m 279 431 b 398 568 288 511 317 568 b 509 431 460 568 501 513 l 509 431 b 501 423 509 426 506 423 l 285 423 b 279 431 280 423 278 426 z "},"è":{"ha":758,"x_min":0,"x_max":0,"o":"m 404 -19 b 689 83 511 -19 611 4 b 686 135 707 102 705 121 l 573 212 b 524 202 554 226 538 221 b 408 140 494 158 455 140 b 280 278 335 140 294 186 b 287 287 279 284 282 287 l 673 287 b 711 318 694 287 707 297 b 718 417 717 352 718 386 b 398 726 718 586 593 726 b 54 355 193 726 54 571 b 404 -19 54 110 189 -19 z m 138 1016 l 271 838 b 314 817 283 823 295 817 l 447 817 b 472 859 475 817 486 833 l 375 1034 b 333 1059 366 1051 352 1059 l 159 1059 b 138 1016 130 1059 120 1039 z m 279 431 b 398 568 288 511 317 568 b 509 431 460 568 501 513 l 509 431 b 501 423 509 426 506 423 l 285 423 b 279 431 280 423 278 426 z "},"é":{"ha":758,"x_min":0,"x_max":0,"o":"m 404 -19 b 689 83 511 -19 611 4 b 686 135 707 102 705 121 l 573 212 b 524 202 554 226 538 221 b 408 140 494 158 455 140 b 280 278 335 140 294 186 b 287 287 279 284 282 287 l 673 287 b 711 318 694 287 707 297 b 718 417 717 352 718 386 b 398 726 718 586 593 726 b 54 355 193 726 54 571 b 404 -19 54 110 189 -19 z m 279 431 b 398 568 288 511 317 568 b 509 431 460 568 501 513 l 509 431 b 501 423 509 426 506 423 l 285 423 b 279 431 280 423 278 426 z m 335 817 l 467 817 b 510 838 486 817 499 823 l 644 1016 b 622 1059 662 1039 652 1059 l 448 1059 b 407 1034 429 1059 415 1051 l 309 859 b 335 817 295 833 307 817 z "},"ê":{"ha":758,"x_min":0,"x_max":0,"o":"m 404 -19 b 689 83 511 -19 611 4 b 686 135 707 102 705 121 l 573 212 b 524 202 554 226 538 221 b 408 140 494 158 455 140 b 280 278 335 140 294 186 b 287 287 279 284 282 287 l 673 287 b 711 318 694 287 707 297 b 718 417 717 352 718 386 b 398 726 718 586 593 726 b 54 355 193 726 54 571 b 404 -19 54 110 189 -19 z m 157 813 l 275 813 b 318 831 293 813 306 818 l 388 898 b 398 898 390 900 395 900 l 467 831 b 511 813 480 818 494 813 l 630 813 b 652 856 659 813 669 833 l 505 1043 b 462 1064 494 1057 480 1064 l 324 1064 b 282 1043 307 1064 293 1057 l 136 856 b 157 813 119 833 128 813 z m 279 431 b 398 568 288 511 317 568 b 509 431 460 568 501 513 l 509 431 b 501 423 509 426 506 423 l 285 423 b 279 431 280 423 278 426 z "},"ë":{"ha":758,"x_min":0,"x_max":0,"o":"m 404 -19 b 689 83 511 -19 611 4 b 686 135 707 102 705 121 l 573 212 b 524 202 554 226 538 221 b 408 140 494 158 455 140 b 280 278 335 140 294 186 b 287 287 279 284 282 287 l 673 287 b 711 318 694 287 707 297 b 718 417 717 352 718 386 b 398 726 718 586 593 726 b 54 355 193 726 54 571 b 404 -19 54 110 189 -19 z m 95 933 b 234 794 95 859 157 794 b 371 933 308 794 371 859 b 234 1072 371 1009 308 1072 b 95 933 157 1072 95 1009 z m 279 431 b 398 568 288 511 317 568 b 509 431 460 568 501 513 l 509 431 b 501 423 509 426 506 423 l 285 423 b 279 431 280 423 278 426 z m 417 933 b 556 794 417 859 479 794 b 693 933 630 794 693 859 b 556 1072 693 1009 630 1072 b 417 933 479 1072 417 1009 z "},"ē":{"ha":758,"x_min":0,"x_max":0,"o":"m 404 -19 b 689 83 511 -19 611 4 b 686 135 707 102 705 121 l 573 212 b 524 202 554 226 538 221 b 408 140 494 158 455 140 b 280 278 335 140 294 186 b 287 287 279 284 282 287 l 673 287 b 711 318 694 287 707 297 b 718 417 717 352 718 386 b 398 726 718 586 593 726 b 54 355 193 726 54 571 b 404 -19 54 110 189 -19 z m 210 804 l 578 804 b 614 840 601 804 614 817 l 614 939 b 578 975 614 962 601 975 l 210 975 b 174 939 187 975 174 962 l 174 840 b 210 804 174 817 187 804 z m 279 431 b 398 568 288 511 317 568 b 509 431 460 568 501 513 l 509 431 b 501 423 509 426 506 423 l 285 423 b 279 431 280 423 278 426 z "},"ĕ":{"ha":758,"x_min":0,"x_max":0,"o":"m 404 -19 b 689 83 511 -19 611 4 b 686 135 707 102 705 121 l 573 212 b 524 202 554 226 538 221 b 408 140 494 158 455 140 b 280 278 335 140 294 186 b 287 287 279 284 282 287 l 673 287 b 711 318 694 287 707 297 b 718 417 717 352 718 386 b 398 726 718 586 593 726 b 54 355 193 726 54 571 b 404 -19 54 110 189 -19 z m 145 1011 b 394 793 170 865 266 793 b 643 1011 521 793 617 865 b 610 1049 648 1035 634 1049 l 513 1049 b 475 1016 491 1049 480 1038 b 394 963 463 980 439 963 b 313 1016 348 963 324 980 b 275 1049 308 1038 297 1049 l 178 1049 b 145 1011 154 1049 140 1035 z m 279 431 b 398 568 288 511 317 568 b 509 431 460 568 501 513 l 509 431 b 501 423 509 426 506 423 l 285 423 b 279 431 280 423 278 426 z "},"ė":{"ha":758,"x_min":0,"x_max":0,"o":"m 404 -19 b 689 83 511 -19 611 4 b 686 135 707 102 705 121 l 573 212 b 524 202 554 226 538 221 b 408 140 494 158 455 140 b 280 278 335 140 294 186 b 287 287 279 284 282 287 l 673 287 b 711 318 694 287 707 297 b 718 417 717 352 718 386 b 398 726 718 586 593 726 b 54 355 193 726 54 571 b 404 -19 54 110 189 -19 z m 256 933 b 395 794 256 859 318 794 b 533 933 470 794 533 859 b 395 1072 533 1009 470 1072 b 256 933 318 1072 256 1009 z m 279 431 b 398 568 288 511 317 568 b 509 431 460 568 501 513 l 509 431 b 501 423 509 426 506 423 l 285 423 b 279 431 280 423 278 426 z "},"ę":{"ha":758,"x_min":0,"x_max":0,"o":"m 404 -19 b 438 -19 415 -19 427 -19 b 444 -27 446 -18 448 -21 b 389 -194 410 -78 389 -136 b 549 -347 389 -299 453 -347 b 652 -330 588 -347 620 -342 b 677 -288 670 -323 678 -309 l 670 -217 b 630 -196 668 -191 654 -187 b 607 -199 622 -198 615 -199 b 571 -157 586 -199 571 -188 b 686 80 571 -105 592 -32 b 701 96 691 85 696 90 b 686 135 711 107 705 121 l 573 212 b 524 202 554 226 538 221 b 408 140 494 158 455 140 b 280 278 335 140 294 186 b 287 287 279 284 282 287 l 673 287 b 711 318 694 287 707 297 b 718 417 717 352 718 386 b 398 726 718 586 593 726 b 54 355 193 726 54 571 b 404 -19 54 110 189 -19 z m 279 431 b 398 568 288 511 317 568 b 509 431 460 568 501 513 l 509 431 b 501 423 509 426 506 423 l 285 423 b 279 431 280 423 278 426 z "},"ě":{"ha":758,"x_min":0,"x_max":0,"o":"m 404 -19 b 689 83 511 -19 611 4 b 686 135 707 102 705 121 l 573 212 b 524 202 554 226 538 221 b 408 140 494 158 455 140 b 280 278 335 140 294 186 b 287 287 279 284 282 287 l 673 287 b 711 318 694 287 707 297 b 718 417 717 352 718 386 b 398 726 718 586 593 726 b 54 355 193 726 54 571 b 404 -19 54 110 189 -19 z m 136 1013 l 283 826 b 326 804 294 812 308 804 l 463 804 b 506 826 481 804 495 812 l 652 1013 b 631 1056 669 1035 660 1056 l 513 1056 b 470 1038 495 1056 482 1051 l 400 971 b 390 971 398 968 393 968 l 321 1038 b 277 1056 308 1051 294 1056 l 157 1056 b 136 1013 128 1056 119 1035 z m 279 431 b 398 568 288 511 317 568 b 509 431 460 568 501 513 l 509 431 b 501 423 509 426 506 423 l 285 423 b 279 431 280 423 278 426 z "},"f":{"ha":758,"x_min":0,"x_max":0,"o":"m 226 730 l 226 715 b 218 707 226 710 222 707 l 122 707 b 87 672 100 707 87 694 l 87 572 b 122 537 87 549 100 537 l 218 537 b 226 529 223 537 226 533 l 226 35 b 261 0 226 13 239 0 l 405 0 b 441 35 428 0 441 13 l 441 529 b 448 537 441 534 443 537 l 655 537 b 691 572 678 537 691 549 l 691 672 b 655 707 691 694 678 707 l 448 707 b 441 715 443 707 441 710 l 441 730 b 503 808 441 777 465 808 b 625 785 543 808 582 799 b 670 807 648 778 664 784 l 702 910 b 678 955 708 933 701 948 b 492 985 619 973 561 985 b 226 730 314 985 226 886 z "},"g":{"ha":758,"x_min":0,"x_max":0,"o":"m 370 -278 b 720 -39 573 -278 720 -194 b 465 169 720 88 601 153 l 340 184 b 263 230 282 192 263 203 b 278 263 263 241 268 253 b 287 265 280 265 283 266 b 379 258 316 261 346 258 b 688 491 568 258 688 347 b 652 611 688 537 674 577 b 654 621 648 615 650 619 l 760 681 b 769 730 783 693 785 711 l 678 835 b 628 836 663 852 643 854 l 515 712 b 505 708 513 708 510 707 b 379 726 467 720 426 726 b 71 491 194 726 71 631 b 158 318 71 419 102 360 b 158 308 163 316 163 311 b 80 192 110 277 80 237 b 139 77 80 144 96 110 b 139 67 144 74 143 71 b 39 -81 78 29 39 -21 b 370 -278 39 -196 149 -278 z m 236 -52 b 282 27 236 -33 251 -3 b 295 33 288 32 292 34 b 420 18 332 28 375 23 b 524 -40 504 9 524 -21 b 372 -131 524 -93 471 -131 b 236 -52 273 -131 236 -96 z m 277 491 b 379 577 277 538 317 577 b 482 491 442 577 482 538 b 379 403 482 443 442 403 b 277 491 317 403 277 443 z "},"ĝ":{"ha":758,"x_min":0,"x_max":0,"o":"m 372 -313 b 720 -66 572 -313 720 -227 b 465 152 720 67 601 135 l 340 167 b 263 212 282 174 263 186 b 282 249 263 225 269 237 b 290 251 284 251 287 253 b 366 245 314 247 340 245 b 663 485 545 245 663 350 b 646 567 663 514 658 542 b 652 577 645 572 648 576 l 745 607 b 763 654 768 615 774 633 l 705 763 b 655 773 693 784 674 788 l 545 687 b 535 687 543 684 539 684 b 366 726 489 712 432 726 b 71 485 191 726 71 619 b 163 306 71 413 105 350 b 163 295 168 303 167 298 b 80 178 112 264 80 226 b 140 59 80 130 96 92 b 140 49 145 57 145 52 b 39 -102 80 9 39 -44 b 372 -313 39 -227 153 -313 z m 138 813 l 256 813 b 299 831 274 813 287 818 l 369 898 b 379 898 371 900 376 900 l 448 831 b 492 813 461 818 475 813 l 611 813 b 633 856 640 813 650 833 l 486 1043 b 443 1064 475 1057 461 1064 l 306 1064 b 263 1043 288 1064 274 1057 l 117 856 b 138 813 100 833 109 813 z m 236 -78 b 283 6 236 -57 251 -24 b 295 14 288 11 292 14 l 420 0 b 524 -67 504 -9 524 -45 b 372 -167 524 -125 471 -167 b 236 -78 273 -167 236 -128 z m 277 485 b 366 577 277 535 312 577 b 457 485 422 577 457 535 b 366 390 457 433 422 390 b 277 485 312 390 277 433 z "},"ğ":{"ha":758,"x_min":0,"x_max":0,"o":"m 372 -313 b 720 -66 572 -313 720 -227 b 465 152 720 67 601 135 l 340 167 b 263 212 282 174 263 186 b 282 249 263 225 269 237 b 290 251 284 251 287 253 b 366 245 314 247 340 245 b 663 485 545 245 663 350 b 646 567 663 514 658 542 b 652 577 645 572 648 576 l 745 607 b 763 654 768 615 774 633 l 705 763 b 655 773 693 784 674 788 l 545 687 b 535 687 543 684 539 684 b 366 726 489 712 432 726 b 71 485 191 726 71 619 b 163 306 71 413 105 350 b 163 295 168 303 167 298 b 80 178 112 264 80 226 b 140 59 80 130 96 92 b 140 49 145 57 145 52 b 39 -102 80 9 39 -44 b 372 -313 39 -227 153 -313 z m 139 1011 b 388 793 164 865 260 793 b 636 1011 515 793 611 865 b 604 1049 641 1035 628 1049 l 506 1049 b 468 1016 485 1049 473 1038 b 388 963 457 980 433 963 b 307 1016 342 963 318 980 b 269 1049 302 1038 290 1049 l 172 1049 b 139 1011 148 1049 134 1035 z m 236 -78 b 283 6 236 -57 251 -24 b 295 14 288 11 292 14 l 420 0 b 524 -67 504 -9 524 -45 b 372 -167 524 -125 471 -167 b 236 -78 273 -167 236 -128 z m 277 485 b 366 577 277 535 312 577 b 457 485 422 577 457 535 b 366 390 457 433 422 390 b 277 485 312 390 277 433 z "},"ġ":{"ha":758,"x_min":0,"x_max":0,"o":"m 370 -278 b 720 -39 573 -278 720 -194 b 465 169 720 88 601 153 l 340 184 b 263 230 282 192 263 203 b 278 263 263 241 268 253 b 287 265 280 265 283 266 b 379 258 316 261 346 258 b 688 491 568 258 688 347 b 652 611 688 537 674 577 b 654 621 648 615 650 619 l 760 681 b 769 730 783 693 785 711 l 678 835 b 628 836 663 852 643 854 l 515 712 b 505 708 513 708 510 707 b 379 726 467 720 426 726 b 71 491 194 726 71 631 b 158 318 71 419 102 360 b 158 308 163 316 163 311 b 80 192 110 277 80 237 b 139 77 80 144 96 110 b 139 67 144 74 143 71 b 39 -81 78 29 39 -21 b 370 -278 39 -196 149 -278 z m 236 -52 b 282 27 236 -33 251 -3 b 295 33 288 32 292 34 b 420 18 332 28 375 23 b 524 -40 504 9 524 -21 b 372 -131 524 -93 471 -131 b 236 -52 273 -131 236 -96 z m 264 933 b 403 794 264 859 326 794 b 540 933 477 794 540 859 b 403 1072 540 1009 477 1072 b 264 933 326 1072 264 1009 z m 277 491 b 379 577 277 538 317 577 b 482 491 442 577 482 538 b 379 403 482 443 442 403 b 277 491 317 403 277 443 z "},"ģ":{"ha":758,"x_min":0,"x_max":0,"o":"m 370 -278 b 720 -39 573 -278 720 -194 b 465 169 720 88 601 153 l 340 184 b 263 230 282 192 263 203 b 278 263 263 241 268 253 b 287 265 280 265 283 266 b 379 258 316 261 346 258 b 688 491 568 258 688 347 b 652 611 688 537 674 577 b 654 621 648 615 650 619 l 760 681 b 769 730 783 693 785 711 l 678 835 b 628 836 663 852 643 854 l 515 712 b 505 708 513 708 510 707 b 379 726 467 720 426 726 b 71 491 194 726 71 631 b 158 318 71 419 102 360 b 158 308 163 316 163 311 b 80 192 110 277 80 237 b 139 77 80 144 96 110 b 139 67 144 74 143 71 b 39 -81 78 29 39 -21 b 370 -278 39 -196 149 -278 z m 236 -52 b 282 27 236 -33 251 -3 b 295 33 288 32 292 34 b 420 18 332 28 375 23 b 524 -40 504 9 524 -21 b 372 -131 524 -93 471 -131 b 236 -52 273 -131 236 -96 z m 269 924 b 390 787 269 837 326 787 b 511 905 457 787 511 835 b 442 1008 511 947 487 997 b 437 1016 437 1009 434 1011 b 513 1128 456 1054 481 1091 b 510 1178 528 1145 527 1163 l 470 1213 b 419 1210 453 1229 434 1227 b 269 924 309 1092 269 1020 z m 277 491 b 379 577 277 538 317 577 b 482 491 442 577 482 538 b 379 403 482 443 442 403 b 277 491 317 403 277 443 z "},"h":{"ha":758,"x_min":0,"x_max":0,"o":"m 463 442 l 463 35 b 499 0 463 13 476 0 l 643 0 b 678 35 665 0 678 13 l 678 475 b 456 726 678 659 586 726 b 314 653 399 726 351 701 b 306 655 311 648 306 649 l 306 912 b 270 947 306 934 293 947 l 126 947 b 91 912 104 947 91 934 l 91 35 b 126 0 91 13 104 0 l 270 0 b 306 35 293 0 306 13 l 306 410 b 307 420 306 413 306 417 b 414 547 331 499 375 547 b 463 442 443 547 463 514 z "},"ĥ":{"ha":758,"x_min":0,"x_max":0,"o":"m 463 442 l 463 35 b 499 0 463 13 476 0 l 643 0 b 678 35 665 0 678 13 l 678 475 b 456 726 678 659 586 726 b 314 653 399 726 351 701 b 306 655 311 648 306 649 l 306 912 b 270 947 306 934 293 947 l 126 947 b 91 912 104 947 91 934 l 91 35 b 126 0 91 13 104 0 l 270 0 b 306 35 293 0 306 13 l 306 410 b 307 420 306 413 306 417 b 414 547 331 499 375 547 b 463 442 443 547 463 514 z m -33 1014 l 86 1014 b 129 1032 104 1014 116 1019 l 198 1098 b 208 1098 201 1101 206 1101 l 278 1032 b 322 1014 290 1019 304 1014 l 441 1014 b 462 1057 470 1014 480 1034 l 316 1244 b 273 1265 304 1258 290 1265 l 135 1265 b 92 1244 117 1265 104 1258 l -53 1057 b -33 1014 -71 1034 -62 1014 z "},"i":{"ha":758,"x_min":0,"x_max":0,"o":"m 149 0 l 648 0 b 683 35 670 0 683 13 l 683 135 b 648 170 683 158 670 170 l 516 170 b 509 178 511 170 509 174 l 509 672 b 473 707 509 694 496 707 l 168 707 b 133 672 145 707 133 694 l 133 572 b 168 537 133 549 145 537 l 287 537 b 294 529 292 537 294 533 l 294 178 b 287 170 294 173 290 170 l 149 170 b 114 135 126 170 114 158 l 114 35 b 149 0 114 13 126 0 z m 261 933 b 400 794 261 859 323 794 b 538 933 475 794 538 859 b 400 1072 538 1009 475 1072 b 261 933 323 1072 261 1009 z "},"ì":{"ha":758,"x_min":0,"x_max":0,"o":"m 149 0 l 648 0 b 683 35 670 0 683 13 l 683 135 b 648 170 683 158 670 170 l 516 170 b 509 178 511 170 509 174 l 509 672 b 473 707 509 694 496 707 l 168 707 b 133 672 145 707 133 694 l 133 572 b 168 537 133 549 145 537 l 287 537 b 294 529 292 537 294 533 l 294 178 b 287 170 294 173 290 170 l 149 170 b 114 135 126 170 114 158 l 114 35 b 149 0 114 13 126 0 z m 143 1016 l 277 838 b 319 817 288 823 301 817 l 452 817 b 477 859 480 817 491 833 l 380 1034 b 338 1059 371 1051 357 1059 l 164 1059 b 143 1016 135 1059 125 1039 z "},"í":{"ha":758,"x_min":0,"x_max":0,"o":"m 149 0 l 648 0 b 683 35 670 0 683 13 l 683 135 b 648 170 683 158 670 170 l 516 170 b 509 178 511 170 509 174 l 509 672 b 473 707 509 694 496 707 l 168 707 b 133 672 145 707 133 694 l 133 572 b 168 537 133 549 145 537 l 287 537 b 294 529 292 537 294 533 l 294 178 b 287 170 294 173 290 170 l 149 170 b 114 135 126 170 114 158 l 114 35 b 149 0 114 13 126 0 z m 340 817 l 472 817 b 515 838 491 817 504 823 l 649 1016 b 628 1059 667 1039 657 1059 l 453 1059 b 412 1034 434 1059 420 1051 l 314 859 b 340 817 301 833 312 817 z "},"î":{"ha":758,"x_min":0,"x_max":0,"o":"m 149 0 l 648 0 b 683 35 670 0 683 13 l 683 135 b 648 170 683 158 670 170 l 516 170 b 509 178 511 170 509 174 l 509 672 b 473 707 509 694 496 707 l 168 707 b 133 672 145 707 133 694 l 133 572 b 168 537 133 549 145 537 l 287 537 b 294 529 292 537 294 533 l 294 178 b 287 170 294 173 290 170 l 149 170 b 114 135 126 170 114 158 l 114 35 b 149 0 114 13 126 0 z m 162 813 l 280 813 b 323 831 298 813 311 818 l 393 898 b 403 898 395 900 400 900 l 472 831 b 516 813 485 818 499 813 l 635 813 b 657 856 664 813 674 833 l 510 1043 b 467 1064 499 1057 485 1064 l 330 1064 b 287 1043 312 1064 298 1057 l 141 856 b 162 813 124 833 133 813 z "},"ï":{"ha":758,"x_min":0,"x_max":0,"o":"m 149 0 l 648 0 b 683 35 670 0 683 13 l 683 135 b 648 170 683 158 670 170 l 516 170 b 509 178 511 170 509 174 l 509 672 b 473 707 509 694 496 707 l 168 707 b 133 672 145 707 133 694 l 133 572 b 168 537 133 549 145 537 l 287 537 b 294 529 292 537 294 533 l 294 178 b 287 170 294 173 290 170 l 149 170 b 114 135 126 170 114 158 l 114 35 b 149 0 114 13 126 0 z m 100 933 b 239 794 100 859 162 794 b 376 933 313 794 376 859 b 239 1072 376 1009 313 1072 b 100 933 162 1072 100 1009 z m 422 933 b 561 794 422 859 484 794 b 698 933 635 794 698 859 b 561 1072 698 1009 635 1072 b 422 933 484 1072 422 1009 z "},"ĩ":{"ha":758,"x_min":0,"x_max":0,"o":"m 149 0 l 648 0 b 683 35 670 0 683 13 l 683 135 b 648 170 683 158 670 170 l 516 170 b 509 178 511 170 509 174 l 509 672 b 473 707 509 694 496 707 l 168 707 b 133 672 145 707 133 694 l 133 572 b 168 537 133 549 145 537 l 287 537 b 294 529 292 537 294 533 l 294 178 b 287 170 294 173 290 170 l 149 170 b 114 135 126 170 114 158 l 114 35 b 149 0 114 13 126 0 z m 167 802 l 251 802 b 288 837 273 802 284 814 b 319 871 293 864 304 871 b 508 798 364 871 418 798 b 677 1004 582 798 663 846 b 643 1042 679 1028 665 1042 l 559 1042 b 523 1006 538 1042 527 1029 b 489 972 516 980 504 972 b 302 1045 451 972 388 1045 b 131 840 199 1045 143 991 b 167 802 130 816 144 802 z "},"ī":{"ha":758,"x_min":0,"x_max":0,"o":"m 149 0 l 648 0 b 683 35 670 0 683 13 l 683 135 b 648 170 683 158 670 170 l 516 170 b 509 178 511 170 509 174 l 509 672 b 473 707 509 694 496 707 l 168 707 b 133 672 145 707 133 694 l 133 572 b 168 537 133 549 145 537 l 287 537 b 294 529 292 537 294 533 l 294 178 b 287 170 294 173 290 170 l 149 170 b 114 135 126 170 114 158 l 114 35 b 149 0 114 13 126 0 z m 215 804 l 583 804 b 619 840 606 804 619 817 l 619 939 b 583 975 619 962 606 975 l 215 975 b 179 939 192 975 179 962 l 179 840 b 215 804 179 817 192 804 z "},"ĭ":{"ha":758,"x_min":0,"x_max":0,"o":"m 149 0 l 648 0 b 683 35 670 0 683 13 l 683 135 b 648 170 683 158 670 170 l 516 170 b 509 178 511 170 509 174 l 509 672 b 473 707 509 694 496 707 l 168 707 b 133 672 145 707 133 694 l 133 572 b 168 537 133 549 145 537 l 287 537 b 294 529 292 537 294 533 l 294 178 b 287 170 294 173 290 170 l 149 170 b 114 135 126 170 114 158 l 114 35 b 149 0 114 13 126 0 z m 150 1011 b 399 793 176 865 271 793 b 648 1011 527 793 622 865 b 615 1049 653 1035 639 1049 l 518 1049 b 480 1016 496 1049 485 1038 b 399 963 468 980 444 963 b 318 1016 354 963 330 980 b 280 1049 313 1038 302 1049 l 183 1049 b 150 1011 159 1049 145 1035 z "},"į":{"ha":758,"x_min":0,"x_max":0,"o":"m 149 0 l 314 0 b 318 -9 321 0 323 -4 b 229 -203 265 -62 229 -131 b 386 -347 229 -304 301 -347 b 487 -331 424 -347 456 -342 b 513 -288 506 -323 514 -309 l 506 -217 b 466 -196 504 -191 490 -187 b 443 -199 458 -198 451 -199 b 410 -160 424 -199 410 -188 b 475 -5 410 -122 424 -68 b 485 0 477 -1 481 0 l 648 0 b 683 35 670 0 683 13 l 683 135 b 648 170 683 158 670 170 l 516 170 b 509 178 511 170 509 174 l 509 672 b 473 707 509 694 496 707 l 168 707 b 133 672 145 707 133 694 l 133 572 b 168 537 133 549 145 537 l 287 537 b 294 529 292 537 294 533 l 294 178 b 287 170 294 173 290 170 l 149 170 b 114 135 126 170 114 158 l 114 35 b 149 0 114 13 126 0 z "},"j":{"ha":758,"x_min":0,"x_max":0,"o":"m 293 -259 b 609 16 481 -259 609 -164 l 609 672 b 573 707 609 694 596 707 l 187 707 b 152 672 164 707 152 694 l 152 572 b 187 537 152 549 164 537 l 386 537 b 394 529 391 537 394 534 l 394 47 b 284 -82 394 -43 355 -82 b 159 -58 241 -82 197 -73 b 114 -78 136 -49 120 -56 l 83 -179 b 104 -225 77 -199 83 -216 b 293 -259 155 -246 218 -259 z m 359 933 b 497 794 359 859 420 794 b 635 933 572 794 635 859 b 497 1072 635 1009 572 1072 b 359 933 420 1072 359 1009 z "},"ĵ":{"ha":758,"x_min":0,"x_max":0,"o":"m 293 -259 b 609 16 481 -259 609 -164 l 609 672 b 573 707 609 694 596 707 l 187 707 b 152 672 164 707 152 694 l 152 572 b 187 537 152 549 164 537 l 386 537 b 394 529 391 537 394 534 l 394 47 b 284 -82 394 -43 355 -82 b 159 -58 241 -82 197 -73 b 114 -78 136 -49 120 -56 l 83 -179 b 104 -225 77 -199 83 -216 b 293 -259 155 -246 218 -259 z m 259 813 l 378 813 b 420 831 395 813 408 818 l 490 898 b 500 898 492 900 497 900 l 569 831 b 614 813 582 818 596 813 l 732 813 b 754 856 761 813 771 833 l 607 1043 b 564 1064 596 1057 582 1064 l 427 1064 b 384 1043 409 1064 395 1057 l 239 856 b 259 813 221 833 230 813 z "},"k":{"ha":758,"x_min":0,"x_max":0,"o":"m 126 0 l 270 0 b 306 35 293 0 306 13 l 306 212 b 309 221 306 216 307 217 l 355 274 b 366 273 359 279 364 278 l 499 25 b 542 0 508 8 523 0 l 699 0 b 725 42 727 0 737 18 l 506 441 b 508 451 505 444 505 447 l 694 664 b 674 707 715 688 705 707 l 528 707 b 485 687 510 707 496 701 l 314 485 b 306 487 311 480 306 481 l 306 912 b 270 947 306 934 293 947 l 126 947 b 91 912 104 947 91 934 l 91 35 b 126 0 91 13 104 0 z "},"ķ":{"ha":758,"x_min":0,"x_max":0,"o":"m 126 0 l 270 0 b 306 35 293 0 306 13 l 306 212 b 309 221 306 216 307 217 l 355 274 b 366 273 359 279 364 278 l 499 25 b 542 0 508 8 523 0 l 699 0 b 725 42 727 0 737 18 l 506 441 b 508 451 505 444 505 447 l 694 664 b 674 707 715 688 705 707 l 528 707 b 485 687 510 707 496 701 l 314 485 b 306 487 311 480 306 481 l 306 912 b 270 947 306 934 293 947 l 126 947 b 91 912 104 947 91 934 l 91 35 b 126 0 91 13 104 0 z m 264 -463 l 304 -499 b 355 -495 321 -514 340 -513 b 505 -210 465 -378 505 -306 b 384 -72 505 -122 448 -72 b 263 -191 317 -72 263 -120 b 332 -293 263 -232 287 -283 b 337 -302 337 -294 340 -297 b 261 -413 318 -340 293 -376 b 264 -463 246 -431 247 -448 z "},"l":{"ha":758,"x_min":0,"x_max":0,"o":"m 117 0 l 639 0 b 674 35 662 0 674 13 l 674 135 b 639 170 674 158 662 170 l 490 170 b 482 178 485 170 482 173 l 482 912 b 447 947 482 934 470 947 l 138 947 b 102 912 115 947 102 934 l 102 812 b 138 777 102 789 115 777 l 260 777 b 268 769 265 777 268 774 l 268 178 b 260 170 268 173 265 170 l 117 170 b 82 135 95 170 82 158 l 82 35 b 117 0 82 13 95 0 z "},"ĺ":{"ha":758,"x_min":0,"x_max":0,"o":"m 117 0 l 639 0 b 674 35 662 0 674 13 l 674 135 b 639 170 674 158 662 170 l 490 170 b 482 178 485 170 482 173 l 482 912 b 447 947 482 934 470 947 l 138 947 b 102 912 115 947 102 934 l 102 812 b 138 777 102 789 115 777 l 260 777 b 268 769 265 777 268 774 l 268 178 b 260 170 268 173 265 170 l 117 170 b 82 135 95 170 82 158 l 82 35 b 117 0 82 13 95 0 z m 316 1014 l 468 1014 b 513 1032 486 1014 500 1019 l 673 1182 b 655 1225 697 1205 687 1225 l 456 1225 b 413 1205 438 1225 424 1220 l 294 1057 b 316 1014 275 1034 287 1014 z "},"ļ":{"ha":758,"x_min":0,"x_max":0,"o":"m 117 0 l 639 0 b 674 35 662 0 674 13 l 674 135 b 639 170 674 158 662 170 l 490 170 b 482 178 485 170 482 173 l 482 912 b 447 947 482 934 470 947 l 138 947 b 102 912 115 947 102 934 l 102 812 b 138 777 102 789 115 777 l 260 777 b 268 769 265 777 268 774 l 268 178 b 260 170 268 173 265 170 l 117 170 b 82 135 95 170 82 158 l 82 35 b 117 0 82 13 95 0 z m 249 -463 l 289 -499 b 340 -495 306 -514 324 -513 b 490 -210 449 -378 490 -306 b 369 -72 490 -122 433 -72 b 247 -191 302 -72 247 -120 b 317 -293 247 -232 271 -283 b 322 -302 322 -294 324 -297 b 246 -413 303 -340 278 -376 b 249 -463 231 -431 232 -448 z "},"ľ":{"ha":758,"x_min":0,"x_max":0,"o":"m 117 0 l 639 0 b 674 35 662 0 674 13 l 674 135 b 639 170 674 158 662 170 l 490 170 b 482 178 485 170 482 173 l 482 912 b 447 947 482 934 470 947 l 138 947 b 102 912 115 947 102 934 l 102 812 b 138 777 102 789 115 777 l 260 777 b 268 769 265 777 268 774 l 268 178 b 260 170 268 173 265 170 l 117 170 b 82 135 95 170 82 158 l 82 35 b 117 0 82 13 95 0 z m 604 684 l 720 684 b 756 717 741 684 754 694 l 780 909 b 747 947 783 932 771 947 l 604 947 b 568 912 581 947 568 934 l 568 720 b 604 684 568 697 581 684 z "},"m":{"ha":758,"x_min":0,"x_max":0,"o":"m 553 436 l 553 35 b 588 0 553 13 566 0 l 688 0 b 723 35 711 0 723 13 l 723 487 b 563 726 723 629 682 726 b 446 650 521 726 477 705 b 436 650 443 644 439 644 b 307 725 412 697 370 725 b 186 639 263 725 217 699 b 176 640 182 633 178 634 l 160 679 b 120 707 154 698 140 707 l 76 707 b 40 672 53 707 40 694 l 40 35 b 76 0 40 13 53 0 l 176 0 b 211 35 198 0 211 13 l 211 441 b 212 451 211 443 211 447 b 273 562 231 520 255 562 b 297 434 290 562 297 539 l 297 34 b 332 -1 297 11 309 -1 l 432 -1 b 467 34 455 -1 467 11 l 467 442 b 468 452 467 444 467 448 b 529 563 487 521 511 563 b 553 436 547 563 553 540 z "},"n":{"ha":758,"x_min":0,"x_max":0,"o":"m 463 442 l 463 35 b 499 0 463 13 476 0 l 643 0 b 678 35 665 0 678 13 l 678 475 b 479 726 678 659 586 726 b 290 612 391 726 328 684 b 280 612 288 606 283 606 l 255 679 b 213 707 247 698 234 707 l 126 707 b 91 672 104 707 91 694 l 91 35 b 126 0 91 13 104 0 l 270 0 b 306 35 293 0 306 13 l 306 410 b 307 420 306 413 306 417 b 414 547 331 499 375 547 b 463 442 443 547 463 514 z "},"ñ":{"ha":758,"x_min":0,"x_max":0,"o":"m 463 442 l 463 35 b 499 0 463 13 476 0 l 643 0 b 678 35 665 0 678 13 l 678 475 b 479 726 678 659 586 726 b 290 612 391 726 328 684 b 280 612 288 606 283 606 l 255 679 b 213 707 247 698 234 707 l 126 707 b 91 672 104 707 91 694 l 91 35 b 126 0 91 13 104 0 l 270 0 b 306 35 293 0 306 13 l 306 410 b 307 420 306 413 306 417 b 414 547 331 499 375 547 b 463 442 443 547 463 514 z m 154 802 l 239 802 b 275 837 260 802 271 814 b 307 871 280 864 292 871 b 495 798 351 871 405 798 b 664 1004 569 798 650 846 b 630 1042 667 1028 653 1042 l 547 1042 b 510 1006 525 1042 514 1029 b 476 972 504 980 491 972 b 289 1045 438 972 375 1045 b 119 840 187 1045 130 991 b 154 802 117 816 131 802 z "},"ń":{"ha":758,"x_min":0,"x_max":0,"o":"m 463 442 l 463 35 b 499 0 463 13 476 0 l 643 0 b 678 35 665 0 678 13 l 678 475 b 479 726 678 659 586 726 b 290 612 391 726 328 684 b 280 612 288 606 283 606 l 255 679 b 213 707 247 698 234 707 l 126 707 b 91 672 104 707 91 694 l 91 35 b 126 0 91 13 104 0 l 270 0 b 306 35 293 0 306 13 l 306 410 b 307 420 306 413 306 417 b 414 547 331 499 375 547 b 463 442 443 547 463 514 z m 327 817 l 460 817 b 503 838 479 817 491 823 l 636 1016 b 615 1059 654 1039 644 1059 l 441 1059 b 399 1034 422 1059 408 1051 l 302 859 b 327 817 288 833 299 817 z "},"ņ":{"ha":758,"x_min":0,"x_max":0,"o":"m 463 442 l 463 35 b 499 0 463 13 476 0 l 643 0 b 678 35 665 0 678 13 l 678 475 b 479 726 678 659 586 726 b 290 612 391 726 328 684 b 280 612 288 606 283 606 l 255 679 b 213 707 247 698 234 707 l 126 707 b 91 672 104 707 91 694 l 91 35 b 126 0 91 13 104 0 l 270 0 b 306 35 293 0 306 13 l 306 410 b 307 420 306 413 306 417 b 414 547 331 499 375 547 b 463 442 443 547 463 514 z m 266 -463 l 307 -499 b 357 -495 323 -514 342 -513 b 508 -210 467 -378 508 -306 b 386 -72 508 -122 451 -72 b 265 -191 319 -72 265 -120 b 335 -293 265 -232 289 -283 b 340 -302 340 -294 342 -297 b 264 -413 321 -340 295 -376 b 266 -463 249 -431 250 -448 z "},"ň":{"ha":758,"x_min":0,"x_max":0,"o":"m 463 442 l 463 35 b 499 0 463 13 476 0 l 643 0 b 678 35 665 0 678 13 l 678 475 b 479 726 678 659 586 726 b 290 612 391 726 328 684 b 280 612 288 606 283 606 l 255 679 b 213 707 247 698 234 707 l 126 707 b 91 672 104 707 91 694 l 91 35 b 126 0 91 13 104 0 l 270 0 b 306 35 293 0 306 13 l 306 410 b 307 420 306 413 306 417 b 414 547 331 499 375 547 b 463 442 443 547 463 514 z m 129 1013 l 275 826 b 318 804 287 812 301 804 l 456 804 b 499 826 473 804 487 812 l 644 1013 b 624 1056 662 1035 653 1056 l 505 1056 b 462 1038 487 1056 475 1051 l 393 971 b 383 971 390 968 385 968 l 313 1038 b 269 1056 301 1051 287 1056 l 149 1056 b 129 1013 120 1056 111 1035 z "},"o":{"ha":758,"x_min":0,"x_max":0,"o":"m 378 158 b 264 355 308 158 264 244 b 378 549 264 466 308 549 b 494 355 448 549 494 466 b 378 158 494 244 448 158 z m 43 355 b 378 -19 43 138 177 -19 b 715 355 581 -19 715 138 b 378 726 715 569 581 726 b 43 355 177 726 43 569 z "},"ò":{"ha":758,"x_min":0,"x_max":0,"o":"m 378 158 b 264 355 308 158 264 244 b 378 549 264 466 308 549 b 494 355 448 549 494 466 b 378 158 494 244 448 158 z m 43 355 b 378 -19 43 138 177 -19 b 715 355 581 -19 715 138 b 378 726 715 569 581 726 b 43 355 177 726 43 569 z m 122 1016 l 256 838 b 299 817 268 823 280 817 l 432 817 b 457 859 460 817 471 833 l 360 1034 b 318 1059 351 1051 337 1059 l 144 1059 b 122 1016 115 1059 105 1039 z "},"ó":{"ha":758,"x_min":0,"x_max":0,"o":"m 378 158 b 264 355 308 158 264 244 b 378 549 264 466 308 549 b 494 355 448 549 494 466 b 378 158 494 244 448 158 z m 43 355 b 378 -19 43 138 177 -19 b 715 355 581 -19 715 138 b 378 726 715 569 581 726 b 43 355 177 726 43 569 z m 319 817 l 452 817 b 495 838 471 817 484 823 l 629 1016 b 607 1059 646 1039 636 1059 l 433 1059 b 391 1034 414 1059 400 1051 l 294 859 b 319 817 280 833 292 817 z "},"ô":{"ha":758,"x_min":0,"x_max":0,"o":"m 378 158 b 264 355 308 158 264 244 b 378 549 264 466 308 549 b 494 355 448 549 494 466 b 378 158 494 244 448 158 z m 43 355 b 378 -19 43 138 177 -19 b 715 355 581 -19 715 138 b 378 726 715 569 581 726 b 43 355 177 726 43 569 z m 141 813 l 260 813 b 303 831 278 813 290 818 l 372 898 b 383 898 375 900 380 900 l 452 831 b 496 813 465 818 479 813 l 615 813 b 636 856 644 813 654 833 l 490 1043 b 447 1064 479 1057 465 1064 l 309 1064 b 266 1043 292 1064 278 1057 l 121 856 b 141 813 104 833 112 813 z "},"õ":{"ha":758,"x_min":0,"x_max":0,"o":"m 378 158 b 264 355 308 158 264 244 b 378 549 264 466 308 549 b 494 355 448 549 494 466 b 378 158 494 244 448 158 z m 43 355 b 378 -19 43 138 177 -19 b 715 355 581 -19 715 138 b 378 726 715 569 581 726 b 43 355 177 726 43 569 z m 146 802 l 231 802 b 268 837 253 802 264 814 b 299 871 273 864 284 871 b 487 798 343 871 398 798 b 657 1004 562 798 643 846 b 622 1042 659 1028 645 1042 l 539 1042 b 503 1006 518 1042 506 1029 b 468 972 496 980 484 972 b 282 1045 431 972 367 1045 b 111 840 179 1045 122 991 b 146 802 110 816 124 802 z "},"ö":{"ha":758,"x_min":0,"x_max":0,"o":"m 378 158 b 264 355 308 158 264 244 b 378 549 264 466 308 549 b 494 355 448 549 494 466 b 378 158 494 244 448 158 z m 43 355 b 378 -19 43 138 177 -19 b 715 355 581 -19 715 138 b 378 726 715 569 581 726 b 43 355 177 726 43 569 z m 80 933 b 218 794 80 859 141 794 b 356 933 293 794 356 859 b 218 1072 356 1009 293 1072 b 80 933 141 1072 80 1009 z m 402 933 b 540 794 402 859 463 794 b 678 933 615 794 678 859 b 540 1072 678 1009 615 1072 b 402 933 463 1072 402 1009 z "},"ō":{"ha":758,"x_min":0,"x_max":0,"o":"m 378 158 b 264 355 308 158 264 244 b 378 549 264 466 308 549 b 494 355 448 549 494 466 b 378 158 494 244 448 158 z m 43 355 b 378 -19 43 138 177 -19 b 715 355 581 -19 715 138 b 378 726 715 569 581 726 b 43 355 177 726 43 569 z m 194 804 l 563 804 b 598 840 586 804 598 817 l 598 939 b 563 975 598 962 586 975 l 194 975 b 159 939 172 975 159 962 l 159 840 b 194 804 159 817 172 804 z "},"ŏ":{"ha":758,"x_min":0,"x_max":0,"o":"m 378 158 b 264 355 308 158 264 244 b 378 549 264 466 308 549 b 494 355 448 549 494 466 b 378 158 494 244 448 158 z m 43 355 b 378 -19 43 138 177 -19 b 715 355 581 -19 715 138 b 378 726 715 569 581 726 b 43 355 177 726 43 569 z m 130 1011 b 379 793 155 865 251 793 b 628 1011 506 793 602 865 b 595 1049 633 1035 619 1049 l 497 1049 b 460 1016 476 1049 465 1038 b 379 963 448 980 424 963 b 298 1016 333 963 309 980 b 260 1049 293 1038 282 1049 l 163 1049 b 130 1011 139 1049 125 1035 z "},"ő":{"ha":758,"x_min":0,"x_max":0,"o":"m 378 158 b 264 355 308 158 264 244 b 378 549 264 466 308 549 b 494 355 448 549 494 466 b 378 158 494 244 448 158 z m 43 355 b 378 -19 43 138 177 -19 b 715 355 581 -19 715 138 b 378 726 715 569 581 726 b 43 355 177 726 43 569 z m 187 804 l 294 804 b 336 828 313 804 326 811 l 439 1001 b 415 1044 453 1025 443 1044 l 269 1044 b 227 1016 249 1044 235 1035 l 159 845 b 187 804 149 821 160 804 z m 463 804 l 573 804 b 616 826 592 804 605 811 l 746 1001 b 725 1044 764 1025 754 1044 l 578 1044 b 537 1020 559 1044 545 1037 l 439 846 b 463 804 426 821 436 804 z "},"p":{"ha":758,"x_min":0,"x_max":0,"o":"m 434 -19 b 702 355 577 -19 702 95 b 447 726 702 612 568 726 b 271 621 367 726 311 693 b 261 621 269 615 264 616 l 237 679 b 197 707 230 697 217 707 l 116 707 b 81 672 93 707 81 694 l 81 -205 b 116 -240 81 -227 93 -240 l 260 -240 b 295 -205 283 -240 295 -227 l 295 24 b 304 28 295 30 299 32 b 434 -19 336 -3 378 -19 z m 295 255 l 295 447 b 297 457 295 449 295 453 b 403 551 326 529 364 551 b 481 355 455 551 481 485 b 403 159 481 218 453 159 b 297 245 360 159 323 170 b 295 255 295 249 295 253 z "},"q":{"ha":758,"x_min":0,"x_max":0,"o":"m 323 -19 b 455 29 381 -19 423 -1 b 462 24 458 33 462 30 l 462 -205 b 497 -240 462 -227 475 -240 l 641 -240 b 677 -205 664 -240 677 -227 l 677 672 b 641 707 677 694 664 707 l 561 707 b 520 679 540 707 528 697 l 496 621 b 486 621 494 616 489 615 b 311 726 447 693 390 726 b 56 355 189 726 56 612 b 323 -19 56 95 181 -19 z m 277 355 b 355 551 277 485 303 551 b 461 457 394 551 432 529 b 462 447 462 453 462 449 l 462 255 b 461 245 462 253 462 249 b 355 159 434 170 398 159 b 277 355 304 159 277 218 z "},"r":{"ha":758,"x_min":0,"x_max":0,"o":"m 158 0 l 302 0 b 337 35 324 0 337 13 l 337 415 b 338 426 337 418 337 422 b 439 549 366 503 407 549 b 497 391 475 549 491 505 b 535 357 500 367 513 355 l 684 371 b 717 409 706 374 718 385 b 477 726 710 619 629 726 b 313 633 409 726 352 698 b 303 633 309 626 306 626 l 287 678 b 246 707 280 697 266 707 l 158 707 b 122 672 135 707 122 694 l 122 35 b 158 0 122 13 135 0 z "},"ŕ":{"ha":758,"x_min":0,"x_max":0,"o":"m 158 0 l 302 0 b 337 35 324 0 337 13 l 337 415 b 338 426 337 418 337 422 b 439 549 366 503 407 549 b 497 391 475 549 491 505 b 535 357 500 367 513 355 l 684 371 b 717 409 706 374 718 385 b 477 726 710 619 629 726 b 313 633 409 726 352 698 b 303 633 309 626 306 626 l 287 678 b 246 707 280 697 266 707 l 158 707 b 122 672 135 707 122 694 l 122 35 b 158 0 122 13 135 0 z m 321 817 l 453 817 b 496 838 472 817 485 823 l 630 1016 b 609 1059 648 1039 638 1059 l 434 1059 b 393 1034 415 1059 402 1051 l 295 859 b 321 817 282 833 293 817 z "},"ŗ":{"ha":758,"x_min":0,"x_max":0,"o":"m 158 0 l 302 0 b 337 35 324 0 337 13 l 337 415 b 338 426 337 418 337 422 b 439 549 366 503 407 549 b 497 391 475 549 491 505 b 535 357 500 367 513 355 l 684 371 b 717 409 706 374 718 385 b 477 726 710 619 629 726 b 313 633 409 726 352 698 b 303 633 309 626 306 626 l 287 678 b 246 707 280 697 266 707 l 158 707 b 122 672 135 707 122 694 l 122 35 b 158 0 122 13 135 0 z m 100 -463 l 140 -499 b 191 -495 157 -514 176 -513 b 341 -210 301 -378 341 -306 b 220 -72 341 -122 284 -72 b 98 -191 153 -72 98 -120 b 168 -293 98 -232 122 -283 b 173 -302 173 -294 176 -297 b 97 -413 154 -340 129 -376 b 100 -463 82 -431 83 -448 z "},"ř":{"ha":758,"x_min":0,"x_max":0,"o":"m 158 0 l 302 0 b 337 35 324 0 337 13 l 337 415 b 338 426 337 418 337 422 b 439 549 366 503 407 549 b 497 391 475 549 491 505 b 535 357 500 367 513 355 l 684 371 b 717 409 706 374 718 385 b 477 726 710 619 629 726 b 313 633 409 726 352 698 b 303 633 309 626 306 626 l 287 678 b 246 707 280 697 266 707 l 158 707 b 122 672 135 707 122 694 l 122 35 b 158 0 122 13 135 0 z m 122 1013 l 269 826 b 312 804 280 812 294 804 l 449 804 b 492 826 467 804 481 812 l 638 1013 b 617 1056 655 1035 646 1056 l 499 1056 b 456 1038 481 1056 468 1051 l 386 971 b 376 971 384 968 379 968 l 307 1038 b 263 1056 294 1051 280 1056 l 143 1056 b 122 1013 114 1056 105 1035 z "},"s":{"ha":758,"x_min":0,"x_max":0,"o":"m 379 -19 b 689 225 615 -19 689 106 b 302 514 689 485 302 400 b 371 564 302 548 328 564 b 503 500 424 564 466 542 b 553 495 518 482 535 479 l 645 578 b 649 629 662 593 664 612 b 381 726 586 693 503 726 b 102 506 193 726 102 626 b 489 188 102 217 489 312 b 384 133 489 153 458 133 b 247 211 335 133 283 163 b 198 220 232 231 217 235 l 96 141 b 91 92 78 128 76 110 b 379 -19 155 19 239 -19 z "},"ś":{"ha":758,"x_min":0,"x_max":0,"o":"m 379 -19 b 689 225 615 -19 689 106 b 302 514 689 485 302 400 b 371 564 302 548 328 564 b 503 500 424 564 466 542 b 553 495 518 482 535 479 l 645 578 b 649 629 662 593 664 612 b 381 726 586 693 503 726 b 102 506 193 726 102 626 b 489 188 102 217 489 312 b 384 133 489 153 458 133 b 247 211 335 133 283 163 b 198 220 232 231 217 235 l 96 141 b 91 92 78 128 76 110 b 379 -19 155 19 239 -19 z m 326 817 l 458 817 b 501 838 477 817 490 823 l 635 1016 b 614 1059 653 1039 643 1059 l 439 1059 b 398 1034 420 1059 407 1051 l 301 859 b 326 817 287 833 298 817 z "},"ŝ":{"ha":758,"x_min":0,"x_max":0,"o":"m 379 -19 b 689 225 615 -19 689 106 b 302 514 689 485 302 400 b 371 564 302 548 328 564 b 503 500 424 564 466 542 b 553 495 518 482 535 479 l 645 578 b 649 629 662 593 664 612 b 381 726 586 693 503 726 b 102 506 193 726 102 626 b 489 188 102 217 489 312 b 384 133 489 153 458 133 b 247 211 335 133 283 163 b 198 220 232 231 217 235 l 96 141 b 91 92 78 128 76 110 b 379 -19 155 19 239 -19 z m 148 813 l 266 813 b 309 831 284 813 297 818 l 379 898 b 389 898 381 900 386 900 l 458 831 b 503 813 471 818 485 813 l 621 813 b 643 856 650 813 660 833 l 496 1043 b 453 1064 485 1057 471 1064 l 316 1064 b 273 1043 298 1064 284 1057 l 128 856 b 148 813 110 833 119 813 z "},"ş":{"ha":758,"x_min":0,"x_max":0,"o":"m 372 -385 b 561 -225 470 -385 561 -345 b 415 -74 561 -131 508 -82 b 410 -64 409 -73 408 -69 l 433 -21 b 442 -16 434 -18 437 -16 b 689 225 629 5 689 117 b 302 514 689 485 302 400 b 371 564 302 548 328 564 b 503 500 424 564 466 542 b 553 495 518 482 535 479 l 645 578 b 649 629 662 593 664 612 b 381 726 586 693 503 726 b 102 506 193 726 102 626 b 489 188 102 217 489 312 b 384 133 489 153 458 133 b 247 211 335 133 283 163 b 198 220 232 231 217 235 l 97 141 b 91 92 80 128 76 110 b 302 -14 144 34 207 -1 b 307 -24 307 -15 309 -19 l 278 -77 b 269 -122 270 -92 268 -106 l 270 -140 b 311 -173 273 -163 287 -173 b 408 -217 384 -169 408 -188 b 365 -255 408 -240 394 -255 b 303 -241 347 -255 324 -249 b 258 -260 280 -232 265 -237 l 236 -322 b 256 -367 229 -343 235 -360 b 372 -385 288 -378 327 -385 z "},"š":{"ha":758,"x_min":0,"x_max":0,"o":"m 379 -19 b 689 225 615 -19 689 106 b 302 514 689 485 302 400 b 371 564 302 548 328 564 b 503 500 424 564 466 542 b 553 495 518 482 535 479 l 645 578 b 649 629 662 593 664 612 b 381 726 586 693 503 726 b 102 506 193 726 102 626 b 489 188 102 217 489 312 b 384 133 489 153 458 133 b 247 211 335 133 283 163 b 198 220 232 231 217 235 l 96 141 b 91 92 78 128 76 110 b 379 -19 155 19 239 -19 z m 128 1013 l 274 826 b 317 804 285 812 299 804 l 455 804 b 497 826 472 804 486 812 l 643 1013 b 622 1056 660 1035 652 1056 l 504 1056 b 461 1038 486 1056 473 1051 l 391 971 b 381 971 389 968 384 968 l 312 1038 b 268 1056 299 1051 285 1056 l 148 1056 b 128 1013 119 1056 110 1035 z "},"ș":{"ha":758,"x_min":0,"x_max":0,"o":"m 379 -19 b 689 225 615 -19 689 106 b 302 514 689 485 302 400 b 371 564 302 548 328 564 b 503 500 424 564 466 542 b 553 495 518 482 535 479 l 645 578 b 649 629 662 593 664 612 b 381 726 586 693 503 726 b 102 506 193 726 102 626 b 489 188 102 217 489 312 b 384 133 489 153 458 133 b 247 211 335 133 283 163 b 198 220 232 231 217 235 l 96 141 b 91 92 78 128 76 110 b 379 -19 155 19 239 -19 z m 264 -463 l 304 -499 b 355 -495 321 -514 340 -513 b 505 -210 465 -378 505 -306 b 384 -72 505 -122 448 -72 b 263 -191 317 -72 263 -120 b 332 -293 263 -232 287 -283 b 337 -302 337 -294 340 -297 b 261 -413 318 -340 293 -376 b 264 -463 246 -431 247 -448 z "},"t":{"ha":758,"x_min":0,"x_max":0,"o":"m 451 -19 b 659 30 533 -19 590 -6 b 677 78 681 42 686 58 l 629 182 b 581 194 619 205 601 208 b 477 158 545 170 511 158 b 405 277 428 158 405 205 l 405 529 b 413 537 405 534 408 537 l 616 537 b 652 572 639 537 652 549 l 652 672 b 616 707 652 694 639 707 l 413 707 b 405 715 408 707 405 711 l 405 842 b 370 878 405 865 393 878 l 226 878 b 191 842 203 878 191 865 l 191 715 b 183 707 191 710 187 707 l 93 707 b 58 672 71 707 58 694 l 58 572 b 93 537 58 549 71 537 l 183 537 b 191 529 188 537 191 534 l 191 247 b 451 -19 191 62 284 -19 z "},"ț":{"ha":758,"x_min":0,"x_max":0,"o":"m 451 -19 b 659 30 533 -19 590 -6 b 677 78 681 42 686 58 l 629 182 b 581 194 619 205 601 208 b 477 158 545 170 511 158 b 405 277 428 158 405 205 l 405 529 b 413 537 405 534 408 537 l 616 537 b 652 572 639 537 652 549 l 652 672 b 616 707 652 694 639 707 l 413 707 b 405 715 408 707 405 711 l 405 842 b 370 878 405 865 393 878 l 226 878 b 191 842 203 878 191 865 l 191 715 b 183 707 191 710 187 707 l 93 707 b 58 672 71 707 58 694 l 58 572 b 93 537 58 549 71 537 l 183 537 b 191 529 188 537 191 534 l 191 247 b 451 -19 191 62 284 -19 z m 282 -463 l 322 -499 b 372 -495 338 -514 357 -513 b 523 -210 482 -378 523 -306 b 402 -72 523 -122 466 -72 b 280 -191 335 -72 280 -120 b 350 -293 280 -232 304 -283 b 355 -302 355 -294 357 -297 b 279 -413 336 -340 311 -376 b 282 -463 264 -431 265 -448 z "},"ť":{"ha":758,"x_min":0,"x_max":0,"o":"m 451 -19 b 659 30 533 -19 590 -6 b 677 78 681 42 686 58 l 629 182 b 581 194 619 205 601 208 b 477 158 545 170 511 158 b 405 277 428 158 405 205 l 405 529 b 413 537 405 534 408 537 l 616 537 b 652 572 639 537 652 549 l 652 672 b 616 707 652 694 639 707 l 413 707 b 405 715 408 707 405 711 l 405 842 b 370 878 405 865 393 878 l 226 878 b 191 842 203 878 191 865 l 191 715 b 183 707 191 710 187 707 l 93 707 b 58 672 71 707 58 694 l 58 572 b 93 537 58 549 71 537 l 183 537 b 191 529 188 537 191 534 l 191 247 b 451 -19 191 62 284 -19 z m 508 784 l 624 784 b 660 817 645 784 658 794 l 684 1009 b 652 1047 687 1032 676 1047 l 508 1047 b 472 1011 485 1047 472 1034 l 472 819 b 508 784 472 797 485 784 z "},"u":{"ha":758,"x_min":0,"x_max":0,"o":"m 282 -19 b 466 96 362 -19 428 21 b 477 96 470 102 475 102 l 503 28 b 544 0 510 9 524 0 l 631 0 b 667 35 654 0 667 13 l 667 672 b 631 707 667 694 654 707 l 487 707 b 452 672 465 707 452 694 l 452 297 b 451 287 452 294 452 290 b 343 160 427 208 383 160 b 294 265 314 160 294 193 l 294 672 b 259 707 294 694 282 707 l 115 707 b 80 672 92 707 80 694 l 80 232 b 282 -19 80 44 168 -19 z "},"ù":{"ha":758,"x_min":0,"x_max":0,"o":"m 282 -19 b 466 96 362 -19 428 21 b 477 96 470 102 475 102 l 503 28 b 544 0 510 9 524 0 l 631 0 b 667 35 654 0 667 13 l 667 672 b 631 707 667 694 654 707 l 487 707 b 452 672 465 707 452 694 l 452 297 b 451 287 452 294 452 290 b 343 160 427 208 383 160 b 294 265 314 160 294 193 l 294 672 b 259 707 294 694 282 707 l 115 707 b 80 672 92 707 80 694 l 80 232 b 282 -19 80 44 168 -19 z m 122 1016 l 256 838 b 299 817 268 823 280 817 l 432 817 b 457 859 460 817 471 833 l 360 1034 b 318 1059 351 1051 337 1059 l 144 1059 b 122 1016 115 1059 105 1039 z "},"ú":{"ha":758,"x_min":0,"x_max":0,"o":"m 282 -19 b 466 96 362 -19 428 21 b 477 96 470 102 475 102 l 503 28 b 544 0 510 9 524 0 l 631 0 b 667 35 654 0 667 13 l 667 672 b 631 707 667 694 654 707 l 487 707 b 452 672 465 707 452 694 l 452 297 b 451 287 452 294 452 290 b 343 160 427 208 383 160 b 294 265 314 160 294 193 l 294 672 b 259 707 294 694 282 707 l 115 707 b 80 672 92 707 80 694 l 80 232 b 282 -19 80 44 168 -19 z m 319 817 l 452 817 b 495 838 471 817 484 823 l 629 1016 b 607 1059 646 1039 636 1059 l 433 1059 b 391 1034 414 1059 400 1051 l 294 859 b 319 817 280 833 292 817 z "},"û":{"ha":758,"x_min":0,"x_max":0,"o":"m 282 -19 b 466 96 362 -19 428 21 b 477 96 470 102 475 102 l 503 28 b 544 0 510 9 524 0 l 631 0 b 667 35 654 0 667 13 l 667 672 b 631 707 667 694 654 707 l 487 707 b 452 672 465 707 452 694 l 452 297 b 451 287 452 294 452 290 b 343 160 427 208 383 160 b 294 265 314 160 294 193 l 294 672 b 259 707 294 694 282 707 l 115 707 b 80 672 92 707 80 694 l 80 232 b 282 -19 80 44 168 -19 z m 141 813 l 260 813 b 303 831 278 813 290 818 l 372 898 b 383 898 375 900 380 900 l 452 831 b 496 813 465 818 479 813 l 615 813 b 636 856 644 813 654 833 l 490 1043 b 447 1064 479 1057 465 1064 l 309 1064 b 266 1043 292 1064 278 1057 l 121 856 b 141 813 104 833 112 813 z "},"ü":{"ha":758,"x_min":0,"x_max":0,"o":"m 282 -19 b 466 96 362 -19 428 21 b 477 96 470 102 475 102 l 503 28 b 544 0 510 9 524 0 l 631 0 b 667 35 654 0 667 13 l 667 672 b 631 707 667 694 654 707 l 487 707 b 452 672 465 707 452 694 l 452 297 b 451 287 452 294 452 290 b 343 160 427 208 383 160 b 294 265 314 160 294 193 l 294 672 b 259 707 294 694 282 707 l 115 707 b 80 672 92 707 80 694 l 80 232 b 282 -19 80 44 168 -19 z m 80 933 b 218 794 80 859 141 794 b 356 933 293 794 356 859 b 218 1072 356 1009 293 1072 b 80 933 141 1072 80 1009 z m 402 933 b 540 794 402 859 463 794 b 678 933 615 794 678 859 b 540 1072 678 1009 615 1072 b 402 933 463 1072 402 1009 z "},"ũ":{"ha":758,"x_min":0,"x_max":0,"o":"m 282 -19 b 466 96 362 -19 428 21 b 477 96 470 102 475 102 l 503 28 b 544 0 510 9 524 0 l 631 0 b 667 35 654 0 667 13 l 667 672 b 631 707 667 694 654 707 l 487 707 b 452 672 465 707 452 694 l 452 297 b 451 287 452 294 452 290 b 343 160 427 208 383 160 b 294 265 314 160 294 193 l 294 672 b 259 707 294 694 282 707 l 115 707 b 80 672 92 707 80 694 l 80 232 b 282 -19 80 44 168 -19 z m 146 802 l 231 802 b 268 837 253 802 264 814 b 299 871 273 864 284 871 b 487 798 343 871 398 798 b 657 1004 562 798 643 846 b 622 1042 659 1028 645 1042 l 539 1042 b 503 1006 518 1042 506 1029 b 468 972 496 980 484 972 b 282 1045 431 972 367 1045 b 111 840 179 1045 122 991 b 146 802 110 816 124 802 z "},"ū":{"ha":758,"x_min":0,"x_max":0,"o":"m 282 -19 b 466 96 362 -19 428 21 b 477 96 470 102 475 102 l 503 28 b 544 0 510 9 524 0 l 631 0 b 667 35 654 0 667 13 l 667 672 b 631 707 667 694 654 707 l 487 707 b 452 672 465 707 452 694 l 452 297 b 451 287 452 294 452 290 b 343 160 427 208 383 160 b 294 265 314 160 294 193 l 294 672 b 259 707 294 694 282 707 l 115 707 b 80 672 92 707 80 694 l 80 232 b 282 -19 80 44 168 -19 z m 194 804 l 563 804 b 598 840 586 804 598 817 l 598 939 b 563 975 598 962 586 975 l 194 975 b 159 939 172 975 159 962 l 159 840 b 194 804 159 817 172 804 z "},"ŭ":{"ha":758,"x_min":0,"x_max":0,"o":"m 282 -19 b 466 96 362 -19 428 21 b 477 96 470 102 475 102 l 503 28 b 544 0 510 9 524 0 l 631 0 b 667 35 654 0 667 13 l 667 672 b 631 707 667 694 654 707 l 487 707 b 452 672 465 707 452 694 l 452 297 b 451 287 452 294 452 290 b 343 160 427 208 383 160 b 294 265 314 160 294 193 l 294 672 b 259 707 294 694 282 707 l 115 707 b 80 672 92 707 80 694 l 80 232 b 282 -19 80 44 168 -19 z m 130 1011 b 379 793 155 865 251 793 b 628 1011 506 793 602 865 b 595 1049 633 1035 619 1049 l 497 1049 b 460 1016 476 1049 465 1038 b 379 963 448 980 424 963 b 298 1016 333 963 309 980 b 260 1049 293 1038 282 1049 l 163 1049 b 130 1011 139 1049 125 1035 z "},"ů":{"ha":758,"x_min":0,"x_max":0,"o":"m 282 -19 b 466 96 362 -19 428 21 b 477 96 470 102 475 102 l 503 28 b 544 0 510 9 524 0 l 631 0 b 667 35 654 0 667 13 l 667 672 b 631 707 667 694 654 707 l 487 707 b 452 672 465 707 452 694 l 452 297 b 451 287 452 294 452 290 b 343 160 427 208 383 160 b 294 265 314 160 294 193 l 294 672 b 259 707 294 694 282 707 l 115 707 b 80 672 92 707 80 694 l 80 232 b 282 -19 80 44 168 -19 z m 201 953 b 379 789 201 864 282 789 b 557 953 476 789 557 864 b 379 1117 557 1043 476 1117 b 201 953 282 1117 201 1043 z m 321 953 b 379 1014 321 986 347 1014 b 437 953 410 1014 437 986 b 379 893 437 920 410 893 b 321 953 347 893 321 920 z "},"ű":{"ha":758,"x_min":0,"x_max":0,"o":"m 282 -19 b 466 96 362 -19 428 21 b 477 96 470 102 475 102 l 503 28 b 544 0 510 9 524 0 l 631 0 b 667 35 654 0 667 13 l 667 672 b 631 707 667 694 654 707 l 487 707 b 452 672 465 707 452 694 l 452 297 b 451 287 452 294 452 290 b 343 160 427 208 383 160 b 294 265 314 160 294 193 l 294 672 b 259 707 294 694 282 707 l 115 707 b 80 672 92 707 80 694 l 80 232 b 282 -19 80 44 168 -19 z m 187 804 l 294 804 b 336 828 313 804 326 811 l 439 1001 b 415 1044 453 1025 443 1044 l 269 1044 b 227 1016 249 1044 235 1035 l 159 845 b 187 804 149 821 160 804 z m 463 804 l 573 804 b 616 826 592 804 605 811 l 746 1001 b 725 1044 764 1025 754 1044 l 578 1044 b 537 1020 559 1044 545 1037 l 439 846 b 463 804 426 821 436 804 z "},"ų":{"ha":758,"x_min":0,"x_max":0,"o":"m 282 -19 b 466 96 362 -19 428 23 b 477 96 470 102 475 102 l 511 8 b 509 -3 513 3 513 0 b 394 -203 449 -53 394 -128 b 552 -347 394 -304 466 -347 b 653 -331 590 -347 621 -342 b 678 -288 672 -323 679 -309 l 672 -217 b 631 -196 669 -191 655 -187 b 609 -199 624 -198 616 -199 b 576 -160 590 -199 576 -188 b 648 -19 576 -126 592 -76 b 667 25 660 -5 667 8 l 667 672 b 631 707 667 694 654 707 l 487 707 b 452 672 465 707 452 694 l 452 297 b 451 287 452 294 452 290 b 343 160 427 208 383 160 b 294 265 314 160 294 193 l 294 672 b 259 707 294 694 282 707 l 115 707 b 80 672 92 707 80 694 l 80 232 b 282 -19 80 44 168 -19 z "},"v":{"ha":758,"x_min":0,"x_max":0,"o":"m 327 0 l 429 0 b 472 25 448 0 462 8 b 569 259 504 86 537 152 l 696 667 b 667 707 703 692 692 707 l 543 707 b 504 677 523 707 509 697 l 389 251 b 379 251 388 245 380 245 l 263 677 b 222 707 258 697 242 707 l 91 707 b 62 667 66 707 54 692 l 188 259 b 285 24 222 149 251 85 b 327 0 294 8 308 0 z "},"w":{"ha":758,"x_min":0,"x_max":0,"o":"m 197 0 l 250 0 b 292 27 269 0 283 8 b 335 150 311 68 326 111 l 372 318 b 383 318 374 324 381 326 l 418 157 b 461 25 429 105 442 66 b 503 0 470 8 484 0 l 568 0 b 610 25 587 0 601 8 b 653 183 633 72 641 116 l 730 669 b 698 707 734 693 722 707 l 592 707 b 556 674 571 707 558 697 l 513 351 b 504 350 511 345 505 342 l 470 486 b 432 585 461 523 447 554 b 390 610 423 602 409 610 l 369 610 b 327 585 350 610 335 602 b 293 490 313 556 303 527 l 255 348 b 246 348 254 342 247 341 l 205 674 b 168 707 202 697 189 707 l 61 707 b 28 669 37 707 24 693 l 110 170 b 155 25 117 125 133 71 b 197 0 164 8 178 0 z "},"ŵ":{"ha":758,"x_min":0,"x_max":0,"o":"m 197 0 l 250 0 b 292 27 269 0 283 8 b 335 150 311 68 326 111 l 372 318 b 383 318 374 324 381 326 l 418 157 b 461 25 429 105 442 66 b 503 0 470 8 484 0 l 568 0 b 610 25 587 0 601 8 b 653 183 633 72 641 116 l 730 669 b 698 707 734 693 722 707 l 592 707 b 556 674 571 707 558 697 l 513 351 b 504 350 511 345 505 342 l 470 486 b 432 585 461 523 447 554 b 390 610 423 602 409 610 l 369 610 b 327 585 350 610 335 602 b 293 490 313 556 303 527 l 255 348 b 246 348 254 342 247 341 l 205 674 b 168 707 202 697 189 707 l 61 707 b 28 669 37 707 24 693 l 110 170 b 155 25 117 125 133 71 b 197 0 164 8 178 0 z m 141 813 l 260 813 b 303 831 278 813 290 818 l 372 898 b 383 898 375 900 380 900 l 452 831 b 496 813 465 818 479 813 l 615 813 b 636 856 644 813 654 833 l 490 1043 b 447 1064 479 1057 465 1064 l 309 1064 b 266 1043 292 1064 278 1057 l 121 856 b 141 813 104 833 112 813 z "},"ẁ":{"ha":758,"x_min":0,"x_max":0,"o":"m 197 0 l 250 0 b 292 27 269 0 283 8 b 335 150 311 68 326 111 l 372 318 b 383 318 374 324 381 326 l 418 157 b 461 25 429 105 442 66 b 503 0 470 8 484 0 l 568 0 b 610 25 587 0 601 8 b 653 183 633 72 641 116 l 730 669 b 698 707 734 693 722 707 l 592 707 b 556 674 571 707 558 697 l 513 351 b 504 350 511 345 505 342 l 470 486 b 432 585 461 523 447 554 b 390 610 423 602 409 610 l 369 610 b 327 585 350 610 335 602 b 293 490 313 556 303 527 l 255 348 b 246 348 254 342 247 341 l 205 674 b 168 707 202 697 189 707 l 61 707 b 28 669 37 707 24 693 l 110 170 b 155 25 117 125 133 71 b 197 0 164 8 178 0 z m 122 1016 l 256 838 b 299 817 268 823 280 817 l 432 817 b 457 859 460 817 471 833 l 360 1034 b 318 1059 351 1051 337 1059 l 144 1059 b 122 1016 115 1059 105 1039 z "},"ẃ":{"ha":758,"x_min":0,"x_max":0,"o":"m 197 0 l 250 0 b 292 27 269 0 283 8 b 335 150 311 68 326 111 l 372 318 b 383 318 374 324 381 326 l 418 157 b 461 25 429 105 442 66 b 503 0 470 8 484 0 l 568 0 b 610 25 587 0 601 8 b 653 183 633 72 641 116 l 730 669 b 698 707 734 693 722 707 l 592 707 b 556 674 571 707 558 697 l 513 351 b 504 350 511 345 505 342 l 470 486 b 432 585 461 523 447 554 b 390 610 423 602 409 610 l 369 610 b 327 585 350 610 335 602 b 293 490 313 556 303 527 l 255 348 b 246 348 254 342 247 341 l 205 674 b 168 707 202 697 189 707 l 61 707 b 28 669 37 707 24 693 l 110 170 b 155 25 117 125 133 71 b 197 0 164 8 178 0 z m 319 817 l 452 817 b 495 838 471 817 484 823 l 629 1016 b 607 1059 646 1039 636 1059 l 433 1059 b 391 1034 414 1059 400 1051 l 294 859 b 319 817 280 833 292 817 z "},"ẅ":{"ha":758,"x_min":0,"x_max":0,"o":"m 197 0 l 250 0 b 292 27 269 0 283 8 b 335 150 311 68 326 111 l 372 318 b 383 318 374 324 381 326 l 418 157 b 461 25 429 105 442 66 b 503 0 470 8 484 0 l 568 0 b 610 25 587 0 601 8 b 653 183 633 72 641 116 l 730 669 b 698 707 734 693 722 707 l 592 707 b 556 674 571 707 558 697 l 513 351 b 504 350 511 345 505 342 l 470 486 b 432 585 461 523 447 554 b 390 610 423 602 409 610 l 369 610 b 327 585 350 610 335 602 b 293 490 313 556 303 527 l 255 348 b 246 348 254 342 247 341 l 205 674 b 168 707 202 697 189 707 l 61 707 b 28 669 37 707 24 693 l 110 170 b 155 25 117 125 133 71 b 197 0 164 8 178 0 z m 80 933 b 218 794 80 859 141 794 b 356 933 293 794 356 859 b 218 1072 356 1009 293 1072 b 80 933 141 1072 80 1009 z m 402 933 b 540 794 402 859 463 794 b 678 933 615 794 678 859 b 540 1072 678 1009 615 1072 b 402 933 463 1072 402 1009 z "},"x":{"ha":758,"x_min":0,"x_max":0,"o":"m 527 0 l 676 0 b 699 43 705 0 715 19 l 495 352 b 495 362 492 356 492 359 l 694 664 b 672 707 710 688 701 707 l 521 707 b 480 683 503 707 489 699 l 386 518 b 376 518 384 513 379 513 l 283 683 b 241 707 274 699 260 707 l 86 707 b 62 664 57 707 47 688 l 263 361 b 263 351 265 357 265 355 l 58 43 b 82 0 43 19 53 0 l 226 0 b 268 24 245 0 258 6 l 371 196 b 381 196 374 201 379 201 l 485 24 b 527 0 495 6 508 0 z "},"y":{"ha":758,"x_min":0,"x_max":0,"o":"m 196 -284 b 489 -14 346 -284 434 -177 l 713 667 b 684 707 721 691 710 707 l 545 707 b 506 677 525 707 511 698 l 405 298 b 395 298 404 292 396 292 l 289 677 b 249 707 284 697 269 707 l 98 707 b 71 667 73 707 62 692 l 230 222 b 316 35 258 144 287 82 b 317 25 317 32 318 29 b 143 -95 293 -42 256 -95 b 130 -93 139 -95 135 -95 b 120 -131 122 -93 119 -106 l 129 -247 b 164 -283 130 -270 143 -282 b 196 -284 174 -284 186 -284 z "},"ý":{"ha":758,"x_min":0,"x_max":0,"o":"m 196 -284 b 489 -14 346 -284 434 -177 l 713 667 b 684 707 721 691 710 707 l 545 707 b 506 677 525 707 511 698 l 405 298 b 395 298 404 292 396 292 l 289 677 b 249 707 284 697 269 707 l 98 707 b 71 667 73 707 62 692 l 230 222 b 316 35 258 144 287 82 b 317 25 317 32 318 29 b 143 -95 293 -42 256 -95 b 130 -93 139 -95 135 -95 b 120 -131 122 -93 119 -106 l 129 -247 b 164 -283 130 -270 143 -282 b 196 -284 174 -284 186 -284 z m 331 817 l 463 817 b 506 838 482 817 495 823 l 640 1016 b 619 1059 658 1039 648 1059 l 444 1059 b 403 1034 426 1059 412 1051 l 306 859 b 331 817 292 833 303 817 z "},"ÿ":{"ha":758,"x_min":0,"x_max":0,"o":"m 196 -284 b 489 -14 346 -284 434 -177 l 713 667 b 684 707 721 691 710 707 l 545 707 b 506 677 525 707 511 698 l 405 298 b 395 298 404 292 396 292 l 289 677 b 249 707 284 697 269 707 l 98 707 b 71 667 73 707 62 692 l 230 222 b 316 35 258 144 287 82 b 317 25 317 32 318 29 b 143 -95 293 -42 256 -95 b 130 -93 139 -95 135 -95 b 120 -131 122 -93 119 -106 l 129 -247 b 164 -283 130 -270 143 -282 b 196 -284 174 -284 186 -284 z m 91 933 b 230 794 91 859 153 794 b 367 933 304 794 367 859 b 230 1072 367 1009 304 1072 b 91 933 153 1072 91 1009 z m 413 933 b 552 794 413 859 475 794 b 689 933 626 794 689 859 b 552 1072 689 1009 626 1072 b 413 933 475 1072 413 1009 z "},"ŷ":{"ha":758,"x_min":0,"x_max":0,"o":"m 196 -284 b 489 -14 346 -284 434 -177 l 713 667 b 684 707 721 691 710 707 l 545 707 b 506 677 525 707 511 698 l 405 298 b 395 298 404 292 396 292 l 289 677 b 249 707 284 697 269 707 l 98 707 b 71 667 73 707 62 692 l 230 222 b 316 35 258 144 287 82 b 317 25 317 32 318 29 b 143 -95 293 -42 256 -95 b 130 -93 139 -95 135 -95 b 120 -131 122 -93 119 -106 l 129 -247 b 164 -283 130 -270 143 -282 b 196 -284 174 -284 186 -284 z m 153 813 l 271 813 b 314 831 289 813 302 818 l 384 898 b 394 898 386 900 391 900 l 463 831 b 508 813 476 818 490 813 l 626 813 b 648 856 655 813 665 833 l 501 1043 b 458 1064 490 1057 476 1064 l 321 1064 b 278 1043 303 1064 289 1057 l 133 856 b 153 813 115 833 124 813 z "},"ỳ":{"ha":758,"x_min":0,"x_max":0,"o":"m 196 -284 b 489 -14 346 -284 434 -177 l 713 667 b 684 707 721 691 710 707 l 545 707 b 506 677 525 707 511 698 l 405 298 b 395 298 404 292 396 292 l 289 677 b 249 707 284 697 269 707 l 98 707 b 71 667 73 707 62 692 l 230 222 b 316 35 258 144 287 82 b 317 25 317 32 318 29 b 143 -95 293 -42 256 -95 b 130 -93 139 -95 135 -95 b 120 -131 122 -93 119 -106 l 129 -247 b 164 -283 130 -270 143 -282 b 196 -284 174 -284 186 -284 z m 134 1016 l 268 838 b 311 817 279 823 292 817 l 443 817 b 468 859 471 817 482 833 l 371 1034 b 330 1059 362 1051 348 1059 l 155 1059 b 134 1016 126 1059 116 1039 z "},"z":{"ha":758,"x_min":0,"x_max":0,"o":"m 98 146 l 98 35 b 134 0 98 13 111 0 l 629 0 b 664 35 652 0 664 13 l 664 135 b 629 170 664 158 652 170 l 346 170 b 341 179 340 170 337 174 l 568 441 b 628 520 591 467 611 494 b 639 563 636 535 639 547 l 639 672 b 604 707 639 694 626 707 l 150 707 b 115 672 128 707 115 694 l 115 572 b 150 537 115 549 128 537 l 395 537 b 399 528 402 537 403 533 l 179 280 b 111 191 154 253 130 222 b 98 146 101 176 98 163 z "},"ź":{"ha":758,"x_min":0,"x_max":0,"o":"m 98 146 l 98 35 b 134 0 98 13 111 0 l 629 0 b 664 35 652 0 664 13 l 664 135 b 629 170 664 158 652 170 l 346 170 b 341 179 340 170 337 174 l 568 441 b 628 520 591 467 611 494 b 639 563 636 535 639 547 l 639 672 b 604 707 639 694 626 707 l 150 707 b 115 672 128 707 115 694 l 115 572 b 150 537 115 549 128 537 l 395 537 b 399 528 402 537 403 533 l 179 280 b 111 191 154 253 130 222 b 98 146 101 176 98 163 z m 322 817 l 455 817 b 497 838 473 817 486 823 l 631 1016 b 610 1059 649 1039 639 1059 l 436 1059 b 394 1034 417 1059 403 1051 l 297 859 b 322 817 283 833 294 817 z "},"ż":{"ha":758,"x_min":0,"x_max":0,"o":"m 98 146 l 98 35 b 134 0 98 13 111 0 l 629 0 b 664 35 652 0 664 13 l 664 135 b 629 170 664 158 652 170 l 346 170 b 341 179 340 170 337 174 l 568 441 b 628 520 591 467 611 494 b 639 563 636 535 639 547 l 639 672 b 604 707 639 694 626 707 l 150 707 b 115 672 128 707 115 694 l 115 572 b 150 537 115 549 128 537 l 395 537 b 399 528 402 537 403 533 l 179 280 b 111 191 154 253 130 222 b 98 146 101 176 98 163 z m 244 933 b 383 794 244 859 306 794 b 520 933 457 794 520 859 b 383 1072 520 1009 457 1072 b 244 933 306 1072 244 1009 z "},"ž":{"ha":758,"x_min":0,"x_max":0,"o":"m 98 146 l 98 35 b 134 0 98 13 111 0 l 629 0 b 664 35 652 0 664 13 l 664 135 b 629 170 664 158 652 170 l 346 170 b 341 179 340 170 337 174 l 568 441 b 628 520 591 467 611 494 b 639 563 636 535 639 547 l 639 672 b 604 707 639 694 626 707 l 150 707 b 115 672 128 707 115 694 l 115 572 b 150 537 115 549 128 537 l 395 537 b 399 528 402 537 403 533 l 179 280 b 111 191 154 253 130 222 b 98 146 101 176 98 163 z m 124 1013 l 270 826 b 313 804 282 812 295 804 l 451 804 b 494 826 468 804 482 812 l 639 1013 b 619 1056 657 1035 648 1056 l 500 1056 b 457 1038 482 1056 470 1051 l 388 971 b 378 971 385 968 380 968 l 308 1038 b 264 1056 295 1051 282 1056 l 144 1056 b 124 1013 115 1056 106 1035 z "},"ß":{"ha":758,"x_min":0,"x_max":0,"o":"m 431 -13 b 721 256 617 -13 721 80 b 516 504 721 402 659 489 b 516 506 510 505 510 506 b 678 691 646 529 678 604 b 372 966 678 867 549 966 b 72 694 205 966 72 881 l 72 35 b 107 0 72 13 85 0 l 251 0 b 287 35 274 0 287 13 l 287 679 b 372 795 287 754 313 795 b 457 687 418 795 457 765 b 384 564 457 624 437 586 b 354 525 364 557 354 545 l 354 436 b 389 399 354 414 366 402 b 500 263 473 389 500 351 b 432 158 500 182 470 158 b 386 160 414 158 400 159 b 348 130 362 164 348 154 l 348 30 b 380 -9 348 9 359 -5 b 431 -13 395 -11 413 -13 z "},"æ":{"ha":758,"x_min":0,"x_max":0,"o":"m 520 -19 b 722 143 609 -19 677 30 b 705 203 736 176 727 198 l 624 221 b 580 194 602 226 588 216 b 521 126 564 150 540 126 b 462 294 476 126 465 179 b 470 302 462 299 465 302 l 691 302 b 727 335 712 302 725 313 b 732 419 730 365 732 398 b 519 726 732 590 654 726 b 390 670 466 726 424 706 b 380 670 386 668 384 668 b 245 726 346 703 303 726 b 38 571 150 726 76 679 b 61 525 30 548 40 533 l 140 496 b 186 519 162 489 177 496 b 250 582 207 567 230 582 b 299 473 278 582 299 545 l 299 443 b 292 434 299 439 297 436 b 25 193 116 418 25 359 b 216 -19 25 56 106 -19 b 359 59 283 -19 324 11 b 369 59 361 64 366 64 b 520 -19 407 9 457 -19 z m 188 199 b 290 312 188 274 212 299 b 299 306 295 313 299 311 b 313 191 301 263 306 225 b 312 181 314 187 314 184 b 240 124 295 143 265 124 b 188 199 206 124 188 144 z m 463 433 b 514 586 468 548 489 586 b 572 446 545 586 568 533 l 572 432 b 564 424 572 427 569 424 l 471 424 b 463 433 466 424 463 427 z "},"ǽ":{"ha":758,"x_min":0,"x_max":0,"o":"m 520 -19 b 722 143 609 -19 677 30 b 705 203 736 176 727 198 l 624 221 b 580 194 602 226 588 216 b 521 126 564 150 540 126 b 462 294 476 126 465 179 b 470 302 462 299 465 302 l 691 302 b 727 335 712 302 725 313 b 732 419 730 365 732 398 b 519 726 732 590 654 726 b 390 670 466 726 424 706 b 380 670 386 668 384 668 b 245 726 346 703 303 726 b 38 571 150 726 76 679 b 61 525 30 548 40 533 l 140 496 b 186 519 162 489 177 496 b 250 582 207 567 230 582 b 299 473 278 582 299 545 l 299 443 b 292 434 299 439 297 436 b 25 193 116 418 25 359 b 216 -19 25 56 106 -19 b 359 59 283 -19 324 11 b 369 59 361 64 366 64 b 520 -19 407 9 457 -19 z m 188 199 b 290 312 188 274 212 299 b 299 306 295 313 299 311 b 313 191 301 263 306 225 b 312 181 314 187 314 184 b 240 124 295 143 265 124 b 188 199 206 124 188 144 z m 322 817 l 455 817 b 497 838 473 817 486 823 l 631 1016 b 610 1059 649 1039 639 1059 l 436 1059 b 394 1034 417 1059 403 1051 l 297 859 b 322 817 283 833 294 817 z m 463 433 b 514 586 468 548 489 586 b 572 446 545 586 568 533 l 572 432 b 564 424 572 427 569 424 l 471 424 b 463 433 466 424 463 427 z "},"ð":{"ha":758,"x_min":0,"x_max":0,"o":"m 378 -19 b 720 414 587 -19 720 119 b 604 802 720 581 677 708 b 605 813 600 806 601 809 l 665 861 b 670 912 684 876 684 894 l 631 961 b 581 966 617 979 598 980 l 504 903 b 494 903 501 900 497 900 b 218 966 422 944 330 965 b 181 933 197 966 183 955 l 165 831 b 198 793 162 807 174 793 b 330 773 247 792 292 785 b 331 763 336 770 335 766 l 288 727 b 283 677 270 712 269 694 l 321 630 b 371 624 335 612 354 609 l 439 679 b 449 678 443 682 447 682 b 504 535 476 639 494 592 b 496 530 504 529 501 527 b 357 574 460 559 409 574 b 56 280 189 574 56 457 b 378 -19 56 90 191 -19 z m 275 282 b 375 398 275 352 324 398 b 505 347 428 398 466 386 b 509 337 508 345 509 342 b 381 158 496 216 460 158 b 275 282 317 158 275 205 z "},"ø":{"ha":758,"x_min":0,"x_max":0,"o":"m 67 0 l 154 0 b 197 21 172 0 186 8 l 198 24 b 210 25 201 28 206 28 b 378 -19 258 -4 314 -19 b 715 355 581 -19 715 138 b 654 581 715 442 693 518 b 654 591 652 585 652 588 l 713 664 b 692 707 732 687 721 707 l 605 707 b 562 687 587 707 573 701 l 559 683 b 548 682 557 679 552 679 b 378 726 500 710 442 726 b 43 355 177 726 43 569 b 105 126 43 266 66 188 b 105 116 107 122 107 119 l 45 43 b 67 0 27 20 38 0 z m 264 355 b 378 549 264 466 308 549 b 428 533 396 549 413 543 b 429 521 432 529 432 525 l 274 328 b 264 331 270 323 264 323 b 264 355 264 338 264 347 z m 328 184 l 484 378 b 494 375 487 383 494 383 b 494 355 494 369 494 361 b 378 158 494 244 448 158 b 330 173 360 158 345 164 b 328 184 326 177 326 181 z "},"ǿ":{"ha":758,"x_min":0,"x_max":0,"o":"m 67 0 l 154 0 b 197 21 172 0 186 8 l 198 24 b 210 25 201 28 206 28 b 378 -19 258 -4 314 -19 b 715 355 581 -19 715 138 b 654 581 715 442 693 518 b 654 591 652 585 652 588 l 713 664 b 692 707 732 687 721 707 l 605 707 b 562 687 587 707 573 701 l 559 683 b 548 682 557 679 552 679 b 378 726 500 710 442 726 b 43 355 177 726 43 569 b 105 126 43 266 66 188 b 105 116 107 122 107 119 l 45 43 b 67 0 27 20 38 0 z m 264 355 b 378 549 264 466 308 549 b 428 533 396 549 413 543 b 429 521 432 529 432 525 l 274 328 b 264 331 270 323 264 323 b 264 355 264 338 264 347 z m 319 817 l 452 817 b 495 838 471 817 484 823 l 629 1016 b 607 1059 646 1039 636 1059 l 433 1059 b 391 1034 414 1059 400 1051 l 294 859 b 319 817 280 833 292 817 z m 328 184 l 484 378 b 494 375 487 383 494 383 b 494 355 494 369 494 361 b 378 158 494 244 448 158 b 330 173 360 158 345 164 b 328 184 326 177 326 181 z "},"þ":{"ha":758,"x_min":0,"x_max":0,"o":"m 434 -19 b 702 355 577 -19 702 95 b 434 726 702 612 568 726 b 304 678 378 726 336 711 b 295 681 299 672 295 674 l 295 912 b 260 947 295 934 283 947 l 116 947 b 81 912 93 947 81 934 l 81 -205 b 116 -240 81 -227 93 -240 l 260 -240 b 295 -205 283 -240 295 -227 l 295 21 b 304 25 295 28 299 29 b 434 -19 336 -4 378 -19 z m 295 255 l 295 447 b 297 457 295 449 295 453 b 403 551 326 529 364 551 b 481 355 455 551 481 485 b 403 159 481 218 453 159 b 297 245 360 159 323 170 b 295 255 295 249 295 253 z "},"đ":{"ha":758,"x_min":0,"x_max":0,"o":"m 402 759 l 455 759 b 462 751 460 759 462 755 l 462 681 b 453 678 462 674 458 672 b 323 726 422 711 380 726 b 81 355 202 726 81 612 b 323 -19 81 95 194 -19 b 491 72 408 -19 457 16 b 501 72 495 78 499 77 l 520 28 b 561 0 528 10 540 0 l 616 0 b 652 35 639 0 652 13 l 652 751 b 659 759 652 756 654 759 l 707 759 b 742 794 730 759 742 771 l 742 848 b 707 884 742 871 730 884 l 659 884 b 652 891 654 884 652 888 l 652 915 b 616 947 652 936 639 947 l 497 947 b 462 912 475 947 462 934 l 462 891 b 455 884 462 886 460 884 l 402 884 b 366 848 379 884 366 871 l 366 794 b 402 759 366 771 379 759 z m 277 355 b 355 551 277 485 303 551 b 461 457 394 551 432 529 b 462 447 462 453 462 449 l 462 255 b 461 245 462 253 462 249 b 355 159 434 170 398 159 b 277 355 304 159 277 218 z "},"ħ":{"ha":758,"x_min":0,"x_max":0,"o":"m 64 759 l 102 759 b 110 751 107 759 110 756 l 110 35 b 145 0 110 13 122 0 l 264 0 b 299 35 287 0 299 13 l 299 426 b 301 436 299 428 299 432 b 414 547 328 504 374 547 b 470 442 447 547 470 514 l 470 35 b 505 0 470 13 482 0 l 624 0 b 659 35 646 0 659 13 l 659 475 b 456 726 659 659 574 726 b 308 662 398 726 347 703 b 299 665 304 657 299 659 l 299 751 b 307 759 299 756 302 759 l 370 759 b 405 794 393 759 405 771 l 405 848 b 370 884 405 871 393 884 l 307 884 b 299 891 302 884 299 888 l 299 915 b 264 947 299 936 287 947 l 145 947 b 110 912 122 947 110 934 l 110 891 b 102 884 110 886 107 884 l 64 884 b 29 848 42 884 29 871 l 29 794 b 64 759 29 771 42 759 z "},"ĳ":{"ha":758,"x_min":0,"x_max":0,"o":"m 126 0 l 270 0 b 306 35 293 0 306 13 l 306 672 b 270 707 306 694 293 707 l 126 707 b 91 672 104 707 91 694 l 91 35 b 126 0 91 13 104 0 z m 53 933 b 192 794 53 859 115 794 b 330 933 266 794 330 859 b 192 1072 330 1009 266 1072 b 53 933 115 1072 53 1009 z m 261 -266 b 402 -284 301 -278 354 -284 b 694 -9 585 -284 694 -198 l 694 672 b 659 707 694 694 682 707 l 515 707 b 480 672 492 707 480 694 l 480 21 b 402 -107 480 -68 456 -107 b 303 -92 367 -107 333 -101 b 260 -116 280 -85 265 -93 l 237 -223 b 261 -266 232 -245 240 -261 z m 442 933 b 581 794 442 859 504 794 b 718 933 655 794 718 859 b 581 1072 718 1009 655 1072 b 442 933 504 1072 442 1009 z "},"ĸ":{"ha":758,"x_min":0,"x_max":0,"o":"m 126 0 l 270 0 b 306 35 293 0 306 13 l 306 212 b 309 221 306 216 307 217 l 355 274 b 366 273 359 279 364 278 l 499 25 b 542 0 508 8 523 0 l 699 0 b 725 42 727 0 737 18 l 506 441 b 508 451 505 444 505 447 l 694 664 b 674 707 715 688 705 707 l 528 707 b 485 687 510 707 496 701 l 314 485 b 306 487 311 480 306 481 l 306 673 b 270 708 306 696 293 708 l 126 708 b 91 673 104 708 91 696 l 91 35 b 126 0 91 13 104 0 z "},"ŀ":{"ha":758,"x_min":0,"x_max":0,"o":"m 117 0 l 639 0 b 674 35 662 0 674 13 l 674 135 b 639 170 674 158 662 170 l 490 170 b 482 178 485 170 482 173 l 482 912 b 447 947 482 934 470 947 l 138 947 b 102 912 115 947 102 934 l 102 812 b 138 777 102 789 115 777 l 260 777 b 268 769 265 777 268 774 l 268 178 b 260 170 268 173 265 170 l 117 170 b 82 135 95 170 82 158 l 82 35 b 117 0 82 13 95 0 z m 615 481 b 764 333 615 403 684 333 b 910 481 842 333 910 403 b 764 629 910 559 842 629 b 615 481 684 629 615 559 z "},"ł":{"ha":758,"x_min":0,"x_max":0,"o":"m 591 649 l 491 625 b 482 631 486 624 482 626 l 482 912 b 447 947 482 934 470 947 l 138 947 b 102 912 115 947 102 934 l 102 812 b 138 777 102 789 115 777 l 260 777 b 268 769 265 777 268 774 l 268 574 b 261 567 268 571 265 568 l 162 542 b 131 503 141 537 131 523 l 131 399 b 170 369 131 374 146 362 l 259 390 b 268 384 264 391 268 389 l 268 178 b 260 170 268 173 265 170 l 117 170 b 82 135 95 170 82 158 l 82 35 b 117 0 82 13 95 0 l 639 0 b 674 35 662 0 674 13 l 674 135 b 639 170 674 158 662 170 l 490 170 b 482 178 485 170 482 174 l 482 441 b 489 448 482 444 485 447 l 600 476 b 630 515 620 481 630 495 l 630 619 b 591 649 630 643 615 655 z "},"ŋ":{"ha":758,"x_min":0,"x_max":0,"o":"m 422 -288 b 678 -47 578 -288 678 -212 l 678 475 b 479 726 678 659 586 726 b 290 612 391 726 328 684 b 280 612 288 606 283 606 l 255 679 b 213 707 247 698 234 707 l 126 707 b 91 672 104 707 91 694 l 91 35 b 126 0 91 13 104 0 l 270 0 b 306 35 293 0 306 13 l 306 410 b 307 420 306 413 306 417 b 414 547 331 499 375 547 b 463 442 443 547 463 514 l 463 -28 b 398 -106 463 -78 442 -106 b 331 -100 376 -106 352 -104 b 289 -126 308 -95 294 -104 l 266 -229 b 290 -273 261 -250 270 -266 b 422 -288 324 -282 370 -288 z "},"œ":{"ha":758,"x_min":0,"x_max":0,"o":"m 246 125 b 306 355 284 125 306 213 b 246 585 306 497 284 585 b 196 355 216 585 196 497 b 246 125 196 213 216 125 z m 15 355 b 234 726 15 582 91 726 b 379 629 293 726 346 696 b 405 630 389 607 395 607 b 552 726 436 696 487 726 b 746 396 678 726 746 606 b 739 292 746 362 742 327 b 730 284 737 287 734 284 l 521 284 b 489 246 499 284 486 270 b 557 121 497 168 518 121 b 609 203 590 121 606 157 b 616 210 609 208 611 210 l 746 192 b 753 183 750 192 754 188 b 563 -19 734 38 658 -19 b 407 78 494 -19 438 11 b 379 78 396 100 389 100 b 234 -19 347 11 293 -19 b 15 355 91 -19 15 125 z m 519 408 l 556 408 b 591 437 578 408 591 437 b 539 586 586 524 571 586 b 484 444 508 586 489 525 b 519 408 482 420 496 408 z "},"ŧ":{"ha":758,"x_min":0,"x_max":0,"o":"m 616 465 l 413 465 b 405 472 408 465 405 467 l 405 529 b 413 537 405 534 408 537 l 616 537 b 652 572 639 537 652 549 l 652 672 b 616 707 652 694 639 707 l 413 707 b 405 715 408 707 405 711 l 405 842 b 370 878 405 865 393 878 l 226 878 b 191 842 203 878 191 865 l 191 715 b 183 707 191 710 187 707 l 93 707 b 58 672 71 707 58 694 l 58 572 b 93 537 58 549 71 537 l 183 537 b 191 529 188 537 191 534 l 191 472 b 183 465 191 467 187 465 l 93 465 b 58 429 71 465 58 452 l 58 330 b 93 294 58 307 71 294 l 183 294 b 191 287 188 294 191 290 l 191 247 b 451 -19 191 62 284 -19 b 660 32 533 -19 591 -6 b 677 78 681 42 686 58 l 629 182 b 581 194 619 205 601 208 b 477 158 545 170 511 158 b 405 277 428 158 405 205 l 405 287 b 413 294 405 292 408 294 l 616 294 b 652 330 639 294 652 307 l 652 429 b 616 465 652 452 639 465 z "},"ſ":{"ha":758,"x_min":0,"x_max":0,"o":"m 226 730 l 226 715 b 218 707 226 710 222 707 l 122 707 b 87 672 100 707 87 694 l 87 572 b 122 537 87 549 100 537 l 218 537 b 226 529 223 537 226 533 l 226 35 b 261 0 226 13 239 0 l 404 0 b 439 35 427 0 439 13 l 439 730 b 503 808 439 777 463 808 b 625 785 543 808 582 799 b 670 807 648 778 664 784 l 702 910 b 678 955 708 933 701 948 b 492 985 619 973 561 985 b 226 730 314 985 226 886 z "},"ȷ":{"ha":758,"x_min":0,"x_max":0,"o":"m 293 -259 b 609 16 481 -259 609 -164 l 609 672 b 573 707 609 694 596 707 l 187 707 b 152 672 164 707 152 694 l 152 572 b 187 537 152 549 164 537 l 386 537 b 394 529 391 537 394 534 l 394 47 b 284 -82 394 -43 355 -82 b 159 -58 241 -82 197 -73 b 114 -78 136 -49 120 -56 l 83 -179 b 104 -225 77 -199 83 -216 b 293 -259 155 -246 218 -259 z "},"_":{"ha":758,"x_min":0,"x_max":0,"o":"m 697 -13 l 61 -13 b 25 -48 38 -13 25 -25 l 25 -160 b 61 -196 25 -183 38 -196 l 697 -196 b 732 -160 720 -196 732 -183 l 732 -48 b 697 -13 732 -25 720 -13 z "},"-":{"ha":758,"x_min":0,"x_max":0,"o":"m 582 509 l 176 509 b 140 473 153 509 140 496 l 140 361 b 176 326 140 338 153 326 l 582 326 b 617 361 605 326 617 338 l 617 473 b 582 509 617 496 605 509 z "},"–":{"ha":758,"x_min":0,"x_max":0,"o":"m 616 506 l 141 506 b 106 471 119 506 106 494 l 106 362 b 141 327 106 340 119 327 l 616 327 b 652 362 639 327 652 340 l 652 471 b 616 506 652 494 639 506 z "},"—":{"ha":758,"x_min":0,"x_max":0,"o":"m 702 506 l 56 506 b 20 471 33 506 20 494 l 20 366 b 56 331 20 343 33 331 l 702 331 b 737 366 725 331 737 343 l 737 471 b 702 506 737 494 725 506 z "},"(":{"ha":758,"x_min":0,"x_max":0,"o":"m 197 413 b 437 -167 197 158 293 -18 b 482 -168 449 -179 463 -181 l 578 -105 b 587 -56 597 -92 601 -74 b 428 412 476 98 428 235 b 587 878 428 590 476 725 b 580 927 602 896 600 913 l 482 991 b 433 986 465 1004 448 1001 b 197 413 292 842 197 665 z "},")":{"ha":758,"x_min":0,"x_max":0,"o":"m 561 410 b 321 990 561 665 465 841 b 275 991 308 1003 294 1004 l 179 928 b 170 879 160 915 157 898 b 330 412 282 725 330 588 b 170 -54 330 234 282 98 b 178 -104 155 -73 158 -90 l 275 -168 b 324 -163 293 -181 309 -178 b 561 410 466 -19 561 158 z "},"[":{"ha":758,"x_min":0,"x_max":0,"o":"m 229 -158 l 573 -158 b 609 -122 596 -158 609 -145 l 609 -16 b 573 19 609 6 596 19 l 422 19 b 414 27 417 19 414 23 l 414 804 b 422 812 414 809 417 812 l 573 812 b 609 847 596 812 609 824 l 609 953 b 573 989 609 976 596 989 l 229 989 b 193 953 206 989 193 976 l 193 -122 b 229 -158 193 -145 206 -158 z "},"]":{"ha":758,"x_min":0,"x_max":0,"o":"m 529 989 l 184 989 b 149 953 162 989 149 976 l 149 847 b 184 812 149 824 162 812 l 336 812 b 343 804 341 812 343 808 l 343 27 b 336 19 343 21 341 19 l 184 19 b 149 -16 162 19 149 6 l 149 -122 b 184 -158 149 -145 162 -158 l 529 -158 b 564 -122 552 -158 564 -145 l 564 953 b 529 989 564 976 552 989 z "},"{":{"ha":758,"x_min":0,"x_max":0,"o":"m 106 449 l 106 375 b 144 340 106 352 119 340 b 306 264 264 336 306 302 b 258 176 306 239 292 220 b 206 62 223 133 206 100 b 432 -158 206 -110 324 -158 l 610 -158 b 645 -122 633 -158 645 -145 l 645 -16 b 610 19 645 6 633 19 l 509 19 b 443 62 462 19 443 43 b 504 160 443 87 471 119 b 545 260 530 194 545 235 b 357 414 545 330 496 391 b 357 418 351 414 351 417 b 545 571 496 447 545 508 b 489 692 545 602 534 636 b 443 769 470 716 443 753 b 509 812 443 797 462 812 l 610 812 b 645 847 633 812 645 824 l 645 953 b 610 989 645 976 633 989 l 432 989 b 206 769 324 989 206 948 b 249 665 206 737 221 702 b 306 567 279 625 306 593 b 141 487 306 533 263 503 b 106 449 119 485 106 471 z "},"}":{"ha":758,"x_min":0,"x_max":0,"o":"m 652 381 l 652 456 b 614 491 652 479 639 491 b 452 567 494 495 452 529 b 500 655 452 592 466 611 b 552 769 534 698 552 731 b 326 989 552 941 433 989 l 148 989 b 112 953 125 989 112 976 l 112 847 b 148 812 112 824 125 812 l 249 812 b 314 769 295 812 314 788 b 254 670 314 744 287 712 b 212 571 227 636 212 596 b 400 417 212 501 261 439 b 400 413 407 417 407 414 b 212 260 261 384 212 323 b 269 139 212 229 223 194 b 314 62 288 115 314 78 b 249 19 314 34 295 19 l 148 19 b 112 -16 125 19 112 6 l 112 -122 b 148 -158 112 -145 125 -158 l 326 -158 b 552 62 433 -158 552 -117 b 509 165 552 93 537 129 b 452 264 479 206 452 237 b 616 343 452 298 495 328 b 652 381 639 346 652 360 z "},"#":{"ha":758,"x_min":0,"x_max":0,"o":"m 164 1 l 258 1 b 294 35 279 1 293 14 l 311 216 b 318 223 311 220 314 223 l 423 223 b 429 216 428 223 429 221 l 414 38 b 448 1 412 15 426 1 l 542 1 b 578 35 563 1 577 14 l 595 216 b 602 223 595 220 598 223 l 684 223 b 720 259 707 223 720 236 l 720 337 b 684 372 720 360 707 372 l 615 372 b 609 380 610 372 609 375 l 620 518 b 629 525 620 521 625 525 l 697 525 b 732 561 720 525 732 538 l 732 639 b 697 674 732 662 720 674 l 641 674 b 635 682 636 674 635 677 l 650 860 b 616 896 653 883 639 896 l 523 896 b 486 862 501 896 487 884 l 470 682 b 462 674 470 678 466 674 l 359 674 b 352 682 354 674 352 677 l 367 860 b 333 896 370 883 356 896 l 240 896 b 203 862 218 896 205 884 l 187 682 b 179 674 187 678 183 674 l 85 674 b 49 639 62 674 49 662 l 49 561 b 85 525 49 538 62 525 l 165 525 b 172 518 170 525 172 523 l 160 380 b 153 372 160 376 157 372 l 72 372 b 37 337 49 372 37 360 l 37 259 b 72 223 37 236 49 223 l 139 223 b 145 216 144 223 145 221 l 130 38 b 164 1 128 15 141 1 z m 326 380 l 337 518 b 345 525 337 521 341 525 l 449 525 b 456 518 455 525 456 523 l 444 380 b 436 372 444 376 439 372 l 332 372 b 326 380 327 372 326 375 z "},"%":{"ha":758,"x_min":0,"x_max":0,"o":"m 114 152 l 723 660 b 727 710 741 676 742 692 l 691 750 b 641 754 676 768 658 768 l 34 241 b 30 192 16 226 15 210 l 64 154 b 114 152 80 136 97 138 z m 19 713 b 217 515 19 593 100 515 b 418 713 338 515 418 593 b 217 910 418 832 338 910 b 19 713 100 910 19 832 z m 167 713 b 217 787 167 758 189 787 b 271 713 250 787 271 758 b 217 640 271 669 250 640 b 167 713 189 640 167 669 z m 340 187 b 538 -11 340 67 420 -11 b 739 187 659 -11 739 67 b 538 384 739 306 659 384 b 340 187 420 384 340 306 z m 487 187 b 538 260 487 231 510 260 b 592 187 571 260 592 231 b 538 114 592 143 571 114 b 487 187 510 114 487 143 z "},"'":{"ha":758,"x_min":0,"x_max":0,"o":"m 332 479 l 427 479 b 463 513 448 479 461 491 l 495 860 b 462 896 497 883 485 896 l 295 896 b 263 860 273 896 260 883 l 295 513 b 332 479 298 491 311 479 z "},"\"":{"ha":758,"x_min":0,"x_max":0,"o":"m 172 479 l 265 479 b 302 513 287 479 299 491 l 335 860 b 302 896 337 883 324 896 l 135 896 b 102 860 112 896 100 883 l 135 513 b 172 479 138 491 150 479 z m 422 860 l 455 513 b 491 479 457 491 470 479 l 586 479 b 622 513 607 479 620 491 l 655 860 b 622 896 658 883 645 896 l 455 896 b 422 860 432 896 419 883 z "},"‘":{"ha":758,"x_min":0,"x_max":0,"o":"m 547 836 l 516 888 b 467 903 505 907 487 913 b 235 569 294 821 235 711 b 381 413 235 472 287 413 b 518 532 463 413 518 462 b 405 641 518 590 484 636 b 398 649 400 641 398 644 b 530 788 403 696 444 747 b 547 836 553 798 559 814 z "},"’":{"ha":758,"x_min":0,"x_max":0,"o":"m 236 492 l 266 441 b 316 426 278 422 295 415 b 548 759 489 508 548 617 b 402 915 548 856 496 915 b 265 797 319 915 265 866 b 378 687 265 739 299 692 b 385 679 383 687 385 684 b 253 540 380 633 338 581 b 236 492 230 530 223 514 z "},"“":{"ha":758,"x_min":0,"x_max":0,"o":"m 359 836 l 328 888 b 279 903 317 907 299 913 b 47 569 106 821 47 711 b 193 413 47 472 98 413 b 330 532 275 413 330 462 b 217 641 330 590 295 636 b 210 649 212 641 210 644 b 342 788 215 696 256 747 b 359 836 365 798 371 814 z m 405 569 b 552 413 405 472 457 413 b 688 532 634 413 688 462 b 576 641 688 590 654 636 b 568 649 571 641 568 644 b 701 788 573 696 615 747 b 718 836 723 798 731 814 l 687 888 b 638 903 676 907 659 913 b 405 569 465 821 405 711 z "},"”":{"ha":758,"x_min":0,"x_max":0,"o":"m 409 492 l 439 441 b 489 426 451 422 468 415 b 721 759 662 508 721 617 b 574 915 721 856 669 915 b 438 797 492 915 438 866 b 551 687 438 739 472 692 b 558 679 556 687 558 684 b 426 540 553 633 511 581 b 409 492 403 530 396 514 z m 51 492 l 81 441 b 130 426 92 422 110 415 b 362 759 303 508 362 617 b 216 915 362 856 311 915 b 80 797 134 915 80 866 b 192 687 80 739 114 692 b 199 679 197 687 199 684 b 67 540 194 633 153 581 b 51 492 44 530 38 514 z "},"‚":{"ha":758,"x_min":0,"x_max":0,"o":"m 236 -117 l 266 -169 b 316 -184 278 -188 295 -194 b 548 149 489 -102 548 8 b 402 306 548 246 496 306 b 265 187 319 306 265 256 b 378 77 265 129 299 82 b 385 69 383 77 385 74 b 253 -69 380 23 338 -29 b 236 -117 230 -80 223 -96 z "},"„":{"ha":758,"x_min":0,"x_max":0,"o":"m 49 -117 l 80 -169 b 129 -184 91 -188 109 -194 b 361 149 302 -102 361 8 b 215 306 361 246 309 306 b 78 187 133 306 78 256 b 191 77 78 129 112 82 b 198 69 196 77 198 74 b 66 -69 193 23 152 -29 b 49 -117 43 -80 37 -96 z m 403 -117 l 433 -169 b 482 -184 444 -188 462 -194 b 715 149 655 -102 715 8 b 568 306 715 246 663 306 b 432 187 486 306 432 256 b 544 77 432 129 466 82 b 552 69 549 77 552 74 b 419 -69 547 23 505 -29 b 403 -117 396 -80 390 -96 z "},"‹":{"ha":758,"x_min":0,"x_max":0,"o":"m 383 52 l 554 52 b 574 95 585 52 593 71 l 366 346 b 366 356 364 350 364 352 l 574 617 b 553 660 593 640 582 660 l 385 660 b 342 639 366 660 354 654 l 150 380 b 150 330 138 362 138 347 l 340 73 b 383 52 351 58 364 52 z "},"›":{"ha":758,"x_min":0,"x_max":0,"o":"m 375 660 l 203 660 b 183 617 173 660 164 641 l 391 366 b 391 356 394 362 394 360 l 183 95 b 205 52 164 72 176 52 l 372 52 b 415 73 391 52 404 58 l 607 332 b 607 383 620 350 620 365 l 418 639 b 375 660 407 654 394 660 z "},"«":{"ha":758,"x_min":0,"x_max":0,"o":"m 524 52 l 674 52 b 699 93 702 52 713 68 l 558 348 b 558 359 557 352 557 355 l 697 619 b 672 660 710 643 699 660 l 529 660 b 487 635 510 660 496 653 l 356 380 b 356 332 347 362 348 348 l 482 77 b 524 52 491 59 505 52 z m 34 332 l 160 77 b 202 52 169 59 183 52 l 352 52 b 378 93 380 52 391 68 l 236 348 b 236 359 235 352 235 355 l 375 619 b 350 660 388 643 378 660 l 207 660 b 165 635 188 660 174 653 l 34 380 b 34 332 25 362 27 348 z "},"»":{"ha":758,"x_min":0,"x_max":0,"o":"m 234 660 l 83 660 b 58 619 56 660 44 644 l 199 364 b 199 354 201 360 201 357 l 61 93 b 86 52 48 69 58 52 l 229 52 b 270 77 247 52 261 59 l 402 332 b 402 380 410 350 409 364 l 275 635 b 234 660 266 653 253 660 z m 380 619 l 521 364 b 521 354 523 360 523 357 l 383 93 b 408 52 370 69 380 52 l 551 52 b 592 77 569 52 583 59 l 723 332 b 723 380 732 350 731 364 l 597 635 b 556 660 588 653 574 660 l 405 660 b 380 619 378 660 366 644 z "},"*":{"ha":758,"x_min":0,"x_max":0,"o":"m 61 547 l 240 514 b 242 504 245 513 246 509 l 119 372 b 122 322 102 355 104 336 l 245 235 b 293 245 264 221 282 225 l 380 404 b 390 404 383 409 388 409 l 476 246 b 524 235 487 226 505 221 l 646 323 b 650 374 665 337 667 356 l 525 505 b 529 515 521 510 524 514 l 706 548 b 732 591 730 553 740 567 l 686 732 b 640 753 678 756 662 763 l 476 676 b 467 682 471 673 466 677 l 491 860 b 458 898 494 884 482 898 l 308 898 b 275 860 284 898 273 883 l 298 681 b 289 674 299 676 294 672 l 128 751 b 82 732 106 761 90 755 l 34 590 b 61 547 27 566 37 552 z "},"†":{"ha":758,"x_min":0,"x_max":0,"o":"m 580 745 l 485 745 b 477 753 480 745 477 749 l 477 861 b 442 896 477 884 465 896 l 316 896 b 280 861 293 896 280 884 l 280 753 b 273 745 280 747 278 745 l 178 745 b 143 710 155 745 143 732 l 143 635 b 178 600 143 612 155 600 l 277 600 b 284 592 280 600 284 596 l 303 284 b 340 250 304 263 318 250 l 419 250 b 456 284 441 250 455 263 l 475 592 b 482 600 475 596 479 600 l 580 600 b 615 635 602 600 615 612 l 615 710 b 580 745 615 732 602 745 z "},"‡":{"ha":758,"x_min":0,"x_max":0,"o":"m 340 250 l 419 250 b 456 284 441 250 455 263 l 465 422 b 472 429 465 426 468 429 l 580 429 b 615 465 602 429 615 442 l 615 520 b 580 556 615 543 602 556 l 480 556 b 472 563 475 556 472 558 l 477 643 b 485 650 477 646 481 650 l 580 650 b 615 686 602 650 615 663 l 615 741 b 580 777 615 764 602 777 l 485 777 b 477 784 480 777 477 779 l 477 861 b 442 896 477 884 465 896 l 316 896 b 280 861 293 896 280 884 l 280 784 b 273 777 280 779 278 777 l 178 777 b 143 741 155 777 143 764 l 143 686 b 178 650 143 663 155 650 l 273 650 b 280 643 277 650 280 646 l 287 563 b 279 556 287 558 284 556 l 178 556 b 143 520 155 556 143 543 l 143 465 b 178 429 143 442 155 429 l 287 429 b 294 422 290 429 294 426 l 303 284 b 340 250 304 263 318 250 z "},".":{"ha":758,"x_min":0,"x_max":0,"o":"m 380 -20 b 525 126 458 -20 525 47 b 380 271 525 205 458 271 b 232 126 301 271 232 205 b 380 -20 232 47 301 -20 z "},",":{"ha":758,"x_min":0,"x_max":0,"o":"m 211 -172 l 245 -230 b 294 -245 256 -249 274 -255 b 539 106 477 -158 539 -43 b 386 270 539 208 485 270 b 242 145 299 270 242 218 b 361 30 242 85 279 35 b 369 23 366 30 369 28 b 227 -124 364 -27 319 -82 b 211 -172 205 -134 198 -150 z "},":":{"ha":758,"x_min":0,"x_max":0,"o":"m 380 434 b 525 581 458 434 525 501 b 380 726 525 659 458 726 b 232 581 301 726 232 659 b 380 434 232 501 301 434 z m 232 126 b 380 -20 232 47 301 -20 b 525 126 458 -20 525 47 b 380 271 525 205 458 271 b 232 126 301 271 232 205 z "},";":{"ha":758,"x_min":0,"x_max":0,"o":"m 380 434 b 525 581 458 434 525 501 b 380 726 525 659 458 726 b 232 581 301 726 232 659 b 380 434 232 501 301 434 z m 211 -172 l 245 -230 b 294 -245 256 -249 274 -255 b 539 106 477 -158 539 -43 b 386 270 539 208 485 270 b 242 145 299 270 242 218 b 361 30 242 85 279 35 b 369 23 366 30 369 28 b 227 -124 364 -27 319 -82 b 211 -172 205 -134 198 -150 z "},"…":{"ha":758,"x_min":0,"x_max":0,"o":"m 130 -6 b 236 128 186 -6 236 56 b 130 261 236 199 186 261 b 24 128 73 261 24 199 b 130 -6 24 56 73 -6 z m 273 128 b 379 -6 273 56 322 -6 b 485 128 434 -6 485 56 b 379 261 485 199 434 261 b 273 128 322 261 273 199 z m 521 128 b 628 -6 521 56 571 -6 b 734 128 683 -6 734 56 b 628 261 734 199 683 261 b 521 128 571 261 521 199 z "},"!":{"ha":758,"x_min":0,"x_max":0,"o":"m 331 347 l 431 347 b 468 381 452 347 466 360 l 490 615 l 490 861 b 455 896 490 884 477 896 l 306 896 b 270 861 283 896 270 884 l 270 615 l 293 381 b 331 347 295 360 309 347 z m 240 120 b 380 -19 240 45 306 -19 b 518 120 453 -19 518 45 b 380 259 518 194 453 259 b 240 120 306 259 240 194 z "},"¡":{"ha":758,"x_min":0,"x_max":0,"o":"m 293 326 l 270 92 l 270 -154 b 306 -189 270 -177 283 -189 l 455 -189 b 490 -154 477 -189 490 -177 l 490 92 l 468 326 b 431 360 466 347 452 360 l 331 360 b 293 326 309 360 295 347 z m 240 587 b 380 448 240 513 306 448 b 518 587 453 448 518 513 b 380 726 518 662 453 726 b 240 587 306 726 240 662 z "},"?":{"ha":758,"x_min":0,"x_max":0,"o":"m 261 326 l 388 332 b 418 371 410 333 420 347 l 418 388 b 487 468 418 413 422 439 b 670 682 592 513 670 561 b 393 915 670 823 576 915 b 133 850 299 915 211 895 b 120 802 114 838 110 822 l 179 692 b 230 682 191 670 210 667 b 388 750 295 730 347 750 b 449 686 428 750 449 721 b 380 593 449 646 441 619 b 206 415 242 539 206 501 b 220 351 206 393 211 372 b 261 326 227 332 241 324 z m 191 120 b 331 -19 191 45 256 -19 b 468 120 404 -19 468 45 b 331 259 468 194 404 259 b 191 120 256 259 191 194 z "},"¿":{"ha":758,"x_min":0,"x_max":0,"o":"m 496 381 l 370 375 b 340 336 347 374 337 360 l 340 319 b 270 239 340 294 336 268 b 87 25 165 194 87 146 b 365 -208 87 -116 182 -208 b 625 -143 458 -208 547 -188 b 638 -95 644 -131 648 -115 l 578 15 b 528 25 567 37 548 40 b 370 -43 462 -23 410 -43 b 308 21 330 -43 308 -14 b 378 114 308 61 317 88 b 552 292 515 168 552 206 b 538 356 552 314 547 335 b 496 381 530 375 516 383 z m 289 587 b 427 448 289 513 354 448 b 567 587 501 448 567 513 b 427 726 567 662 501 726 b 289 587 354 726 289 662 z "},"/":{"ha":758,"x_min":0,"x_max":0,"o":"m 169 -239 l 294 -237 b 333 -207 314 -237 328 -229 l 611 960 b 580 999 617 985 604 999 l 455 997 b 415 967 434 997 420 989 l 138 -199 b 169 -239 131 -225 145 -239 z "},"\\":{"ha":758,"x_min":0,"x_max":0,"o":"m 458 -237 l 583 -237 b 615 -198 607 -237 620 -222 l 337 968 b 298 999 332 990 318 999 l 174 999 b 143 960 150 999 138 984 l 419 -207 b 458 -237 424 -229 438 -237 z "},"⁄":{"ha":758,"x_min":0,"x_max":0,"o":"m 57 0 l 186 0 b 227 24 205 0 217 6 l 725 854 b 701 896 739 878 729 896 l 573 896 b 532 872 554 896 542 890 l 33 43 b 57 0 19 19 29 0 z "},"|":{"ha":758,"x_min":0,"x_max":0,"o":"m 304 -237 l 455 -237 b 490 -202 477 -237 490 -225 l 490 963 b 455 999 490 986 477 999 l 304 999 b 269 963 282 999 269 986 l 269 -202 b 304 -237 269 -225 282 -237 z "},"¦":{"ha":758,"x_min":0,"x_max":0,"o":"m 490 528 l 490 953 b 455 989 490 976 477 989 l 304 989 b 269 953 282 989 269 976 l 269 528 b 304 492 269 505 282 492 l 455 492 b 490 528 477 492 490 505 z m 304 -158 l 455 -158 b 490 -122 477 -158 490 -145 l 490 324 b 455 360 490 347 477 360 l 304 360 b 269 324 282 360 269 347 l 269 -122 b 304 -158 269 -145 282 -158 z "},"@":{"ha":758,"x_min":0,"x_max":0,"o":"m 447 -182 b 677 -121 528 -182 602 -160 b 693 -73 697 -110 702 -93 l 664 -9 b 616 5 654 14 638 16 b 447 -40 558 -29 501 -40 b 198 357 364 -40 198 -16 b 410 726 198 616 290 726 b 545 592 452 726 516 706 b 539 588 547 586 544 585 b 470 612 521 605 499 612 b 275 338 361 612 275 521 b 491 68 275 140 369 68 b 730 402 652 68 730 163 b 409 866 730 756 585 866 b 32 359 211 866 32 715 b 447 -182 32 -131 299 -182 z m 443 338 b 494 489 443 439 460 489 b 559 451 520 489 540 481 b 562 442 561 448 562 444 l 562 439 b 497 192 562 241 540 192 b 443 338 462 192 443 245 z "},"&":{"ha":758,"x_min":0,"x_max":0,"o":"m 673 13 l 750 115 b 745 164 764 134 763 149 l 664 231 b 662 241 660 235 660 237 b 712 408 681 288 697 343 b 684 448 717 431 707 444 l 567 467 b 527 438 545 471 532 460 b 511 374 523 414 516 393 b 501 370 510 367 506 366 b 426 439 473 394 448 418 b 427 451 422 443 422 447 b 577 686 538 521 577 586 b 319 915 577 841 461 915 b 47 682 177 915 47 838 b 144 449 47 604 73 535 b 143 438 148 446 146 442 b 16 211 68 379 16 309 b 308 -19 16 44 165 -19 b 545 64 396 -19 477 4 b 556 64 549 68 552 68 l 624 8 b 673 13 641 -8 659 -6 z m 225 230 b 254 321 225 266 236 295 b 265 322 258 324 261 324 b 409 189 306 283 352 239 b 409 179 413 187 413 182 b 322 144 380 154 350 144 b 225 230 261 144 225 177 z m 255 682 b 317 760 255 730 279 760 b 371 678 357 760 371 723 b 327 554 371 628 361 587 b 316 556 323 551 319 552 b 255 682 269 612 255 650 z "},"§":{"ha":758,"x_min":0,"x_max":0,"o":"m 386 -181 b 699 73 619 -181 699 -56 b 605 249 699 159 659 213 b 606 259 600 251 600 255 b 701 402 673 292 701 341 b 424 625 701 553 548 598 b 306 696 347 641 306 658 b 390 759 306 731 337 759 b 487 682 433 759 460 742 b 533 659 497 662 513 653 l 660 697 b 683 741 683 703 692 720 b 393 915 633 857 540 915 b 106 682 186 915 106 797 b 194 506 106 596 144 542 b 193 496 199 503 199 499 b 90 343 120 460 90 407 b 351 135 90 198 220 162 b 503 54 434 119 503 106 b 388 -24 503 1 463 -24 b 261 64 326 -24 287 5 b 217 87 253 86 240 95 l 98 49 b 74 4 77 42 67 27 b 386 -181 120 -112 230 -181 z m 283 378 b 343 443 283 403 304 426 b 357 446 350 446 354 447 b 515 370 452 427 515 414 b 429 312 515 340 486 322 b 419 312 426 311 423 311 b 283 378 319 332 283 345 z "},"¶":{"ha":758,"x_min":0,"x_max":0,"o":"m 62 610 b 328 323 62 423 157 333 b 364 357 351 322 364 335 l 364 718 b 371 726 364 723 367 726 l 453 726 b 461 718 458 726 461 723 l 461 35 b 496 0 461 13 473 0 l 628 0 b 663 35 650 0 663 13 l 663 861 b 628 896 663 884 650 896 l 321 896 b 62 610 154 896 62 808 z "},"·":{"ha":758,"x_min":0,"x_max":0,"o":"m 383 294 b 529 442 461 294 529 364 b 383 590 529 520 461 590 b 234 442 303 590 234 520 b 383 294 234 364 303 294 z "},"•":{"ha":758,"x_min":0,"x_max":0,"o":"m 383 261 b 563 442 480 261 563 343 b 383 622 563 540 480 622 b 201 442 284 622 201 540 b 383 261 201 343 284 261 z "},"+":{"ha":758,"x_min":0,"x_max":0,"o":"m 484 188 l 484 347 b 491 355 484 352 486 355 l 641 355 b 677 390 664 355 677 367 l 677 501 b 641 537 677 524 664 537 l 491 537 b 484 544 486 537 484 539 l 484 702 b 448 737 484 725 471 737 l 309 737 b 274 702 287 737 274 725 l 274 544 b 266 537 274 539 271 537 l 116 537 b 81 501 93 537 81 524 l 81 390 b 116 355 81 367 93 355 l 266 355 b 274 347 271 355 274 352 l 274 188 b 309 153 274 165 287 153 l 448 153 b 484 188 471 153 484 165 z "},"−":{"ha":758,"x_min":0,"x_max":0,"o":"m 639 537 l 119 537 b 83 501 96 537 83 524 l 83 384 b 119 348 83 361 96 348 l 639 348 b 674 384 662 348 674 361 l 674 501 b 639 537 674 524 662 537 z "},"±":{"ha":758,"x_min":0,"x_max":0,"o":"m 484 357 l 484 506 b 491 514 484 511 486 514 l 641 514 b 677 549 664 514 677 527 l 677 655 b 641 691 677 678 664 691 l 491 691 b 484 698 486 691 484 694 l 484 846 b 448 881 484 869 471 881 l 309 881 b 274 846 287 881 274 869 l 274 698 b 266 691 274 693 271 691 l 116 691 b 81 655 93 691 81 678 l 81 549 b 116 514 81 527 93 514 l 266 514 b 274 506 271 514 274 510 l 274 357 b 309 322 274 335 287 322 l 448 322 b 484 357 471 322 484 335 z m 116 74 l 641 74 b 677 110 664 74 677 87 l 677 216 b 641 251 677 239 664 251 l 116 251 b 81 216 93 251 81 239 l 81 110 b 116 74 81 87 93 74 z "},"÷":{"ha":758,"x_min":0,"x_max":0,"o":"m 379 38 b 511 170 449 38 511 98 b 379 303 511 242 449 303 b 245 170 307 303 245 242 b 379 38 245 98 307 38 z m 95 347 l 662 347 b 697 383 684 347 697 360 l 697 490 b 662 525 697 513 684 525 l 95 525 b 59 490 72 525 59 513 l 59 383 b 95 347 59 360 72 347 z m 245 702 b 379 569 245 630 307 569 b 511 702 449 569 511 630 b 379 835 511 774 449 835 b 245 702 307 835 245 774 z "},"×":{"ha":758,"x_min":0,"x_max":0,"o":"m 559 144 l 635 220 b 635 270 652 236 652 254 l 506 399 b 506 409 504 402 504 407 l 635 538 b 635 588 652 554 652 572 l 566 658 b 515 658 549 674 532 674 l 386 529 b 376 529 384 527 379 527 l 247 658 b 197 658 231 674 213 674 l 121 582 b 121 532 105 566 105 548 l 250 403 b 250 393 253 400 253 395 l 121 264 b 121 213 105 247 105 230 l 191 144 b 241 144 207 128 225 128 l 370 273 b 380 273 372 275 378 275 l 509 144 b 559 144 525 128 543 128 z "},"=":{"ha":758,"x_min":0,"x_max":0,"o":"m 633 678 l 125 678 b 90 643 102 678 90 665 l 90 539 b 125 504 90 516 102 504 l 633 504 b 668 539 655 504 668 516 l 668 643 b 633 678 668 665 655 678 z m 125 210 l 633 210 b 668 245 655 210 668 222 l 668 348 b 633 384 668 371 655 384 l 125 384 b 90 348 102 384 90 371 l 90 245 b 125 210 90 222 102 210 z "},"<":{"ha":758,"x_min":0,"x_max":0,"o":"m 77 470 l 77 360 b 96 317 77 342 82 328 b 251 207 136 283 189 246 l 591 -8 b 634 16 615 -23 634 -11 l 634 184 b 610 226 634 203 626 216 l 299 414 b 299 424 294 418 294 420 l 610 609 b 634 650 626 619 634 631 l 634 816 b 591 840 634 843 615 855 l 250 625 b 95 513 191 587 136 552 b 77 470 82 500 77 487 z "},">":{"ha":758,"x_min":0,"x_max":0,"o":"m 681 362 l 681 472 b 662 515 681 490 676 504 b 506 625 621 549 568 586 l 167 840 b 124 816 143 855 124 843 l 124 648 b 148 606 124 629 131 616 l 458 418 b 458 408 463 414 463 412 l 148 223 b 124 182 131 213 124 201 l 124 16 b 167 -8 124 -11 143 -23 l 508 207 b 663 319 567 245 621 280 b 681 362 676 332 681 345 z "},"¬":{"ha":758,"x_min":0,"x_max":0,"o":"m 664 235 l 664 561 b 629 596 664 583 652 596 l 129 596 b 93 561 106 596 93 583 l 93 448 b 129 413 93 426 106 413 l 442 413 b 449 405 447 413 449 409 l 449 235 b 485 199 449 212 462 199 l 629 199 b 664 235 652 199 664 212 z "},"$":{"ha":758,"x_min":0,"x_max":0,"o":"m 538 268 b 468 206 538 235 519 216 b 455 212 460 205 455 207 l 455 328 b 463 333 455 333 458 336 b 538 268 516 313 538 295 z m 62 633 b 327 378 62 484 164 426 b 335 369 332 376 335 372 l 335 210 b 327 202 335 205 332 201 b 153 266 268 213 199 241 b 106 250 131 279 114 273 l 76 157 b 93 110 69 136 74 120 b 327 43 148 82 239 51 b 335 34 332 42 335 38 l 335 -54 b 370 -90 335 -77 347 -90 l 419 -90 b 455 -54 442 -90 455 -77 l 455 38 b 462 47 455 42 457 45 b 726 289 652 73 726 188 b 461 535 726 433 612 489 b 455 544 457 538 455 540 l 455 682 b 463 689 455 687 457 691 b 591 639 506 679 547 663 b 638 655 612 626 630 631 l 670 751 b 652 797 678 771 672 788 b 462 850 598 821 538 841 b 455 859 457 851 455 855 l 455 942 b 419 977 455 965 442 977 l 370 977 b 335 942 347 977 335 965 l 335 862 b 327 855 335 859 332 855 b 62 633 139 842 62 745 z m 251 646 b 321 697 251 676 271 692 b 335 691 330 698 335 696 l 335 583 b 326 578 335 578 331 576 b 251 646 274 596 251 612 z "},"¢":{"ha":758,"x_min":0,"x_max":0,"o":"m 564 535 l 694 577 b 716 622 716 585 726 601 b 461 808 673 717 587 790 b 453 817 456 809 453 813 l 453 942 b 418 977 453 965 441 977 l 369 977 b 333 942 346 977 333 965 l 333 814 b 327 806 333 811 331 807 b 42 448 152 775 42 640 b 327 90 42 255 152 120 b 333 81 331 88 333 85 l 333 -54 b 369 -90 333 -77 346 -90 l 418 -90 b 453 -54 441 -90 453 -77 l 453 78 b 461 87 453 82 456 86 b 717 256 568 101 660 157 b 698 303 729 278 721 294 l 568 350 b 521 330 548 357 532 350 b 462 264 505 297 485 277 b 453 270 457 261 453 265 l 453 624 b 462 629 453 629 457 633 b 520 557 486 614 505 591 b 564 535 529 535 543 529 z m 249 448 b 327 625 249 530 278 595 b 333 619 331 628 333 624 l 333 278 b 324 273 333 273 330 270 b 249 448 277 304 249 367 z "},"£":{"ha":758,"x_min":0,"x_max":0,"o":"m 95 361 l 177 361 b 186 354 181 361 184 359 b 187 327 186 345 187 335 b 92 159 187 245 150 206 b 71 116 77 148 71 134 l 71 35 b 106 0 71 13 83 0 l 645 0 b 681 35 668 0 681 13 l 681 139 b 645 174 681 162 668 174 l 343 174 b 341 183 337 174 336 179 b 414 331 385 216 414 269 b 414 354 414 338 414 346 b 420 361 413 359 415 361 l 595 361 b 630 396 617 361 630 374 l 630 497 b 595 533 630 520 617 533 l 375 533 b 366 539 371 533 367 535 b 347 655 352 590 347 626 b 420 737 347 727 384 737 b 500 681 447 737 472 725 b 549 667 514 659 530 655 l 668 740 b 677 789 687 753 692 770 b 409 915 610 878 528 915 b 124 663 269 915 124 869 b 139 542 124 628 129 587 b 133 533 140 537 138 533 l 95 533 b 59 497 72 533 59 520 l 59 396 b 95 361 59 374 72 361 z "},"¤":{"ha":758,"x_min":0,"x_max":0,"o":"m 379 225 b 448 234 403 225 427 229 b 457 230 452 235 455 232 l 534 136 b 585 131 548 119 567 116 l 664 196 b 668 245 682 211 683 227 l 590 331 b 590 341 587 335 587 337 b 616 451 606 374 616 410 b 590 561 616 492 606 529 b 590 571 587 564 587 567 l 668 657 b 664 706 683 674 682 691 l 585 770 b 534 765 567 785 548 783 l 456 669 b 446 665 453 667 451 664 b 379 674 424 672 402 674 b 312 665 356 674 333 672 b 302 669 307 664 304 667 l 223 765 b 173 770 210 783 191 785 l 93 701 b 90 652 76 686 74 669 l 164 569 b 164 559 167 566 167 563 b 138 451 148 528 138 491 b 165 338 138 409 148 371 b 165 328 168 335 168 332 l 90 245 b 93 196 74 227 76 211 l 173 131 b 223 136 191 116 210 119 l 299 230 b 309 234 302 232 304 235 b 379 225 331 229 355 225 z m 280 451 b 379 552 280 508 326 552 b 475 451 433 552 475 506 b 379 350 475 398 433 350 b 280 451 326 350 280 396 z "},"¥":{"ha":758,"x_min":0,"x_max":0,"o":"m 677 307 l 499 307 l 499 308 b 503 317 499 308 500 311 l 532 386 b 540 393 533 391 537 393 l 677 393 b 712 428 699 393 712 405 l 712 492 b 677 528 712 515 699 528 l 602 528 b 596 537 597 528 593 530 l 731 855 b 705 896 741 879 731 896 l 561 896 b 519 869 540 896 527 888 l 391 535 b 381 535 389 528 384 529 l 250 869 b 208 896 242 888 229 896 l 54 896 b 28 855 28 896 16 879 l 172 537 b 165 528 174 530 170 528 l 98 528 b 63 492 76 528 63 515 l 63 428 b 98 393 63 405 76 393 l 231 393 b 240 388 235 393 239 391 l 273 316 b 266 307 275 309 271 307 l 98 307 b 63 271 76 307 63 294 l 63 207 b 98 172 63 184 76 172 l 270 172 b 278 164 275 172 278 169 l 278 35 b 313 0 278 13 290 0 l 463 0 b 499 35 486 0 499 13 l 499 164 b 506 172 499 169 503 172 l 677 172 b 712 207 699 172 712 184 l 712 271 b 677 307 712 294 699 307 z "},"ƒ":{"ha":758,"x_min":0,"x_max":0,"o":"m 638 487 l 465 487 b 457 495 460 487 457 490 l 468 674 b 534 784 472 749 487 784 b 630 766 567 784 598 778 b 676 787 653 758 668 765 l 712 891 b 691 937 720 914 712 931 b 499 966 633 955 568 966 b 258 727 340 966 266 884 l 244 495 b 236 487 244 491 240 487 l 141 487 b 106 452 119 487 106 475 l 106 346 b 141 311 106 323 119 311 l 225 311 b 232 303 230 311 232 308 l 215 13 b 143 -92 210 -63 189 -92 b 66 -78 117 -92 90 -87 b 20 -100 43 -71 28 -78 l -13 -203 b 8 -249 -19 -223 -13 -241 b 178 -274 51 -263 109 -274 b 427 -48 351 -274 419 -181 l 447 303 b 455 311 447 307 451 311 l 638 311 b 673 346 660 311 673 323 l 673 452 b 638 487 673 475 660 487 z "},"^":{"ha":758,"x_min":0,"x_max":0,"o":"m 527 237 l 655 237 b 681 280 683 237 694 255 l 539 527 b 446 668 505 586 471 633 b 403 691 434 684 422 691 l 355 691 b 313 669 336 691 323 684 b 222 529 288 635 256 588 l 78 280 b 104 237 64 255 76 237 l 234 237 b 275 263 253 237 266 245 l 374 456 b 384 456 376 462 381 462 l 485 263 b 527 237 494 245 508 237 z "},"~":{"ha":758,"x_min":0,"x_max":0,"o":"m 104 393 l 187 393 b 222 429 208 393 220 405 b 264 486 227 473 242 486 b 497 386 317 486 394 386 b 689 607 615 386 678 446 b 654 645 691 631 677 645 l 571 645 b 534 609 549 645 538 633 b 494 552 529 564 513 552 b 255 652 447 552 380 652 b 68 431 143 652 80 592 b 104 393 67 407 81 393 z "},"`":{"ha":758,"x_min":0,"x_max":0,"o":"m 587 557 l 448 870 b 408 896 441 889 428 896 l 196 896 b 172 854 168 896 158 878 l 359 539 b 400 515 369 521 381 515 l 561 515 b 587 557 587 515 597 533 z "},"©":{"ha":758,"x_min":0,"x_max":0,"o":"m 378 97 b 139 449 235 97 139 237 b 378 801 139 660 235 801 b 619 449 523 801 619 660 b 378 97 619 237 523 97 z m 13 449 b 378 -19 13 167 159 -19 b 745 449 598 -19 745 167 b 378 915 745 730 598 915 b 13 449 159 915 13 730 z m 201 449 b 385 173 201 280 271 173 b 554 347 470 173 532 230 b 523 386 558 370 545 384 l 455 393 b 418 356 431 395 419 381 b 385 295 413 307 403 295 b 348 449 364 295 348 356 b 385 601 348 542 364 601 b 413 533 399 601 409 582 b 449 497 414 509 427 496 l 520 503 b 551 543 543 504 556 519 b 385 725 528 664 471 725 b 201 449 271 725 201 616 z "},"®":{"ha":758,"x_min":0,"x_max":0,"o":"m 378 231 b 681 573 549 231 681 331 b 378 915 681 816 549 915 b 74 573 206 915 74 816 b 378 231 74 331 206 231 z m 169 573 b 378 823 169 761 254 823 b 586 573 501 823 586 761 b 378 323 586 385 501 323 b 169 573 254 323 169 385 z m 285 409 l 318 409 b 354 444 341 409 354 422 l 354 504 b 361 511 354 509 356 511 l 374 511 l 375 511 b 384 505 379 511 383 510 l 407 438 b 447 409 413 418 427 409 l 481 409 b 509 449 506 409 518 424 l 480 533 b 482 543 479 538 479 540 b 515 631 504 562 515 591 b 374 746 515 711 465 746 l 285 746 b 250 711 263 746 250 734 l 250 444 b 285 409 250 422 263 409 z m 354 595 l 354 664 b 361 672 354 669 356 672 l 370 672 b 407 631 395 672 407 659 b 370 587 407 600 395 587 l 361 587 b 354 595 356 587 354 590 z "},"™":{"ha":758,"x_min":0,"x_max":0,"o":"m 525 530 b 549 557 534 530 543 538 b 562 588 554 568 558 580 l 604 699 b 612 698 606 707 612 705 l 612 523 b 648 487 612 500 625 487 l 696 487 b 731 523 718 487 731 500 l 731 861 b 696 896 731 884 718 896 l 629 896 b 588 871 610 896 596 889 b 580 848 585 864 582 856 l 532 722 b 521 722 529 715 524 715 l 473 851 l 465 874 b 424 896 457 890 443 896 l 356 896 b 321 861 333 896 321 884 l 321 523 b 356 487 321 500 333 487 l 400 487 b 436 523 423 487 436 500 l 436 698 b 444 699 436 705 442 707 l 486 590 b 500 556 490 578 495 566 b 525 530 508 538 516 530 z m 45 793 l 81 793 b 88 785 86 793 88 789 l 88 523 b 124 487 88 500 101 487 l 173 487 b 208 523 196 487 208 500 l 208 785 b 216 793 208 790 211 793 l 251 793 b 287 828 274 793 287 806 l 287 861 b 251 896 287 884 274 896 l 45 896 b 10 861 23 896 10 884 l 10 828 b 45 793 10 806 23 793 z "},"°":{"ha":758,"x_min":0,"x_max":0,"o":"m 374 383 b 657 650 534 383 657 495 b 374 915 657 808 533 915 b 101 650 223 915 101 808 b 374 383 101 491 218 383 z m 282 650 b 374 764 282 715 322 764 b 463 650 426 764 463 713 b 374 540 463 591 426 540 b 282 650 322 540 282 586 z "}}}
